<svg xmlns="http://www.w3.org/2000/svg" width="1584" height="396" fill="none" viewBox="0 0 1584 396"><g clip-path="url(#clip0_1_116)"><rect width="1584" height="396" fill="#fff"/><g filter="url(#filter0_f_1_116)" opacity=".32"><ellipse cx="1204.5" cy="234.5" fill="#FFD755" rx="715.5" ry="540.5"/></g><path fill="#FFD755" d="M1388.69 247.208L1411.59 265.365L1384.41 276.117L1388.69 247.208Z"/><path fill="#3F3F3F" d="M1388.74 75.71V91H1386.23V84.312H1379.04V91H1376.53V75.71H1379.04V82.266H1386.23V75.71H1388.74ZM1403.15 84.642C1403.15 85.0967 1403.13 85.5073 1403.07 85.874H1393.8C1393.88 86.842 1394.24 87.6193 1394.88 88.206C1395.53 88.7927 1396.32 89.086 1397.26 89.086C1398.61 89.086 1399.56 88.5213 1400.12 87.392H1402.82C1402.46 88.5067 1401.79 89.4233 1400.82 90.142C1399.87 90.846 1398.68 91.198 1397.26 91.198C1396.1 91.198 1395.06 90.9413 1394.13 90.428C1393.23 89.9 1392.51 89.1667 1391.98 88.228C1391.47 87.2747 1391.21 86.1747 1391.21 84.928C1391.21 83.6813 1391.46 82.5887 1391.96 81.65C1392.47 80.6967 1393.18 79.9633 1394.09 79.45C1395.01 78.9367 1396.07 78.68 1397.26 78.68C1398.4 78.68 1399.42 78.9293 1400.32 79.428C1401.21 79.9267 1401.91 80.6307 1402.41 81.54C1402.91 82.4347 1403.15 83.4687 1403.15 84.642ZM1400.54 83.85C1400.52 82.926 1400.19 82.1853 1399.55 81.628C1398.9 81.0707 1398.1 80.792 1397.15 80.792C1396.28 80.792 1395.54 81.0707 1394.93 81.628C1394.31 82.1707 1393.94 82.9113 1393.83 83.85H1400.54ZM1408.13 74.72V91H1405.62V74.72H1408.13ZM1413.93 74.72V91H1411.42V74.72H1413.93ZM1422.48 91.198C1421.34 91.198 1420.3 90.9413 1419.38 90.428C1418.46 89.9 1417.73 89.1667 1417.2 88.228C1416.67 87.2747 1416.41 86.1747 1416.41 84.928C1416.41 83.696 1416.68 82.6033 1417.22 81.65C1417.77 80.6967 1418.51 79.9633 1419.45 79.45C1420.38 78.9367 1421.43 78.68 1422.59 78.68C1423.75 78.68 1424.8 78.9367 1425.74 79.45C1426.68 79.9633 1427.42 80.6967 1427.96 81.65C1428.5 82.6033 1428.77 83.696 1428.77 84.928C1428.77 86.16 1428.5 87.2527 1427.94 88.206C1427.38 89.1593 1426.62 89.9 1425.65 90.428C1424.7 90.9413 1423.64 91.198 1422.48 91.198ZM1422.48 89.02C1423.13 89.02 1423.73 88.866 1424.29 88.558C1424.86 88.25 1425.32 87.788 1425.67 87.172C1426.02 86.556 1426.2 85.808 1426.2 84.928C1426.2 84.048 1426.03 83.3073 1425.69 82.706C1425.36 82.09 1424.91 81.628 1424.35 81.32C1423.79 81.012 1423.19 80.858 1422.55 80.858C1421.9 80.858 1421.3 81.012 1420.74 81.32C1420.2 81.628 1419.77 82.09 1419.45 82.706C1419.12 83.3073 1418.96 84.048 1418.96 84.928C1418.96 86.2333 1419.29 87.2453 1419.95 87.964C1420.63 88.668 1421.47 89.02 1422.48 89.02ZM1434.4 75.71L1434.11 86.38H1432.02L1431.74 75.71H1434.4ZM1433.15 91.154C1432.69 91.154 1432.31 91 1432 90.692C1431.69 90.384 1431.54 90.0027 1431.54 89.548C1431.54 89.0933 1431.69 88.712 1432 88.404C1432.31 88.096 1432.69 87.942 1433.15 87.942C1433.59 87.942 1433.96 88.096 1434.27 88.404C1434.58 88.712 1434.73 89.0933 1434.73 89.548C1434.73 90.0027 1434.58 90.384 1434.27 90.692C1433.96 91 1433.59 91.154 1433.15 91.154ZM1446.54 75.71V91H1444.04V75.71H1446.54ZM1450.23 75.71H1452.96L1450.65 80.946H1448.89L1450.23 75.71ZM1469.84 78.68C1470.79 78.68 1471.64 78.878 1472.39 79.274C1473.15 79.67 1473.75 80.2567 1474.17 81.034C1474.61 81.8113 1474.83 82.75 1474.83 83.85V91H1472.35V84.224C1472.35 83.1387 1472.08 82.31 1471.53 81.738C1470.99 81.1513 1470.25 80.858 1469.31 80.858C1468.37 80.858 1467.62 81.1513 1467.07 81.738C1466.52 82.31 1466.25 83.1387 1466.25 84.224V91H1463.77V84.224C1463.77 83.1387 1463.5 82.31 1462.95 81.738C1462.41 81.1513 1461.67 80.858 1460.73 80.858C1459.79 80.858 1459.04 81.1513 1458.49 81.738C1457.94 82.31 1457.67 83.1387 1457.67 84.224V91H1455.17V78.878H1457.67V80.264C1458.08 79.7653 1458.6 79.3767 1459.24 79.098C1459.87 78.8193 1460.54 78.68 1461.26 78.68C1462.23 78.68 1463.09 78.8853 1463.86 79.296C1464.62 79.7067 1465.2 80.3007 1465.62 81.078C1465.98 80.3447 1466.55 79.7653 1467.33 79.34C1468.11 78.9 1468.94 78.68 1469.84 78.68ZM1482.9 84.884C1482.9 83.6667 1483.15 82.5887 1483.65 81.65C1484.17 80.7113 1484.85 79.9853 1485.72 79.472C1486.6 78.944 1487.57 78.68 1488.62 78.68C1489.58 78.68 1490.41 78.8707 1491.11 79.252C1491.83 79.6187 1492.4 80.0807 1492.83 80.638V78.878H1495.36V91H1492.83V89.196C1492.4 89.768 1491.82 90.2447 1491.09 90.626C1490.35 91.0073 1489.52 91.198 1488.58 91.198C1487.54 91.198 1486.59 90.934 1485.72 90.406C1484.85 89.8633 1484.17 89.1153 1483.65 88.162C1483.15 87.194 1482.9 86.1013 1482.9 84.884ZM1492.83 84.928C1492.83 84.092 1492.65 83.366 1492.3 82.75C1491.96 82.134 1491.51 81.6647 1490.96 81.342C1490.4 81.0193 1489.8 80.858 1489.15 80.858C1488.51 80.858 1487.91 81.0193 1487.35 81.342C1486.79 81.65 1486.34 82.112 1485.98 82.728C1485.65 83.3293 1485.48 84.048 1485.48 84.884C1485.48 85.72 1485.65 86.4533 1485.98 87.084C1486.34 87.7147 1486.79 88.1987 1487.35 88.536C1487.92 88.8587 1488.52 89.02 1489.15 89.02C1489.8 89.02 1490.4 88.8587 1490.96 88.536C1491.51 88.2133 1491.96 87.744 1492.3 87.128C1492.65 86.4973 1492.83 85.764 1492.83 84.928Z"/><path fill="#FFD500" d="M565.865 121.308V159H558.305V134.484L548.207 159H542.483L532.331 134.484V159H524.771V121.308H533.357L545.345 149.334L557.333 121.308H565.865ZM601.581 129.084V159H593.967V155.22C592.995 156.516 591.717 157.542 590.133 158.298C588.585 159.018 586.893 159.378 585.057 159.378C582.717 159.378 580.647 158.892 578.847 157.92C577.047 156.912 575.625 155.454 574.581 153.546C573.573 151.602 573.069 149.298 573.069 146.634V129.084H580.629V145.554C580.629 147.93 581.223 149.766 582.411 151.062C583.599 152.322 585.219 152.952 587.271 152.952C589.359 152.952 590.997 152.322 592.185 151.062C593.373 149.766 593.967 147.93 593.967 145.554V129.084H601.581ZM625.888 128.652C628.156 128.652 630.172 129.156 631.936 130.164C633.7 131.136 635.068 132.594 636.04 134.538C637.048 136.446 637.552 138.75 637.552 141.45V159H629.992V142.476C629.992 140.1 629.398 138.282 628.21 137.022C627.022 135.726 625.402 135.078 623.35 135.078C621.262 135.078 619.606 135.726 618.382 137.022C617.194 138.282 616.6 140.1 616.6 142.476V159H609.04V119.04H616.6V132.81C617.572 131.514 618.868 130.506 620.488 129.786C622.108 129.03 623.908 128.652 625.888 128.652ZM642.798 143.934C642.798 140.91 643.392 138.228 644.58 135.888C645.804 133.548 647.442 131.748 649.494 130.488C651.582 129.228 653.904 128.598 656.46 128.598C658.692 128.598 660.636 129.048 662.292 129.948C663.984 130.848 665.334 131.982 666.342 133.35V129.084H673.956V159H666.342V154.626C665.37 156.03 664.02 157.2 662.292 158.136C660.6 159.036 658.638 159.486 656.406 159.486C653.886 159.486 651.582 158.838 649.494 157.542C647.442 156.246 645.804 154.428 644.58 152.088C643.392 149.712 642.798 146.994 642.798 143.934ZM666.342 144.042C666.342 142.206 665.982 140.64 665.262 139.344C664.542 138.012 663.57 137.004 662.346 136.32C661.122 135.6 659.808 135.24 658.404 135.24C657 135.24 655.704 135.582 654.516 136.266C653.328 136.95 652.356 137.958 651.6 139.29C650.88 140.586 650.52 142.134 650.52 143.934C650.52 145.734 650.88 147.318 651.6 148.686C652.356 150.018 653.328 151.044 654.516 151.764C655.74 152.484 657.036 152.844 658.404 152.844C659.808 152.844 661.122 152.502 662.346 151.818C663.57 151.098 664.542 150.09 665.262 148.794C665.982 147.462 666.342 145.878 666.342 144.042ZM718.491 128.652C722.163 128.652 725.115 129.786 727.347 132.054C729.615 134.286 730.749 137.418 730.749 141.45V159H723.189V142.476C723.189 140.136 722.595 138.354 721.407 137.13C720.219 135.87 718.599 135.24 716.547 135.24C714.495 135.24 712.857 135.87 711.633 137.13C710.445 138.354 709.851 140.136 709.851 142.476V159H702.291V142.476C702.291 140.136 701.697 138.354 700.509 137.13C699.321 135.87 697.701 135.24 695.649 135.24C693.561 135.24 691.905 135.87 690.681 137.13C689.493 138.354 688.899 140.136 688.899 142.476V159H681.339V129.084H688.899V132.702C689.871 131.442 691.113 130.452 692.625 129.732C694.173 129.012 695.865 128.652 697.701 128.652C700.041 128.652 702.129 129.156 703.965 130.164C705.801 131.136 707.223 132.54 708.231 134.376C709.203 132.648 710.607 131.262 712.443 130.218C714.315 129.174 716.331 128.652 718.491 128.652ZM775.075 128.652C778.747 128.652 781.699 129.786 783.931 132.054C786.199 134.286 787.333 137.418 787.333 141.45V159H779.773V142.476C779.773 140.136 779.179 138.354 777.991 137.13C776.803 135.87 775.183 135.24 773.131 135.24C771.079 135.24 769.441 135.87 768.217 137.13C767.029 138.354 766.435 140.136 766.435 142.476V159H758.875V142.476C758.875 140.136 758.281 138.354 757.093 137.13C755.905 135.87 754.285 135.24 752.233 135.24C750.145 135.24 748.489 135.87 747.265 137.13C746.077 138.354 745.483 140.136 745.483 142.476V159H737.923V129.084H745.483V132.702C746.455 131.442 747.697 130.452 749.209 129.732C750.757 129.012 752.449 128.652 754.285 128.652C756.625 128.652 758.713 129.156 760.549 130.164C762.385 131.136 763.807 132.54 764.815 134.376C765.787 132.648 767.191 131.262 769.027 130.218C770.899 129.174 772.915 128.652 775.075 128.652ZM792.563 143.934C792.563 140.91 793.157 138.228 794.345 135.888C795.569 133.548 797.207 131.748 799.259 130.488C801.347 129.228 803.669 128.598 806.225 128.598C808.457 128.598 810.401 129.048 812.057 129.948C813.749 130.848 815.099 131.982 816.107 133.35V129.084H823.721V159H816.107V154.626C815.135 156.03 813.785 157.2 812.057 158.136C810.365 159.036 808.403 159.486 806.171 159.486C803.651 159.486 801.347 158.838 799.259 157.542C797.207 156.246 795.569 154.428 794.345 152.088C793.157 149.712 792.563 146.994 792.563 143.934ZM816.107 144.042C816.107 142.206 815.747 140.64 815.027 139.344C814.307 138.012 813.335 137.004 812.111 136.32C810.887 135.6 809.573 135.24 808.169 135.24C806.765 135.24 805.469 135.582 804.281 136.266C803.093 136.95 802.121 137.958 801.365 139.29C800.645 140.586 800.285 142.134 800.285 143.934C800.285 145.734 800.645 147.318 801.365 148.686C802.121 150.018 803.093 151.044 804.281 151.764C805.505 152.484 806.801 152.844 808.169 152.844C809.573 152.844 810.887 152.502 812.111 151.818C813.335 151.098 814.307 150.09 815.027 148.794C815.747 147.462 816.107 145.878 816.107 144.042ZM829.161 143.934C829.161 140.91 829.755 138.228 830.943 135.888C832.167 133.548 833.823 131.748 835.911 130.488C837.999 129.228 840.321 128.598 842.877 128.598C844.821 128.598 846.675 129.03 848.439 129.894C850.203 130.722 851.607 131.838 852.651 133.242V119.04H860.319V159H852.651V154.572C851.715 156.048 850.401 157.236 848.709 158.136C847.017 159.036 845.055 159.486 842.823 159.486C840.303 159.486 837.999 158.838 835.911 157.542C833.823 156.246 832.167 154.428 830.943 152.088C829.755 149.712 829.161 146.994 829.161 143.934ZM852.705 144.042C852.705 142.206 852.345 140.64 851.625 139.344C850.905 138.012 849.933 137.004 848.709 136.32C847.485 135.6 846.171 135.24 844.767 135.24C843.363 135.24 842.067 135.582 840.879 136.266C839.691 136.95 838.719 137.958 837.963 139.29C837.243 140.586 836.883 142.134 836.883 143.934C836.883 145.734 837.243 147.318 837.963 148.686C838.719 150.018 839.691 151.044 840.879 151.764C842.103 152.484 843.399 152.844 844.767 152.844C846.171 152.844 847.485 152.502 848.709 151.818C849.933 151.098 850.905 150.09 851.625 148.794C852.345 147.462 852.705 145.878 852.705 144.042ZM893.584 159.378C890.956 159.378 888.58 158.928 886.456 158.028C884.368 157.128 882.712 155.832 881.488 154.14C880.264 152.448 879.634 150.45 879.598 148.146H887.698C887.806 149.694 888.346 150.918 889.318 151.818C890.326 152.718 891.694 153.168 893.422 153.168C895.186 153.168 896.572 152.754 897.58 151.926C898.588 151.062 899.092 149.946 899.092 148.578C899.092 147.462 898.75 146.544 898.066 145.824C897.382 145.104 896.518 144.546 895.474 144.15C894.466 143.718 893.062 143.25 891.262 142.746C888.814 142.026 886.816 141.324 885.268 140.64C883.756 139.92 882.442 138.858 881.326 137.454C880.246 136.014 879.706 134.106 879.706 131.73C879.706 129.498 880.264 127.554 881.38 125.898C882.496 124.242 884.062 122.982 886.078 122.118C888.094 121.218 890.398 120.768 892.99 120.768C896.878 120.768 900.028 121.722 902.44 123.63C904.888 125.502 906.238 128.13 906.49 131.514H898.174C898.102 130.218 897.544 129.156 896.5 128.328C895.492 127.464 894.142 127.032 892.45 127.032C890.974 127.032 889.786 127.41 888.886 128.166C888.022 128.922 887.59 130.02 887.59 131.46C887.59 132.468 887.914 133.314 888.562 133.998C889.246 134.646 890.074 135.186 891.046 135.618C892.054 136.014 893.458 136.482 895.258 137.022C897.706 137.742 899.704 138.462 901.252 139.182C902.8 139.902 904.132 140.982 905.248 142.422C906.364 143.862 906.922 145.752 906.922 148.092C906.922 150.108 906.4 151.98 905.356 153.708C904.312 155.436 902.782 156.822 900.766 157.866C898.75 158.874 896.356 159.378 893.584 159.378ZM930.324 128.652C932.592 128.652 934.608 129.156 936.372 130.164C938.136 131.136 939.504 132.594 940.476 134.538C941.484 136.446 941.988 138.75 941.988 141.45V159H934.428V142.476C934.428 140.1 933.834 138.282 932.646 137.022C931.458 135.726 929.838 135.078 927.786 135.078C925.698 135.078 924.042 135.726 922.818 137.022C921.63 138.282 921.036 140.1 921.036 142.476V159H913.476V119.04H921.036V132.81C922.008 131.514 923.304 130.506 924.924 129.786C926.544 129.03 928.344 128.652 930.324 128.652ZM947.233 143.934C947.233 140.91 947.827 138.228 949.015 135.888C950.239 133.548 951.877 131.748 953.929 130.488C956.017 129.228 958.339 128.598 960.895 128.598C963.127 128.598 965.071 129.048 966.727 129.948C968.419 130.848 969.769 131.982 970.777 133.35V129.084H978.391V159H970.777V154.626C969.805 156.03 968.455 157.2 966.727 158.136C965.035 159.036 963.073 159.486 960.841 159.486C958.321 159.486 956.017 158.838 953.929 157.542C951.877 156.246 950.239 154.428 949.015 152.088C947.827 149.712 947.233 146.994 947.233 143.934ZM970.777 144.042C970.777 142.206 970.417 140.64 969.697 139.344C968.977 138.012 968.005 137.004 966.781 136.32C965.557 135.6 964.243 135.24 962.839 135.24C961.435 135.24 960.139 135.582 958.951 136.266C957.763 136.95 956.791 137.958 956.035 139.29C955.315 140.586 954.955 142.134 954.955 143.934C954.955 145.734 955.315 147.318 956.035 148.686C956.791 150.018 957.763 151.044 958.951 151.764C960.175 152.484 961.471 152.844 962.839 152.844C964.243 152.844 965.557 152.502 966.781 151.818C968.005 151.098 968.977 150.09 969.697 148.794C970.417 147.462 970.777 145.878 970.777 144.042ZM993.335 119.04V159H985.775V119.04H993.335ZM998.86 143.934C998.86 140.91 999.454 138.228 1000.64 135.888C1001.87 133.548 1003.5 131.748 1005.56 130.488C1007.64 129.228 1009.97 128.598 1012.52 128.598C1014.75 128.598 1016.7 129.048 1018.35 129.948C1020.05 130.848 1021.4 131.982 1022.4 133.35V129.084H1030.02V159H1022.4V154.626C1021.43 156.03 1020.08 157.2 1018.35 158.136C1016.66 159.036 1014.7 159.486 1012.47 159.486C1009.95 159.486 1007.64 158.838 1005.56 157.542C1003.5 156.246 1001.87 154.428 1000.64 152.088C999.454 149.712 998.86 146.994 998.86 143.934ZM1022.4 144.042C1022.4 142.206 1022.04 140.64 1021.32 139.344C1020.6 138.012 1019.63 137.004 1018.41 136.32C1017.18 135.6 1015.87 135.24 1014.47 135.24C1013.06 135.24 1011.77 135.582 1010.58 136.266C1009.39 136.95 1008.42 137.958 1007.66 139.29C1006.94 140.586 1006.58 142.134 1006.58 143.934C1006.58 145.734 1006.94 147.318 1007.66 148.686C1008.42 150.018 1009.39 151.044 1010.58 151.764C1011.8 152.484 1013.1 152.844 1014.47 152.844C1015.87 152.844 1017.18 152.502 1018.41 151.818C1019.63 151.098 1020.6 150.09 1021.32 148.794C1022.04 147.462 1022.4 145.878 1022.4 144.042ZM1054.25 128.652C1056.52 128.652 1058.53 129.156 1060.3 130.164C1062.06 131.136 1063.43 132.594 1064.4 134.538C1065.41 136.446 1065.91 138.75 1065.91 141.45V159H1058.35V142.476C1058.35 140.1 1057.76 138.282 1056.57 137.022C1055.38 135.726 1053.76 135.078 1051.71 135.078C1049.62 135.078 1047.97 135.726 1046.74 137.022C1045.56 138.282 1044.96 140.1 1044.96 142.476V159H1037.4V119.04H1044.96V132.81C1045.93 131.514 1047.23 130.506 1048.85 129.786C1050.47 129.03 1052.27 128.652 1054.25 128.652ZM1101.34 129.084V159H1093.73V155.22C1092.76 156.516 1091.48 157.542 1089.9 158.298C1088.35 159.018 1086.66 159.378 1084.82 159.378C1082.48 159.378 1080.41 158.892 1078.61 157.92C1076.81 156.912 1075.39 155.454 1074.34 153.546C1073.34 151.602 1072.83 149.298 1072.83 146.634V129.084H1080.39V145.554C1080.39 147.93 1080.99 149.766 1082.17 151.062C1083.36 152.322 1084.98 152.952 1087.03 152.952C1089.12 152.952 1090.76 152.322 1091.95 151.062C1093.14 149.766 1093.73 147.93 1093.73 145.554V129.084H1101.34ZM1106.86 143.934C1106.86 140.91 1107.45 138.228 1108.64 135.888C1109.87 133.548 1111.52 131.748 1113.61 130.488C1115.7 129.228 1118.02 128.598 1120.58 128.598C1122.52 128.598 1124.37 129.03 1126.14 129.894C1127.9 130.722 1129.31 131.838 1130.35 133.242V119.04H1138.02V159H1130.35V154.572C1129.41 156.048 1128.1 157.236 1126.41 158.136C1124.72 159.036 1122.75 159.486 1120.52 159.486C1118 159.486 1115.7 158.838 1113.61 157.542C1111.52 156.246 1109.87 154.428 1108.64 152.088C1107.45 149.712 1106.86 146.994 1106.86 143.934ZM1130.4 144.042C1130.4 142.206 1130.04 140.64 1129.32 139.344C1128.6 138.012 1127.63 137.004 1126.41 136.32C1125.18 135.6 1123.87 135.24 1122.47 135.24C1121.06 135.24 1119.77 135.582 1118.58 136.266C1117.39 136.95 1116.42 137.958 1115.66 139.29C1114.94 140.586 1114.58 142.134 1114.58 143.934C1114.58 145.734 1114.94 147.318 1115.66 148.686C1116.42 150.018 1117.39 151.044 1118.58 151.764C1119.8 152.484 1121.1 152.844 1122.47 152.844C1123.87 152.844 1125.18 152.502 1126.41 151.818C1127.63 151.098 1128.6 150.09 1129.32 148.794C1130.04 147.462 1130.4 145.878 1130.4 144.042ZM1143.46 143.934C1143.46 140.91 1144.05 138.228 1145.24 135.888C1146.46 133.548 1148.12 131.748 1150.21 130.488C1152.3 129.228 1154.62 128.598 1157.17 128.598C1159.12 128.598 1160.97 129.03 1162.74 129.894C1164.5 130.722 1165.9 131.838 1166.95 133.242V119.04H1174.62V159H1166.95V154.572C1166.01 156.048 1164.7 157.236 1163.01 158.136C1161.31 159.036 1159.35 159.486 1157.12 159.486C1154.6 159.486 1152.3 158.838 1150.21 157.542C1148.12 156.246 1146.46 154.428 1145.24 152.088C1144.05 149.712 1143.46 146.994 1143.46 143.934ZM1167 144.042C1167 142.206 1166.64 140.64 1165.92 139.344C1165.2 138.012 1164.23 137.004 1163.01 136.32C1161.78 135.6 1160.47 135.24 1159.06 135.24C1157.66 135.24 1156.36 135.582 1155.18 136.266C1153.99 136.95 1153.02 137.958 1152.26 139.29C1151.54 140.586 1151.18 142.134 1151.18 143.934C1151.18 145.734 1151.54 147.318 1152.26 148.686C1153.02 150.018 1153.99 151.044 1155.18 151.764C1156.4 152.484 1157.7 152.844 1159.06 152.844C1160.47 152.844 1161.78 152.502 1163.01 151.818C1164.23 151.098 1165.2 150.09 1165.92 148.794C1166.64 147.462 1167 145.878 1167 144.042ZM1185.83 125.52C1184.5 125.52 1183.39 125.106 1182.49 124.278C1181.62 123.414 1181.19 122.352 1181.19 121.092C1181.19 119.832 1181.62 118.788 1182.49 117.96C1183.39 117.096 1184.5 116.664 1185.83 116.664C1187.17 116.664 1188.26 117.096 1189.13 117.96C1190.03 118.788 1190.48 119.832 1190.48 121.092C1190.48 122.352 1190.03 123.414 1189.13 124.278C1188.26 125.106 1187.17 125.52 1185.83 125.52ZM1189.56 129.084V159H1182V129.084H1189.56ZM1213.61 128.652C1217.17 128.652 1220.05 129.786 1222.25 132.054C1224.44 134.286 1225.54 137.418 1225.54 141.45V159H1217.98V142.476C1217.98 140.1 1217.39 138.282 1216.2 137.022C1215.01 135.726 1213.39 135.078 1211.34 135.078C1209.25 135.078 1207.59 135.726 1206.37 137.022C1205.18 138.282 1204.59 140.1 1204.59 142.476V159H1197.03V129.084H1204.59V132.81C1205.6 131.514 1206.87 130.506 1208.42 129.786C1210.01 129.03 1211.73 128.652 1213.61 128.652ZM1268.71 151.818H1253.7L1251.21 159H1243.28L1256.83 121.254H1265.63L1279.19 159H1271.19L1268.71 151.818ZM1266.66 145.77L1261.2 130.002L1255.75 145.77H1266.66ZM1321.4 128.652C1325.08 128.652 1328.03 129.786 1330.26 132.054C1332.53 134.286 1333.66 137.418 1333.66 141.45V159H1326.1V142.476C1326.1 140.136 1325.51 138.354 1324.32 137.13C1323.13 135.87 1321.51 135.24 1319.46 135.24C1317.41 135.24 1315.77 135.87 1314.55 137.13C1313.36 138.354 1312.76 140.136 1312.76 142.476V159H1305.2V142.476C1305.2 140.136 1304.61 138.354 1303.42 137.13C1302.23 135.87 1300.61 135.24 1298.56 135.24C1296.47 135.24 1294.82 135.87 1293.59 137.13C1292.41 138.354 1291.81 140.136 1291.81 142.476V159H1284.25V129.084H1291.81V132.702C1292.78 131.442 1294.03 130.452 1295.54 129.732C1297.09 129.012 1298.78 128.652 1300.61 128.652C1302.95 128.652 1305.04 129.156 1306.88 130.164C1308.71 131.136 1310.14 132.54 1311.14 134.376C1312.12 132.648 1313.52 131.262 1315.36 130.218C1317.23 129.174 1319.24 128.652 1321.4 128.652ZM1348.4 133.728C1349.37 132.144 1350.63 130.902 1352.18 130.002C1353.76 129.102 1355.56 128.652 1357.58 128.652V136.59H1355.58C1353.2 136.59 1351.4 137.148 1350.18 138.264C1348.99 139.38 1348.4 141.324 1348.4 144.096V159H1340.84V129.084H1348.4V133.728ZM1390.91 129.084V159H1383.3V155.22C1382.32 156.516 1381.05 157.542 1379.46 158.298C1377.91 159.018 1376.22 159.378 1374.39 159.378C1372.05 159.378 1369.98 158.892 1368.18 157.92C1366.38 156.912 1364.95 155.454 1363.91 153.546C1362.9 151.602 1362.4 149.298 1362.4 146.634V129.084H1369.96V145.554C1369.96 147.93 1370.55 149.766 1371.74 151.062C1372.93 152.322 1374.55 152.952 1376.6 152.952C1378.69 152.952 1380.33 152.322 1381.51 151.062C1382.7 149.766 1383.3 147.93 1383.3 145.554V129.084H1390.91ZM1405.93 119.04V159H1398.37V119.04H1405.93ZM1420.96 119.04V159H1413.4V119.04H1420.96ZM1426.48 143.934C1426.48 140.91 1427.08 138.228 1428.27 135.888C1429.49 133.548 1431.13 131.748 1433.18 130.488C1435.27 129.228 1437.59 128.598 1440.15 128.598C1442.38 128.598 1444.32 129.048 1445.98 129.948C1447.67 130.848 1449.02 131.982 1450.03 133.35V129.084H1457.64V159H1450.03V154.626C1449.06 156.03 1447.71 157.2 1445.98 158.136C1444.29 159.036 1442.32 159.486 1440.09 159.486C1437.57 159.486 1435.27 158.838 1433.18 157.542C1431.13 156.246 1429.49 154.428 1428.27 152.088C1427.08 149.712 1426.48 146.994 1426.48 143.934ZM1450.03 144.042C1450.03 142.206 1449.67 140.64 1448.95 139.344C1448.23 138.012 1447.26 137.004 1446.03 136.32C1444.81 135.6 1443.49 135.24 1442.09 135.24C1440.69 135.24 1439.39 135.582 1438.2 136.266C1437.01 136.95 1436.04 137.958 1435.29 139.29C1434.57 140.586 1434.21 142.134 1434.21 143.934C1434.21 145.734 1434.57 147.318 1435.29 148.686C1436.04 150.018 1437.01 151.044 1438.2 151.764C1439.43 152.484 1440.72 152.844 1442.09 152.844C1443.49 152.844 1444.81 152.502 1446.03 151.818C1447.26 151.098 1448.23 150.09 1448.95 148.794C1449.67 147.462 1450.03 145.878 1450.03 144.042ZM1481.87 128.652C1484.14 128.652 1486.16 129.156 1487.92 130.164C1489.68 131.136 1491.05 132.594 1492.02 134.538C1493.03 136.446 1493.54 138.75 1493.54 141.45V159H1485.98V142.476C1485.98 140.1 1485.38 138.282 1484.19 137.022C1483.01 135.726 1481.39 135.078 1479.33 135.078C1477.25 135.078 1475.59 135.726 1474.37 137.022C1473.18 138.282 1472.58 140.1 1472.58 142.476V159H1465.02V119.04H1472.58V132.81C1473.56 131.514 1474.85 130.506 1476.47 129.786C1478.09 129.03 1479.89 128.652 1481.87 128.652Z"/><path fill="#3F3F3F" d="M657.108 192.54L651.34 212H647.728L643.64 197.272L639.3 212L635.716 212.028L630.2 192.54H633.588L637.62 208.388L641.988 192.54H645.572L649.632 208.304L653.692 192.54H657.108ZM673.881 203.908C673.881 204.487 673.843 205.009 673.769 205.476H661.981C662.074 206.708 662.531 207.697 663.353 208.444C664.174 209.191 665.182 209.564 666.377 209.564C668.094 209.564 669.307 208.845 670.017 207.408H673.461C672.994 208.827 672.145 209.993 670.913 210.908C669.699 211.804 668.187 212.252 666.377 212.252C664.902 212.252 663.577 211.925 662.401 211.272C661.243 210.6 660.329 209.667 659.657 208.472C659.003 207.259 658.677 205.859 658.677 204.272C658.677 202.685 658.994 201.295 659.629 200.1C660.282 198.887 661.187 197.953 662.345 197.3C663.521 196.647 664.865 196.32 666.377 196.32C667.833 196.32 669.13 196.637 670.269 197.272C671.407 197.907 672.294 198.803 672.929 199.96C673.563 201.099 673.881 202.415 673.881 203.908ZM670.549 202.9C670.53 201.724 670.11 200.781 669.289 200.072C668.467 199.363 667.45 199.008 666.237 199.008C665.135 199.008 664.193 199.363 663.409 200.072C662.625 200.763 662.158 201.705 662.009 202.9H670.549ZM680.214 198.868C680.755 198.121 681.493 197.515 682.426 197.048C683.378 196.563 684.433 196.32 685.59 196.32C686.953 196.32 688.185 196.647 689.286 197.3C690.387 197.953 691.255 198.887 691.89 200.1C692.525 201.295 692.842 202.667 692.842 204.216C692.842 205.765 692.525 207.156 691.89 208.388C691.255 209.601 690.378 210.553 689.258 211.244C688.157 211.916 686.934 212.252 685.59 212.252C684.395 212.252 683.331 212.019 682.398 211.552C681.483 211.085 680.755 210.488 680.214 209.76V212H677.022V191.28H680.214V198.868ZM689.594 204.216C689.594 203.152 689.37 202.237 688.922 201.472C688.493 200.688 687.914 200.1 687.186 199.708C686.477 199.297 685.711 199.092 684.89 199.092C684.087 199.092 683.322 199.297 682.594 199.708C681.885 200.119 681.306 200.716 680.858 201.5C680.429 202.284 680.214 203.208 680.214 204.272C680.214 205.336 680.429 206.269 680.858 207.072C681.306 207.856 681.885 208.453 682.594 208.864C683.322 209.275 684.087 209.48 684.89 209.48C685.711 209.48 686.477 209.275 687.186 208.864C687.914 208.435 688.493 207.819 688.922 207.016C689.37 206.213 689.594 205.28 689.594 204.216ZM701.598 212.252C700.385 212.252 699.293 212.037 698.322 211.608C697.37 211.16 696.614 210.563 696.054 209.816C695.494 209.051 695.196 208.201 695.158 207.268H698.462C698.518 207.921 698.826 208.472 699.386 208.92C699.965 209.349 700.684 209.564 701.542 209.564C702.438 209.564 703.129 209.396 703.614 209.06C704.118 208.705 704.37 208.257 704.37 207.716C704.37 207.137 704.09 206.708 703.53 206.428C702.989 206.148 702.121 205.84 700.926 205.504C699.769 205.187 698.826 204.879 698.098 204.58C697.37 204.281 696.736 203.824 696.194 203.208C695.672 202.592 695.41 201.78 695.41 200.772C695.41 199.951 695.653 199.204 696.138 198.532C696.624 197.841 697.314 197.3 698.21 196.908C699.125 196.516 700.17 196.32 701.346 196.32C703.101 196.32 704.51 196.768 705.574 197.664C706.657 198.541 707.236 199.745 707.31 201.276H704.118C704.062 200.585 703.782 200.035 703.278 199.624C702.774 199.213 702.093 199.008 701.234 199.008C700.394 199.008 699.75 199.167 699.302 199.484C698.854 199.801 698.63 200.221 698.63 200.744C698.63 201.155 698.78 201.5 699.078 201.78C699.377 202.06 699.741 202.284 700.17 202.452C700.6 202.601 701.234 202.797 702.074 203.04C703.194 203.339 704.109 203.647 704.818 203.964C705.546 204.263 706.172 204.711 706.694 205.308C707.217 205.905 707.488 206.699 707.506 207.688C707.506 208.565 707.264 209.349 706.778 210.04C706.293 210.731 705.602 211.272 704.706 211.664C703.829 212.056 702.793 212.252 701.598 212.252ZM712.579 194.528C712.001 194.528 711.515 194.332 711.123 193.94C710.731 193.548 710.535 193.063 710.535 192.484C710.535 191.905 710.731 191.42 711.123 191.028C711.515 190.636 712.001 190.44 712.579 190.44C713.139 190.44 713.615 190.636 714.007 191.028C714.399 191.42 714.595 191.905 714.595 192.484C714.595 193.063 714.399 193.548 714.007 193.94C713.615 194.332 713.139 194.528 712.579 194.528ZM714.147 196.572V212H710.955V196.572H714.147ZM722.062 199.176V207.716C722.062 208.295 722.193 208.715 722.454 208.976C722.734 209.219 723.201 209.34 723.854 209.34H725.814V212H723.294C721.857 212 720.756 211.664 719.99 210.992C719.225 210.32 718.842 209.228 718.842 207.716V199.176H717.022V196.572H718.842V192.736H722.062V196.572H725.814V199.176H722.062ZM742.896 203.908C742.896 204.487 742.859 205.009 742.784 205.476H730.996C731.09 206.708 731.547 207.697 732.368 208.444C733.19 209.191 734.198 209.564 735.392 209.564C737.11 209.564 738.323 208.845 739.032 207.408H742.476C742.01 208.827 741.16 209.993 739.928 210.908C738.715 211.804 737.203 212.252 735.392 212.252C733.918 212.252 732.592 211.925 731.416 211.272C730.259 210.6 729.344 209.667 728.672 208.472C728.019 207.259 727.692 205.859 727.692 204.272C727.692 202.685 728.01 201.295 728.644 200.1C729.298 198.887 730.203 197.953 731.36 197.3C732.536 196.647 733.88 196.32 735.392 196.32C736.848 196.32 738.146 196.637 739.284 197.272C740.423 197.907 741.31 198.803 741.944 199.96C742.579 201.099 742.896 202.415 742.896 203.908ZM739.564 202.9C739.546 201.724 739.126 200.781 738.304 200.072C737.483 199.363 736.466 199.008 735.252 199.008C734.151 199.008 733.208 199.363 732.424 200.072C731.64 200.763 731.174 201.705 731.024 202.9H739.564ZM759.667 192.54C761.739 192.54 763.55 192.941 765.099 193.744C766.667 194.528 767.871 195.667 768.711 197.16C769.57 198.635 769.999 200.361 769.999 202.34C769.999 204.319 769.57 206.036 768.711 207.492C767.871 208.948 766.667 210.068 765.099 210.852C763.55 211.617 761.739 212 759.667 212H753.311V192.54H759.667ZM759.667 209.396C761.944 209.396 763.69 208.78 764.903 207.548C766.116 206.316 766.723 204.58 766.723 202.34C766.723 200.081 766.116 198.317 764.903 197.048C763.69 195.779 761.944 195.144 759.667 195.144H756.503V209.396H759.667ZM787.303 203.908C787.303 204.487 787.265 205.009 787.191 205.476H775.403C775.496 206.708 775.953 207.697 776.775 208.444C777.596 209.191 778.604 209.564 779.799 209.564C781.516 209.564 782.729 208.845 783.439 207.408H786.882C786.416 208.827 785.567 209.993 784.335 210.908C783.121 211.804 781.609 212.252 779.799 212.252C778.324 212.252 776.999 211.925 775.823 211.272C774.665 210.6 773.751 209.667 773.079 208.472C772.425 207.259 772.099 205.859 772.099 204.272C772.099 202.685 772.416 201.295 773.051 200.1C773.704 198.887 774.609 197.953 775.767 197.3C776.943 196.647 778.287 196.32 779.799 196.32C781.255 196.32 782.552 196.637 783.691 197.272C784.829 197.907 785.716 198.803 786.351 199.96C786.985 201.099 787.303 202.415 787.303 203.908ZM783.971 202.9C783.952 201.724 783.532 200.781 782.711 200.072C781.889 199.363 780.872 199.008 779.659 199.008C778.557 199.008 777.615 199.363 776.831 200.072C776.047 200.763 775.58 201.705 775.431 202.9H783.971ZM796.408 209.144L800.776 196.572H804.164L798.284 212H794.476L788.624 196.572H792.04L796.408 209.144ZM820.717 203.908C820.717 204.487 820.679 205.009 820.605 205.476H808.817C808.91 206.708 809.367 207.697 810.189 208.444C811.01 209.191 812.018 209.564 813.213 209.564C814.93 209.564 816.143 208.845 816.853 207.408H820.297C819.83 208.827 818.981 209.993 817.749 210.908C816.535 211.804 815.023 212.252 813.213 212.252C811.738 212.252 810.413 211.925 809.237 211.272C808.079 210.6 807.165 209.667 806.493 208.472C805.839 207.259 805.513 205.859 805.513 204.272C805.513 202.685 805.83 201.295 806.465 200.1C807.118 198.887 808.023 197.953 809.181 197.3C810.357 196.647 811.701 196.32 813.213 196.32C814.669 196.32 815.966 196.637 817.105 197.272C818.243 197.907 819.13 198.803 819.765 199.96C820.399 201.099 820.717 202.415 820.717 203.908ZM817.385 202.9C817.366 201.724 816.946 200.781 816.125 200.072C815.303 199.363 814.286 199.008 813.073 199.008C811.971 199.008 811.029 199.363 810.245 200.072C809.461 200.763 808.994 201.705 808.845 202.9H817.385ZM827.05 191.28V212H823.858V191.28H827.05ZM837.933 212.252C836.477 212.252 835.161 211.925 833.985 211.272C832.809 210.6 831.885 209.667 831.213 208.472C830.541 207.259 830.205 205.859 830.205 204.272C830.205 202.704 830.55 201.313 831.241 200.1C831.931 198.887 832.874 197.953 834.069 197.3C835.263 196.647 836.598 196.32 838.073 196.32C839.547 196.32 840.882 196.647 842.077 197.3C843.271 197.953 844.214 198.887 844.905 200.1C845.595 201.313 845.941 202.704 845.941 204.272C845.941 205.84 845.586 207.231 844.877 208.444C844.167 209.657 843.197 210.6 841.965 211.272C840.751 211.925 839.407 212.252 837.933 212.252ZM837.933 209.48C838.754 209.48 839.519 209.284 840.229 208.892C840.957 208.5 841.545 207.912 841.993 207.128C842.441 206.344 842.665 205.392 842.665 204.272C842.665 203.152 842.45 202.209 842.021 201.444C841.591 200.66 841.022 200.072 840.313 199.68C839.603 199.288 838.838 199.092 838.017 199.092C837.195 199.092 836.43 199.288 835.721 199.68C835.03 200.072 834.479 200.66 834.069 201.444C833.658 202.209 833.453 203.152 833.453 204.272C833.453 205.933 833.873 207.221 834.713 208.136C835.571 209.032 836.645 209.48 837.933 209.48ZM852.288 198.84C852.829 198.131 853.567 197.533 854.5 197.048C855.433 196.563 856.488 196.32 857.664 196.32C859.008 196.32 860.231 196.656 861.332 197.328C862.452 197.981 863.329 198.905 863.964 200.1C864.599 201.295 864.916 202.667 864.916 204.216C864.916 205.765 864.599 207.156 863.964 208.388C863.329 209.601 862.452 210.553 861.332 211.244C860.231 211.916 859.008 212.252 857.664 212.252C856.488 212.252 855.443 212.019 854.528 211.552C853.613 211.067 852.867 210.469 852.288 209.76V219.336H849.096V196.572H852.288V198.84ZM861.668 204.216C861.668 203.152 861.444 202.237 860.996 201.472C860.567 200.688 859.988 200.1 859.26 199.708C858.551 199.297 857.785 199.092 856.964 199.092C856.161 199.092 855.396 199.297 854.668 199.708C853.959 200.119 853.38 200.716 852.932 201.5C852.503 202.284 852.288 203.208 852.288 204.272C852.288 205.336 852.503 206.269 852.932 207.072C853.38 207.856 853.959 208.453 854.668 208.864C855.396 209.275 856.161 209.48 856.964 209.48C857.785 209.48 858.551 209.275 859.26 208.864C859.988 208.435 860.567 207.819 860.996 207.016C861.444 206.213 861.668 205.28 861.668 204.216ZM882.213 203.908C882.213 204.487 882.175 205.009 882.101 205.476H870.313C870.406 206.708 870.863 207.697 871.685 208.444C872.506 209.191 873.514 209.564 874.709 209.564C876.426 209.564 877.639 208.845 878.349 207.408H881.793C881.326 208.827 880.477 209.993 879.245 210.908C878.031 211.804 876.519 212.252 874.709 212.252C873.234 212.252 871.909 211.925 870.733 211.272C869.575 210.6 868.661 209.667 867.989 208.472C867.335 207.259 867.009 205.859 867.009 204.272C867.009 202.685 867.326 201.295 867.961 200.1C868.614 198.887 869.519 197.953 870.677 197.3C871.853 196.647 873.197 196.32 874.709 196.32C876.165 196.32 877.462 196.637 878.601 197.272C879.739 197.907 880.626 198.803 881.261 199.96C881.895 201.099 882.213 202.415 882.213 203.908ZM878.881 202.9C878.862 201.724 878.442 200.781 877.621 200.072C876.799 199.363 875.782 199.008 874.569 199.008C873.467 199.008 872.525 199.363 871.741 200.072C870.957 200.763 870.49 201.705 870.341 202.9H878.881ZM888.546 198.812C889.013 198.028 889.629 197.421 890.394 196.992C891.178 196.544 892.102 196.32 893.166 196.32V199.624H892.354C891.103 199.624 890.151 199.941 889.498 200.576C888.863 201.211 888.546 202.312 888.546 203.88V212H885.354V196.572H888.546V198.812Z"/><path fill="#C7C7C7" fill-opacity=".5" d="M911.054 215.164H907.862V189.572H911.054V215.164Z"/><path fill="#3F3F3F" d="M929.416 192.54V204.944C929.416 206.419 929.799 207.529 930.564 208.276C931.348 209.023 932.431 209.396 933.812 209.396C935.212 209.396 936.295 209.023 937.06 208.276C937.844 207.529 938.236 206.419 938.236 204.944V192.54H941.428V204.888C941.428 206.475 941.083 207.819 940.392 208.92C939.702 210.021 938.778 210.843 937.62 211.384C936.463 211.925 935.184 212.196 933.784 212.196C932.384 212.196 931.106 211.925 929.948 211.384C928.81 210.843 927.904 210.021 927.232 208.92C926.56 207.819 926.224 206.475 926.224 204.888V192.54H929.416ZM948.776 192.54V212H945.584V192.54H948.776ZM963.327 185.568L955.711 216.9H952.575L960.163 185.568H963.327ZM970.514 192.54V204.944C970.514 206.419 970.897 207.529 971.662 208.276C972.446 209.023 973.529 209.396 974.91 209.396C976.31 209.396 977.393 209.023 978.158 208.276C978.942 207.529 979.334 206.419 979.334 204.944V192.54H982.526V204.888C982.526 206.475 982.181 207.819 981.49 208.92C980.799 210.021 979.875 210.843 978.718 211.384C977.561 211.925 976.282 212.196 974.882 212.196C973.482 212.196 972.203 211.925 971.046 211.384C969.907 210.843 969.002 210.021 968.33 208.92C967.658 207.819 967.322 206.475 967.322 204.888V192.54H970.514ZM995.614 202.284L1001.66 212H998.078L993.682 204.944L989.566 212H986.01L992.058 202.284L985.982 192.54H989.566L993.99 199.652L998.134 192.54H1001.69L995.614 202.284ZM1018.8 192.54C1020.87 192.54 1022.68 192.941 1024.23 193.744C1025.8 194.528 1027 195.667 1027.84 197.16C1028.7 198.635 1029.13 200.361 1029.13 202.34C1029.13 204.319 1028.7 206.036 1027.84 207.492C1027 208.948 1025.8 210.068 1024.23 210.852C1022.68 211.617 1020.87 212 1018.8 212H1012.44V192.54H1018.8ZM1018.8 209.396C1021.07 209.396 1022.82 208.78 1024.03 207.548C1025.25 206.316 1025.85 204.58 1025.85 202.34C1025.85 200.081 1025.25 198.317 1024.03 197.048C1022.82 195.779 1021.07 195.144 1018.8 195.144H1015.63V209.396H1018.8ZM1046.43 203.908C1046.43 204.487 1046.39 205.009 1046.32 205.476H1034.53C1034.62 206.708 1035.08 207.697 1035.9 208.444C1036.72 209.191 1037.73 209.564 1038.93 209.564C1040.64 209.564 1041.86 208.845 1042.57 207.408H1046.01C1045.54 208.827 1044.7 209.993 1043.46 210.908C1042.25 211.804 1040.74 212.252 1038.93 212.252C1037.45 212.252 1036.13 211.925 1034.95 211.272C1033.79 210.6 1032.88 209.667 1032.21 208.472C1031.55 207.259 1031.23 205.859 1031.23 204.272C1031.23 202.685 1031.54 201.295 1032.18 200.1C1032.83 198.887 1033.74 197.953 1034.9 197.3C1036.07 196.647 1037.42 196.32 1038.93 196.32C1040.38 196.32 1041.68 196.637 1042.82 197.272C1043.96 197.907 1044.84 198.803 1045.48 199.96C1046.11 201.099 1046.43 202.415 1046.43 203.908ZM1043.1 202.9C1043.08 201.724 1042.66 200.781 1041.84 200.072C1041.02 199.363 1040 199.008 1038.79 199.008C1037.69 199.008 1036.74 199.363 1035.96 200.072C1035.18 200.763 1034.71 201.705 1034.56 202.9H1043.1ZM1055.17 212.252C1053.96 212.252 1052.87 212.037 1051.9 211.608C1050.94 211.16 1050.19 210.563 1049.63 209.816C1049.07 209.051 1048.77 208.201 1048.73 207.268H1052.04C1052.09 207.921 1052.4 208.472 1052.96 208.92C1053.54 209.349 1054.26 209.564 1055.12 209.564C1056.01 209.564 1056.7 209.396 1057.19 209.06C1057.69 208.705 1057.94 208.257 1057.94 207.716C1057.94 207.137 1057.66 206.708 1057.1 206.428C1056.56 206.148 1055.7 205.84 1054.5 205.504C1053.34 205.187 1052.4 204.879 1051.67 204.58C1050.94 204.281 1050.31 203.824 1049.77 203.208C1049.25 202.592 1048.98 201.78 1048.98 200.772C1048.98 199.951 1049.23 199.204 1049.71 198.532C1050.2 197.841 1050.89 197.3 1051.78 196.908C1052.7 196.516 1053.74 196.32 1054.92 196.32C1056.68 196.32 1058.08 196.768 1059.15 197.664C1060.23 198.541 1060.81 199.745 1060.88 201.276H1057.69C1057.64 200.585 1057.36 200.035 1056.85 199.624C1056.35 199.213 1055.67 199.008 1054.81 199.008C1053.97 199.008 1053.32 199.167 1052.88 199.484C1052.43 199.801 1052.2 200.221 1052.2 200.744C1052.2 201.155 1052.35 201.5 1052.65 201.78C1052.95 202.06 1053.32 202.284 1053.74 202.452C1054.17 202.601 1054.81 202.797 1055.65 203.04C1056.77 203.339 1057.68 203.647 1058.39 203.964C1059.12 204.263 1059.75 204.711 1060.27 205.308C1060.79 205.905 1061.06 206.699 1061.08 207.688C1061.08 208.565 1060.84 209.349 1060.35 210.04C1059.87 210.731 1059.18 211.272 1058.28 211.664C1057.4 212.056 1056.37 212.252 1055.17 212.252ZM1066.15 194.528C1065.58 194.528 1065.09 194.332 1064.7 193.94C1064.31 193.548 1064.11 193.063 1064.11 192.484C1064.11 191.905 1064.31 191.42 1064.7 191.028C1065.09 190.636 1065.58 190.44 1066.15 190.44C1066.71 190.44 1067.19 190.636 1067.58 191.028C1067.97 191.42 1068.17 191.905 1068.17 192.484C1068.17 193.063 1067.97 193.548 1067.58 193.94C1067.19 194.332 1066.71 194.528 1066.15 194.528ZM1067.72 196.572V212H1064.53V196.572H1067.72ZM1078.13 196.32C1079.32 196.32 1080.38 196.563 1081.29 197.048C1082.23 197.515 1082.95 198.103 1083.48 198.812V196.572H1086.7V212.252C1086.7 213.671 1086.4 214.931 1085.8 216.032C1085.2 217.152 1084.34 218.029 1083.2 218.664C1082.08 219.299 1080.73 219.616 1079.16 219.616C1077.07 219.616 1075.34 219.121 1073.96 218.132C1072.58 217.161 1071.79 215.836 1071.6 214.156H1074.77C1075.01 214.959 1075.52 215.603 1076.31 216.088C1077.11 216.592 1078.06 216.844 1079.16 216.844C1080.45 216.844 1081.49 216.452 1082.27 215.668C1083.08 214.884 1083.48 213.745 1083.48 212.252V209.676C1082.94 210.404 1082.2 211.02 1081.26 211.524C1080.35 212.009 1079.3 212.252 1078.13 212.252C1076.78 212.252 1075.55 211.916 1074.43 211.244C1073.33 210.553 1072.45 209.601 1071.8 208.388C1071.17 207.156 1070.85 205.765 1070.85 204.216C1070.85 202.667 1071.17 201.295 1071.8 200.1C1072.45 198.905 1073.33 197.981 1074.43 197.328C1075.55 196.656 1076.78 196.32 1078.13 196.32ZM1083.48 204.272C1083.48 203.208 1083.25 202.284 1082.8 201.5C1082.38 200.716 1081.81 200.119 1081.1 199.708C1080.39 199.297 1079.62 199.092 1078.8 199.092C1077.98 199.092 1077.21 199.297 1076.5 199.708C1075.8 200.1 1075.22 200.688 1074.77 201.472C1074.34 202.237 1074.12 203.152 1074.12 204.216C1074.12 205.28 1074.34 206.213 1074.77 207.016C1075.22 207.819 1075.8 208.435 1076.5 208.864C1077.23 209.275 1078 209.48 1078.8 209.48C1079.62 209.48 1080.39 209.275 1081.1 208.864C1081.81 208.453 1082.38 207.856 1082.8 207.072C1083.25 206.269 1083.48 205.336 1083.48 204.272ZM1098.67 196.32C1099.89 196.32 1100.97 196.572 1101.92 197.076C1102.89 197.58 1103.65 198.327 1104.19 199.316C1104.73 200.305 1105 201.5 1105 202.9V212H1101.84V203.376C1101.84 201.995 1101.49 200.94 1100.8 200.212C1100.11 199.465 1099.17 199.092 1097.97 199.092C1096.78 199.092 1095.83 199.465 1095.12 200.212C1094.43 200.94 1094.08 201.995 1094.08 203.376V212H1090.89V196.572H1094.08V198.336C1094.6 197.701 1095.27 197.207 1096.07 196.852C1096.89 196.497 1097.76 196.32 1098.67 196.32ZM1123.21 203.908C1123.21 204.487 1123.18 205.009 1123.1 205.476H1111.31C1111.41 206.708 1111.86 207.697 1112.68 208.444C1113.51 209.191 1114.51 209.564 1115.71 209.564C1117.43 209.564 1118.64 208.845 1119.35 207.408H1122.79C1122.33 208.827 1121.48 209.993 1120.24 210.908C1119.03 211.804 1117.52 212.252 1115.71 212.252C1114.23 212.252 1112.91 211.925 1111.73 211.272C1110.58 210.6 1109.66 209.667 1108.99 208.472C1108.34 207.259 1108.01 205.859 1108.01 204.272C1108.01 202.685 1108.33 201.295 1108.96 200.1C1109.61 198.887 1110.52 197.953 1111.68 197.3C1112.85 196.647 1114.2 196.32 1115.71 196.32C1117.16 196.32 1118.46 196.637 1119.6 197.272C1120.74 197.907 1121.63 198.803 1122.26 199.96C1122.9 201.099 1123.21 202.415 1123.21 203.908ZM1119.88 202.9C1119.86 201.724 1119.44 200.781 1118.62 200.072C1117.8 199.363 1116.78 199.008 1115.57 199.008C1114.47 199.008 1113.52 199.363 1112.74 200.072C1111.96 200.763 1111.49 201.705 1111.34 202.9H1119.88ZM1129.55 198.812C1130.01 198.028 1130.63 197.421 1131.39 196.992C1132.18 196.544 1133.1 196.32 1134.17 196.32V199.624H1133.35C1132.1 199.624 1131.15 199.941 1130.5 200.576C1129.86 201.211 1129.55 202.312 1129.55 203.88V212H1126.35V196.572H1129.55V198.812Z"/><path fill="#C7C7C7" fill-opacity=".5" d="M1152.05 215.164H1148.86V189.572H1152.05V215.164Z"/><path fill="#3F3F3F" d="M1183.46 212H1180.26L1170.66 197.468V212H1167.47V192.512H1170.66L1180.26 207.016V192.512H1183.46V212ZM1201.79 203.908C1201.79 204.487 1201.75 205.009 1201.67 205.476H1189.89C1189.98 206.708 1190.44 207.697 1191.26 208.444C1192.08 209.191 1193.09 209.564 1194.28 209.564C1196 209.564 1197.21 208.845 1197.92 207.408H1201.37C1200.9 208.827 1200.05 209.993 1198.82 210.908C1197.61 211.804 1196.09 212.252 1194.28 212.252C1192.81 212.252 1191.48 211.925 1190.31 211.272C1189.15 210.6 1188.23 209.667 1187.56 208.472C1186.91 207.259 1186.58 205.859 1186.58 204.272C1186.58 202.685 1186.9 201.295 1187.53 200.1C1188.19 198.887 1189.09 197.953 1190.25 197.3C1191.43 196.647 1192.77 196.32 1194.28 196.32C1195.74 196.32 1197.04 196.637 1198.17 197.272C1199.31 197.907 1200.2 198.803 1200.83 199.96C1201.47 201.099 1201.79 202.415 1201.79 203.908ZM1198.45 202.9C1198.44 201.724 1198.02 200.781 1197.19 200.072C1196.37 199.363 1195.36 199.008 1194.14 199.008C1193.04 199.008 1192.1 199.363 1191.31 200.072C1190.53 200.763 1190.06 201.705 1189.91 202.9H1198.45ZM1208.65 199.176V207.716C1208.65 208.295 1208.78 208.715 1209.04 208.976C1209.32 209.219 1209.79 209.34 1210.44 209.34H1212.4V212H1209.88C1208.45 212 1207.35 211.664 1206.58 210.992C1205.81 210.32 1205.43 209.228 1205.43 207.716V199.176H1203.61V196.572H1205.43V192.736H1208.65V196.572H1212.4V199.176H1208.65ZM1236.07 196.572L1231.28 212H1227.92L1224.81 200.604L1221.7 212H1218.34L1213.53 196.572H1216.77L1219.99 208.976L1223.27 196.572H1226.6L1229.74 208.92L1232.93 196.572H1236.07ZM1245.14 212.252C1243.69 212.252 1242.37 211.925 1241.2 211.272C1240.02 210.6 1239.1 209.667 1238.42 208.472C1237.75 207.259 1237.42 205.859 1237.42 204.272C1237.42 202.704 1237.76 201.313 1238.45 200.1C1239.14 198.887 1240.08 197.953 1241.28 197.3C1242.47 196.647 1243.81 196.32 1245.28 196.32C1246.76 196.32 1248.09 196.647 1249.29 197.3C1250.48 197.953 1251.42 198.887 1252.12 200.1C1252.81 201.313 1253.15 202.704 1253.15 204.272C1253.15 205.84 1252.8 207.231 1252.09 208.444C1251.38 209.657 1250.41 210.6 1249.18 211.272C1247.96 211.925 1246.62 212.252 1245.14 212.252ZM1245.14 209.48C1245.96 209.48 1246.73 209.284 1247.44 208.892C1248.17 208.5 1248.76 207.912 1249.2 207.128C1249.65 206.344 1249.88 205.392 1249.88 204.272C1249.88 203.152 1249.66 202.209 1249.23 201.444C1248.8 200.66 1248.23 200.072 1247.52 199.68C1246.81 199.288 1246.05 199.092 1245.23 199.092C1244.41 199.092 1243.64 199.288 1242.93 199.68C1242.24 200.072 1241.69 200.66 1241.28 201.444C1240.87 202.209 1240.66 203.152 1240.66 204.272C1240.66 205.933 1241.08 207.221 1241.92 208.136C1242.78 209.032 1243.86 209.48 1245.14 209.48ZM1259.5 198.812C1259.97 198.028 1260.58 197.421 1261.35 196.992C1262.13 196.544 1263.06 196.32 1264.12 196.32V199.624H1263.31C1262.06 199.624 1261.1 199.941 1260.45 200.576C1259.82 201.211 1259.5 202.312 1259.5 203.88V212H1256.31V196.572H1259.5V198.812ZM1273.16 204.3L1280.27 212H1275.96L1270.25 205.364V212H1267.05V191.28H1270.25V203.32L1275.85 196.572H1280.27L1273.16 204.3ZM1284.18 194.528C1283.6 194.528 1283.12 194.332 1282.73 193.94C1282.33 193.548 1282.14 193.063 1282.14 192.484C1282.14 191.905 1282.33 191.42 1282.73 191.028C1283.12 190.636 1283.6 190.44 1284.18 190.44C1284.74 190.44 1285.22 190.636 1285.61 191.028C1286 191.42 1286.2 191.905 1286.2 192.484C1286.2 193.063 1286 193.548 1285.61 193.94C1285.22 194.332 1284.74 194.528 1284.18 194.528ZM1285.75 196.572V212H1282.56V196.572H1285.75ZM1297.72 196.32C1298.94 196.32 1300.02 196.572 1300.97 197.076C1301.94 197.58 1302.7 198.327 1303.24 199.316C1303.78 200.305 1304.05 201.5 1304.05 202.9V212H1300.89V203.376C1300.89 201.995 1300.54 200.94 1299.85 200.212C1299.16 199.465 1298.22 199.092 1297.02 199.092C1295.83 199.092 1294.88 199.465 1294.17 200.212C1293.48 200.94 1293.13 201.995 1293.13 203.376V212H1289.94V196.572H1293.13V198.336C1293.65 197.701 1294.32 197.207 1295.12 196.852C1295.94 196.497 1296.81 196.32 1297.72 196.32ZM1314.34 196.32C1315.53 196.32 1316.59 196.563 1317.5 197.048C1318.44 197.515 1319.16 198.103 1319.69 198.812V196.572H1322.91V212.252C1322.91 213.671 1322.61 214.931 1322.01 216.032C1321.41 217.152 1320.55 218.029 1319.41 218.664C1318.29 219.299 1316.94 219.616 1315.38 219.616C1313.28 219.616 1311.55 219.121 1310.17 218.132C1308.79 217.161 1308 215.836 1307.82 214.156H1310.98C1311.22 214.959 1311.74 215.603 1312.52 216.088C1313.32 216.592 1314.27 216.844 1315.38 216.844C1316.66 216.844 1317.7 216.452 1318.48 215.668C1319.29 214.884 1319.69 213.745 1319.69 212.252V209.676C1319.15 210.404 1318.41 211.02 1317.48 211.524C1316.56 212.009 1315.52 212.252 1314.34 212.252C1313 212.252 1311.76 211.916 1310.64 211.244C1309.54 210.553 1308.66 209.601 1308.01 208.388C1307.38 207.156 1307.06 205.765 1307.06 204.216C1307.06 202.667 1307.38 201.295 1308.01 200.1C1308.66 198.905 1309.54 197.981 1310.64 197.328C1311.76 196.656 1313 196.32 1314.34 196.32ZM1319.69 204.272C1319.69 203.208 1319.46 202.284 1319.02 201.5C1318.59 200.716 1318.02 200.119 1317.31 199.708C1316.6 199.297 1315.83 199.092 1315.01 199.092C1314.19 199.092 1313.42 199.297 1312.72 199.708C1312.01 200.1 1311.43 200.688 1310.98 201.472C1310.55 202.237 1310.34 203.152 1310.34 204.216C1310.34 205.28 1310.55 206.213 1310.98 207.016C1311.43 207.819 1312.01 208.435 1312.72 208.864C1313.44 209.275 1314.21 209.48 1315.01 209.48C1315.83 209.48 1316.6 209.275 1317.31 208.864C1318.02 208.453 1318.59 207.856 1319.02 207.072C1319.46 206.269 1319.69 205.336 1319.69 204.272Z"/><path fill="#C7C7C7" fill-opacity=".5" d="M1342.05 215.164H1338.86V189.572H1342.05V215.164Z"/><path fill="#3F3F3F" d="M1360.84 195.116V200.828H1367.56V203.432H1360.84V209.396H1368.4V212H1357.65V192.512H1368.4V195.116H1360.84ZM1371.27 204.216C1371.27 202.667 1371.59 201.295 1372.22 200.1C1372.88 198.905 1373.75 197.981 1374.85 197.328C1375.97 196.656 1377.22 196.32 1378.58 196.32C1379.59 196.32 1380.58 196.544 1381.55 196.992C1382.54 197.421 1383.32 198 1383.9 198.728V191.28H1387.12V212H1383.9V209.676C1383.38 210.423 1382.65 211.039 1381.71 211.524C1380.8 212.009 1379.75 212.252 1378.55 212.252C1377.21 212.252 1375.97 211.916 1374.85 211.244C1373.75 210.553 1372.88 209.601 1372.22 208.388C1371.59 207.156 1371.27 205.765 1371.27 204.216ZM1383.9 204.272C1383.9 203.208 1383.67 202.284 1383.23 201.5C1382.8 200.716 1382.23 200.119 1381.52 199.708C1380.81 199.297 1380.04 199.092 1379.22 199.092C1378.4 199.092 1377.64 199.297 1376.93 199.708C1376.22 200.1 1375.64 200.688 1375.19 201.472C1374.76 202.237 1374.55 203.152 1374.55 204.216C1374.55 205.28 1374.76 206.213 1375.19 207.016C1375.64 207.819 1376.22 208.435 1376.93 208.864C1377.65 209.275 1378.42 209.48 1379.22 209.48C1380.04 209.48 1380.81 209.275 1381.52 208.864C1382.23 208.453 1382.8 207.856 1383.23 207.072C1383.67 206.269 1383.9 205.336 1383.9 204.272ZM1405.28 196.572V212H1402.09V210.18C1401.59 210.815 1400.92 211.319 1400.1 211.692C1399.3 212.047 1398.44 212.224 1397.53 212.224C1396.31 212.224 1395.22 211.972 1394.25 211.468C1393.3 210.964 1392.54 210.217 1391.98 209.228C1391.44 208.239 1391.17 207.044 1391.17 205.644V196.572H1394.33V205.168C1394.33 206.549 1394.68 207.613 1395.37 208.36C1396.06 209.088 1397 209.452 1398.2 209.452C1399.39 209.452 1400.34 209.088 1401.03 208.36C1401.74 207.613 1402.09 206.549 1402.09 205.168V196.572H1405.28ZM1408.43 204.272C1408.43 202.685 1408.75 201.295 1409.38 200.1C1410.04 198.887 1410.93 197.953 1412.07 197.3C1413.21 196.647 1414.52 196.32 1415.99 196.32C1417.86 196.32 1419.4 196.768 1420.61 197.664C1421.84 198.541 1422.67 199.801 1423.1 201.444H1419.66C1419.38 200.679 1418.93 200.081 1418.31 199.652C1417.7 199.223 1416.92 199.008 1415.99 199.008C1414.68 199.008 1413.64 199.475 1412.85 200.408C1412.09 201.323 1411.71 202.611 1411.71 204.272C1411.71 205.933 1412.09 207.231 1412.85 208.164C1413.64 209.097 1414.68 209.564 1415.99 209.564C1417.84 209.564 1419.06 208.752 1419.66 207.128H1423.1C1422.65 208.696 1421.81 209.947 1420.58 210.88C1419.35 211.795 1417.82 212.252 1415.99 212.252C1414.52 212.252 1413.21 211.925 1412.07 211.272C1410.93 210.6 1410.04 209.667 1409.38 208.472C1408.75 207.259 1408.43 205.859 1408.43 204.272ZM1425.22 204.216C1425.22 202.667 1425.54 201.295 1426.17 200.1C1426.82 198.905 1427.7 197.981 1428.8 197.328C1429.92 196.656 1431.16 196.32 1432.5 196.32C1433.71 196.32 1434.77 196.563 1435.66 197.048C1436.58 197.515 1437.31 198.103 1437.85 198.812V196.572H1441.07V212H1437.85V209.704C1437.31 210.432 1436.57 211.039 1435.64 211.524C1434.7 212.009 1433.64 212.252 1432.44 212.252C1431.12 212.252 1429.9 211.916 1428.8 211.244C1427.7 210.553 1426.82 209.601 1426.17 208.388C1425.54 207.156 1425.22 205.765 1425.22 204.216ZM1437.85 204.272C1437.85 203.208 1437.62 202.284 1437.18 201.5C1436.75 200.716 1436.18 200.119 1435.47 199.708C1434.76 199.297 1433.99 199.092 1433.17 199.092C1432.35 199.092 1431.58 199.297 1430.88 199.708C1430.17 200.1 1429.59 200.688 1429.14 201.472C1428.71 202.237 1428.5 203.152 1428.5 204.216C1428.5 205.28 1428.71 206.213 1429.14 207.016C1429.59 207.819 1430.17 208.435 1430.88 208.864C1431.6 209.275 1432.37 209.48 1433.17 209.48C1433.99 209.48 1434.76 209.275 1435.47 208.864C1436.18 208.453 1436.75 207.856 1437.18 207.072C1437.62 206.269 1437.85 205.336 1437.85 204.272ZM1448.98 199.176V207.716C1448.98 208.295 1449.11 208.715 1449.38 208.976C1449.66 209.219 1450.12 209.34 1450.78 209.34H1452.74V212H1450.22C1448.78 212 1447.68 211.664 1446.91 210.992C1446.15 210.32 1445.76 209.228 1445.76 207.716V199.176H1443.94V196.572H1445.76V192.736H1448.98V196.572H1452.74V199.176H1448.98ZM1457.3 194.528C1456.72 194.528 1456.24 194.332 1455.85 193.94C1455.45 193.548 1455.26 193.063 1455.26 192.484C1455.26 191.905 1455.45 191.42 1455.85 191.028C1456.24 190.636 1456.72 190.44 1457.3 190.44C1457.86 190.44 1458.34 190.636 1458.73 191.028C1459.12 191.42 1459.32 191.905 1459.32 192.484C1459.32 193.063 1459.12 193.548 1458.73 193.94C1458.34 194.332 1457.86 194.528 1457.3 194.528ZM1458.87 196.572V212H1455.68V196.572H1458.87ZM1469.75 212.252C1468.3 212.252 1466.98 211.925 1465.8 211.272C1464.63 210.6 1463.7 209.667 1463.03 208.472C1462.36 207.259 1462.02 205.859 1462.02 204.272C1462.02 202.704 1462.37 201.313 1463.06 200.1C1463.75 198.887 1464.69 197.953 1465.89 197.3C1467.08 196.647 1468.42 196.32 1469.89 196.32C1471.37 196.32 1472.7 196.647 1473.9 197.3C1475.09 197.953 1476.03 198.887 1476.72 200.1C1477.42 201.313 1477.76 202.704 1477.76 204.272C1477.76 205.84 1477.41 207.231 1476.7 208.444C1475.99 209.657 1475.02 210.6 1473.78 211.272C1472.57 211.925 1471.23 212.252 1469.75 212.252ZM1469.75 209.48C1470.57 209.48 1471.34 209.284 1472.05 208.892C1472.78 208.5 1473.36 207.912 1473.81 207.128C1474.26 206.344 1474.48 205.392 1474.48 204.272C1474.48 203.152 1474.27 202.209 1473.84 201.444C1473.41 200.66 1472.84 200.072 1472.13 199.68C1471.42 199.288 1470.66 199.092 1469.84 199.092C1469.02 199.092 1468.25 199.288 1467.54 199.68C1466.85 200.072 1466.3 200.66 1465.89 201.444C1465.48 202.209 1465.27 203.152 1465.27 204.272C1465.27 205.933 1465.69 207.221 1466.53 208.136C1467.39 209.032 1468.46 209.48 1469.75 209.48ZM1488.7 196.32C1489.91 196.32 1491 196.572 1491.95 197.076C1492.92 197.58 1493.68 198.327 1494.22 199.316C1494.76 200.305 1495.03 201.5 1495.03 202.9V212H1491.86V203.376C1491.86 201.995 1491.52 200.94 1490.83 200.212C1490.14 199.465 1489.2 199.092 1488 199.092C1486.81 199.092 1485.85 199.465 1485.14 200.212C1484.45 200.94 1484.11 201.995 1484.11 203.376V212H1480.92V196.572H1484.11V198.336C1484.63 197.701 1485.29 197.207 1486.1 196.852C1486.92 196.497 1487.79 196.32 1488.7 196.32Z"/><circle cx="1125.5" cy="93" r="5.5" fill="#3F3F3F"/><circle cx="1145.75" cy="77.75" r="8.75" fill="#FFD500"/><rect width="15.5" height="15.5" fill="#3F3F3F" rx="3.5" transform="matrix(-1 0 0 1 456.5 145)"/><line x1="42" x2="1542" y1="330.5" y2="330.5" stroke="#C7C7C7" stroke-opacity=".7"/><path fill="#747474" d="M857.295 364.24H853.255V368.38H851.135V364.24H847.095V362.32H851.135V358.18H853.255V362.32H857.295V364.24ZM868.372 359.3C868.225 358.687 867.959 358.227 867.572 357.92C867.185 357.613 866.645 357.46 865.952 357.46C864.899 357.46 864.112 357.867 863.592 358.68C863.072 359.48 862.799 360.813 862.772 362.68C863.119 362.093 863.625 361.64 864.292 361.32C864.959 361 865.679 360.84 866.452 360.84C867.332 360.84 868.105 361.033 868.772 361.42C869.452 361.793 869.979 362.34 870.352 363.06C870.739 363.78 870.932 364.64 870.932 365.64C870.932 366.573 870.745 367.407 870.372 368.14C870.012 368.873 869.472 369.453 868.752 369.88C868.032 370.293 867.165 370.5 866.152 370.5C864.779 370.5 863.699 370.2 862.912 369.6C862.139 368.987 861.592 368.127 861.272 367.02C860.965 365.913 860.812 364.533 860.812 362.88C860.812 358 862.532 355.56 865.972 355.56C867.305 355.56 868.352 355.92 869.112 356.64C869.885 357.36 870.339 358.247 870.472 359.3H868.372ZM865.952 362.76C865.139 362.76 864.445 363.007 863.872 363.5C863.312 363.98 863.032 364.68 863.032 365.6C863.032 366.52 863.292 367.253 863.812 367.8C864.345 368.333 865.085 368.6 866.032 368.6C866.872 368.6 867.532 368.34 868.012 367.82C868.505 367.3 868.752 366.607 868.752 365.74C868.752 364.833 868.512 364.113 868.032 363.58C867.565 363.033 866.872 362.76 865.952 362.76ZM874.624 367.4C875.904 366.293 876.911 365.387 877.644 364.68C878.391 363.96 879.011 363.213 879.504 362.44C879.997 361.667 880.244 360.893 880.244 360.12C880.244 359.32 880.051 358.693 879.664 358.24C879.291 357.787 878.697 357.56 877.884 357.56C877.097 357.56 876.484 357.813 876.044 358.32C875.617 358.813 875.391 359.48 875.364 360.32H873.164C873.204 358.8 873.657 357.64 874.524 356.84C875.404 356.027 876.517 355.62 877.864 355.62C879.317 355.62 880.451 356.02 881.264 356.82C882.091 357.62 882.504 358.687 882.504 360.02C882.504 360.98 882.257 361.907 881.764 362.8C881.284 363.68 880.704 364.473 880.024 365.18C879.357 365.873 878.504 366.68 877.464 367.6L876.564 368.4H882.904V370.3H873.184V368.64L874.624 367.4ZM892.562 362.88C891.176 362.187 890.482 361.093 890.482 359.6C890.482 358.88 890.662 358.22 891.022 357.62C891.382 357.02 891.922 356.547 892.642 356.2C893.362 355.84 894.242 355.66 895.282 355.66C896.309 355.66 897.182 355.84 897.902 356.2C898.636 356.547 899.182 357.02 899.542 357.62C899.902 358.22 900.082 358.88 900.082 359.6C900.082 360.347 899.889 361.007 899.502 361.58C899.129 362.14 898.629 362.573 898.002 362.88C898.762 363.16 899.362 363.62 899.802 364.26C900.242 364.887 900.462 365.627 900.462 366.48C900.462 367.347 900.242 368.113 899.802 368.78C899.362 369.447 898.749 369.96 897.962 370.32C897.176 370.68 896.282 370.86 895.282 370.86C894.282 370.86 893.389 370.68 892.602 370.32C891.829 369.96 891.222 369.447 890.782 368.78C890.342 368.113 890.122 367.347 890.122 366.48C890.122 365.613 890.342 364.867 890.782 364.24C891.222 363.613 891.816 363.16 892.562 362.88ZM897.902 359.88C897.902 359.133 897.669 358.56 897.202 358.16C896.736 357.76 896.096 357.56 895.282 357.56C894.482 357.56 893.849 357.76 893.382 358.16C892.916 358.56 892.682 359.14 892.682 359.9C892.682 360.567 892.922 361.113 893.402 361.54C893.896 361.953 894.522 362.16 895.282 362.16C896.042 362.16 896.669 361.947 897.162 361.52C897.656 361.093 897.902 360.547 897.902 359.88ZM895.282 363.88C894.402 363.88 893.682 364.1 893.122 364.54C892.576 364.967 892.302 365.587 892.302 366.4C892.302 367.16 892.569 367.78 893.102 368.26C893.636 368.727 894.362 368.96 895.282 368.96C896.189 368.96 896.902 368.72 897.422 368.24C897.956 367.76 898.222 367.147 898.222 366.4C898.222 365.6 897.949 364.98 897.402 364.54C896.869 364.1 896.162 363.88 895.282 363.88ZM912.256 357.88H905.556V361.86C905.836 361.487 906.25 361.173 906.796 360.92C907.356 360.667 907.95 360.54 908.576 360.54C909.696 360.54 910.603 360.78 911.296 361.26C912.003 361.74 912.503 362.347 912.796 363.08C913.103 363.813 913.256 364.587 913.256 365.4C913.256 366.387 913.063 367.267 912.676 368.04C912.303 368.8 911.736 369.4 910.976 369.84C910.23 370.28 909.31 370.5 908.216 370.5C906.763 370.5 905.596 370.14 904.716 369.42C903.836 368.7 903.31 367.747 903.136 366.56H905.356C905.503 367.187 905.83 367.687 906.336 368.06C906.843 368.42 907.476 368.6 908.236 368.6C909.183 368.6 909.89 368.313 910.356 367.74C910.836 367.167 911.076 366.407 911.076 365.46C911.076 364.5 910.836 363.767 910.356 363.26C909.876 362.74 909.17 362.48 908.236 362.48C907.583 362.48 907.03 362.647 906.576 362.98C906.136 363.3 905.816 363.74 905.616 364.3H903.456V355.88H912.256V357.88ZM915.33 358V355.92H919.49V370.5H917.19V358H915.33ZM931.382 362.3V364.22H923.162V362.3H931.382ZM943.721 357.88H937.021V361.86C937.301 361.487 937.714 361.173 938.261 360.92C938.821 360.667 939.414 360.54 940.041 360.54C941.161 360.54 942.068 360.78 942.761 361.26C943.468 361.74 943.968 362.347 944.261 363.08C944.568 363.813 944.721 364.587 944.721 365.4C944.721 366.387 944.528 367.267 944.141 368.04C943.768 368.8 943.201 369.4 942.441 369.84C941.694 370.28 940.774 370.5 939.681 370.5C938.228 370.5 937.061 370.14 936.181 369.42C935.301 368.7 934.774 367.747 934.601 366.56H936.821C936.968 367.187 937.294 367.687 937.801 368.06C938.308 368.42 938.941 368.6 939.701 368.6C940.648 368.6 941.354 368.313 941.821 367.74C942.301 367.167 942.541 366.407 942.541 365.46C942.541 364.5 942.301 363.767 941.821 363.26C941.341 362.74 940.634 362.48 939.701 362.48C939.048 362.48 938.494 362.647 938.041 362.98C937.601 363.3 937.281 363.74 937.081 364.3H934.921V355.88H943.721V357.88ZM954.935 359.3C954.788 358.687 954.521 358.227 954.135 357.92C953.748 357.613 953.208 357.46 952.515 357.46C951.461 357.46 950.675 357.867 950.155 358.68C949.635 359.48 949.361 360.813 949.335 362.68C949.681 362.093 950.188 361.64 950.855 361.32C951.521 361 952.241 360.84 953.015 360.84C953.895 360.84 954.668 361.033 955.335 361.42C956.015 361.793 956.541 362.34 956.915 363.06C957.301 363.78 957.495 364.64 957.495 365.64C957.495 366.573 957.308 367.407 956.935 368.14C956.575 368.873 956.035 369.453 955.315 369.88C954.595 370.293 953.728 370.5 952.715 370.5C951.341 370.5 950.261 370.2 949.475 369.6C948.701 368.987 948.155 368.127 947.835 367.02C947.528 365.913 947.375 364.533 947.375 362.88C947.375 358 949.095 355.56 952.535 355.56C953.868 355.56 954.915 355.92 955.675 356.64C956.448 357.36 956.901 358.247 957.035 359.3H954.935ZM952.515 362.76C951.701 362.76 951.008 363.007 950.435 363.5C949.875 363.98 949.595 364.68 949.595 365.6C949.595 366.52 949.855 367.253 950.375 367.8C950.908 368.333 951.648 368.6 952.595 368.6C953.435 368.6 954.095 368.34 954.575 367.82C955.068 367.3 955.315 366.607 955.315 365.74C955.315 364.833 955.075 364.113 954.595 363.58C954.128 363.033 953.435 362.76 952.515 362.76ZM959.887 359.52C959.967 358.28 960.44 357.313 961.307 356.62C962.187 355.927 963.307 355.58 964.667 355.58C965.6 355.58 966.407 355.747 967.087 356.08C967.767 356.413 968.28 356.867 968.627 357.44C968.973 358.013 969.147 358.66 969.147 359.38C969.147 360.207 968.927 360.913 968.487 361.5C968.047 362.087 967.52 362.48 966.907 362.68V362.76C967.693 363 968.307 363.44 968.747 364.08C969.187 364.707 969.407 365.513 969.407 366.5C969.407 367.287 969.227 367.987 968.867 368.6C968.507 369.213 967.973 369.7 967.267 370.06C966.56 370.407 965.713 370.58 964.727 370.58C963.287 370.58 962.1 370.213 961.167 369.48C960.247 368.733 959.753 367.667 959.687 366.28H961.887C961.94 366.987 962.213 367.567 962.707 368.02C963.2 368.46 963.867 368.68 964.707 368.68C965.52 368.68 966.147 368.46 966.587 368.02C967.027 367.567 967.247 366.987 967.247 366.28C967.247 365.347 966.947 364.687 966.347 364.3C965.76 363.9 964.853 363.7 963.627 363.7H963.107V361.82H963.647C964.727 361.807 965.547 361.627 966.107 361.28C966.68 360.933 966.967 360.387 966.967 359.64C966.967 359 966.76 358.493 966.347 358.12C965.933 357.733 965.347 357.54 964.587 357.54C963.84 357.54 963.26 357.733 962.847 358.12C962.433 358.493 962.187 358.96 962.107 359.52H959.887ZM973.062 367.4C974.342 366.293 975.348 365.387 976.082 364.68C976.828 363.96 977.448 363.213 977.942 362.44C978.435 361.667 978.682 360.893 978.682 360.12C978.682 359.32 978.488 358.693 978.102 358.24C977.728 357.787 977.135 357.56 976.322 357.56C975.535 357.56 974.922 357.813 974.482 358.32C974.055 358.813 973.828 359.48 973.802 360.32H971.602C971.642 358.8 972.095 357.64 972.962 356.84C973.842 356.027 974.955 355.62 976.302 355.62C977.755 355.62 978.888 356.02 979.702 356.82C980.528 357.62 980.942 358.687 980.942 360.02C980.942 360.98 980.695 361.907 980.202 362.8C979.722 363.68 979.142 364.473 978.462 365.18C977.795 365.873 976.942 366.68 975.902 367.6L975.002 368.4H981.342V370.3H971.622V368.64L973.062 367.4ZM992.105 362.3V364.22H983.885V362.3H992.105ZM995.004 359.52C995.084 358.28 995.557 357.313 996.424 356.62C997.304 355.927 998.424 355.58 999.784 355.58C1000.72 355.58 1001.52 355.747 1002.2 356.08C1002.88 356.413 1003.4 356.867 1003.74 357.44C1004.09 358.013 1004.26 358.66 1004.26 359.38C1004.26 360.207 1004.04 360.913 1003.6 361.5C1003.16 362.087 1002.64 362.48 1002.02 362.68V362.76C1002.81 363 1003.42 363.44 1003.86 364.08C1004.3 364.707 1004.52 365.513 1004.52 366.5C1004.52 367.287 1004.34 367.987 1003.98 368.6C1003.62 369.213 1003.09 369.7 1002.38 370.06C1001.68 370.407 1000.83 370.58 999.844 370.58C998.404 370.58 997.217 370.213 996.284 369.48C995.364 368.733 994.87 367.667 994.804 366.28H997.004C997.057 366.987 997.33 367.567 997.824 368.02C998.317 368.46 998.984 368.68 999.824 368.68C1000.64 368.68 1001.26 368.46 1001.7 368.02C1002.14 367.567 1002.36 366.987 1002.36 366.28C1002.36 365.347 1002.06 364.687 1001.46 364.3C1000.88 363.9 999.97 363.7 998.744 363.7H998.224V361.82H998.764C999.844 361.807 1000.66 361.627 1001.22 361.28C1001.8 360.933 1002.08 360.387 1002.08 359.64C1002.08 359 1001.88 358.493 1001.46 358.12C1001.05 357.733 1000.46 357.54 999.704 357.54C998.957 357.54 998.377 357.733 997.964 358.12C997.55 358.493 997.304 358.96 997.224 359.52H995.004ZM1016.32 357.88H1009.62V361.86C1009.9 361.487 1010.31 361.173 1010.86 360.92C1011.42 360.667 1012.01 360.54 1012.64 360.54C1013.76 360.54 1014.67 360.78 1015.36 361.26C1016.07 361.74 1016.57 362.347 1016.86 363.08C1017.17 363.813 1017.32 364.587 1017.32 365.4C1017.32 366.387 1017.13 367.267 1016.74 368.04C1016.37 368.8 1015.8 369.4 1015.04 369.84C1014.29 370.28 1013.37 370.5 1012.28 370.5C1010.83 370.5 1009.66 370.14 1008.78 369.42C1007.9 368.7 1007.37 367.747 1007.2 366.56H1009.42C1009.57 367.187 1009.89 367.687 1010.4 368.06C1010.91 368.42 1011.54 368.6 1012.3 368.6C1013.25 368.6 1013.95 368.313 1014.42 367.74C1014.9 367.167 1015.14 366.407 1015.14 365.46C1015.14 364.5 1014.9 363.767 1014.42 363.26C1013.94 362.74 1013.23 362.48 1012.3 362.48C1011.65 362.48 1011.09 362.647 1010.64 362.98C1010.2 363.3 1009.88 363.74 1009.68 364.3H1007.52V355.88H1016.32V357.88ZM1022.53 366.54C1022.67 367.207 1022.95 367.713 1023.39 368.06C1023.83 368.407 1024.43 368.58 1025.17 368.58C1026.12 368.58 1026.81 368.207 1027.25 367.46C1027.69 366.713 1027.91 365.44 1027.91 363.64C1027.59 364.093 1027.14 364.447 1026.55 364.7C1025.98 364.94 1025.35 365.06 1024.67 365.06C1023.81 365.06 1023.02 364.887 1022.31 364.54C1021.61 364.18 1021.05 363.653 1020.63 362.96C1020.23 362.253 1020.03 361.4 1020.03 360.4C1020.03 358.933 1020.46 357.767 1021.31 356.9C1022.18 356.02 1023.37 355.58 1024.87 355.58C1026.69 355.58 1027.97 356.187 1028.73 357.4C1029.51 358.6 1029.89 360.447 1029.89 362.94C1029.89 364.66 1029.75 366.067 1029.45 367.16C1029.17 368.253 1028.68 369.08 1027.97 369.64C1027.27 370.2 1026.29 370.48 1025.03 370.48C1023.61 370.48 1022.51 370.107 1021.73 369.36C1020.96 368.613 1020.53 367.673 1020.43 366.54H1022.53ZM1025.07 363.14C1025.87 363.14 1026.5 362.893 1026.95 362.4C1027.42 361.893 1027.65 361.227 1027.65 360.4C1027.65 359.48 1027.41 358.767 1026.91 358.26C1026.43 357.74 1025.77 357.48 1024.93 357.48C1024.09 357.48 1023.43 357.747 1022.93 358.28C1022.45 358.8 1022.21 359.487 1022.21 360.34C1022.21 361.153 1022.45 361.827 1022.91 362.36C1023.39 362.88 1024.11 363.14 1025.07 363.14ZM1032.39 363.02C1032.39 360.713 1032.77 358.913 1033.55 357.62C1034.33 356.313 1035.68 355.66 1037.59 355.66C1039.49 355.66 1040.83 356.313 1041.61 357.62C1042.39 358.913 1042.79 360.713 1042.79 363.02C1042.79 365.353 1042.39 367.18 1041.61 368.5C1040.83 369.807 1039.49 370.46 1037.59 370.46C1035.68 370.46 1034.33 369.807 1033.55 368.5C1032.77 367.18 1032.39 365.353 1032.39 363.02ZM1040.55 363.02C1040.55 361.94 1040.47 361.027 1040.33 360.28C1040.19 359.533 1039.91 358.927 1039.49 358.46C1039.06 357.98 1038.43 357.74 1037.59 357.74C1036.75 357.74 1036.11 357.98 1035.69 358.46C1035.26 358.927 1034.97 359.533 1034.83 360.28C1034.69 361.027 1034.63 361.94 1034.63 363.02C1034.63 364.14 1034.69 365.08 1034.83 365.84C1034.96 366.6 1035.24 367.213 1035.67 367.68C1036.11 368.147 1036.75 368.38 1037.59 368.38C1038.43 368.38 1039.06 368.147 1039.49 367.68C1039.93 367.213 1040.21 366.6 1040.35 365.84C1040.48 365.08 1040.55 364.14 1040.55 363.02Z"/><path fill="#C7C7C7" fill-opacity=".5" d="M1058.9 372.76H1056.62V354.48H1058.9V372.76Z"/><path fill="#747474" d="M1072.53 364.94C1072.53 363.833 1072.76 362.853 1073.21 362C1073.68 361.147 1074.3 360.487 1075.09 360.02C1075.89 359.54 1076.77 359.3 1077.73 359.3C1078.6 359.3 1079.35 359.473 1079.99 359.82C1080.64 360.153 1081.16 360.573 1081.55 361.08V359.48H1083.85V370.5H1081.55V368.86C1081.16 369.38 1080.64 369.813 1079.97 370.16C1079.3 370.507 1078.54 370.68 1077.69 370.68C1076.74 370.68 1075.88 370.44 1075.09 369.96C1074.3 369.467 1073.68 368.787 1073.21 367.92C1072.76 367.04 1072.53 366.047 1072.53 364.94ZM1081.55 364.98C1081.55 364.22 1081.39 363.56 1081.07 363C1080.76 362.44 1080.36 362.013 1079.85 361.72C1079.34 361.427 1078.8 361.28 1078.21 361.28C1077.62 361.28 1077.08 361.427 1076.57 361.72C1076.06 362 1075.65 362.42 1075.33 362.98C1075.02 363.527 1074.87 364.18 1074.87 364.94C1074.87 365.7 1075.02 366.367 1075.33 366.94C1075.65 367.513 1076.06 367.953 1076.57 368.26C1077.09 368.553 1077.64 368.7 1078.21 368.7C1078.8 368.7 1079.34 368.553 1079.85 368.26C1080.36 367.967 1080.76 367.54 1081.07 366.98C1081.39 366.407 1081.55 365.74 1081.55 364.98ZM1100.18 359.3C1101.05 359.3 1101.82 359.48 1102.5 359.84C1103.2 360.2 1103.74 360.733 1104.12 361.44C1104.52 362.147 1104.72 363 1104.72 364V370.5H1102.46V364.34C1102.46 363.353 1102.22 362.6 1101.72 362.08C1101.23 361.547 1100.56 361.28 1099.7 361.28C1098.85 361.28 1098.17 361.547 1097.66 362.08C1097.17 362.6 1096.92 363.353 1096.92 364.34V370.5H1094.66V364.34C1094.66 363.353 1094.42 362.6 1093.92 362.08C1093.43 361.547 1092.76 361.28 1091.9 361.28C1091.05 361.28 1090.37 361.547 1089.86 362.08C1089.37 362.6 1089.12 363.353 1089.12 364.34V370.5H1086.84V359.48H1089.12V360.74C1089.5 360.287 1089.97 359.933 1090.54 359.68C1091.12 359.427 1091.73 359.3 1092.38 359.3C1093.26 359.3 1094.05 359.487 1094.74 359.86C1095.44 360.233 1095.97 360.773 1096.34 361.48C1096.68 360.813 1097.2 360.287 1097.9 359.9C1098.61 359.5 1099.37 359.3 1100.18 359.3ZM1109.91 361.08C1110.24 360.52 1110.68 360.087 1111.23 359.78C1111.79 359.46 1112.45 359.3 1113.21 359.3V361.66H1112.63C1111.73 361.66 1111.05 361.887 1110.59 362.34C1110.13 362.793 1109.91 363.58 1109.91 364.7V370.5H1107.63V359.48H1109.91V361.08ZM1125.28 359.48V370.5H1123V369.2C1122.64 369.653 1122.17 370.013 1121.58 370.28C1121.01 370.533 1120.39 370.66 1119.74 370.66C1118.87 370.66 1118.09 370.48 1117.4 370.12C1116.72 369.76 1116.18 369.227 1115.78 368.52C1115.39 367.813 1115.2 366.96 1115.2 365.96V359.48H1117.46V365.62C1117.46 366.607 1117.71 367.367 1118.2 367.9C1118.69 368.42 1119.37 368.68 1120.22 368.68C1121.07 368.68 1121.75 368.42 1122.24 367.9C1122.75 367.367 1123 366.607 1123 365.62V359.48H1125.28ZM1130.57 355.7V370.5H1128.29V355.7H1130.57ZM1134.52 367.4C1135.8 366.293 1136.81 365.387 1137.54 364.68C1138.29 363.96 1138.91 363.213 1139.4 362.44C1139.9 361.667 1140.14 360.893 1140.14 360.12C1140.14 359.32 1139.95 358.693 1139.56 358.24C1139.19 357.787 1138.6 357.56 1137.78 357.56C1137 357.56 1136.38 357.813 1135.94 358.32C1135.52 358.813 1135.29 359.48 1135.26 360.32H1133.06C1133.1 358.8 1133.56 357.64 1134.42 356.84C1135.3 356.027 1136.42 355.62 1137.76 355.62C1139.22 355.62 1140.35 356.02 1141.16 356.82C1141.99 357.62 1142.4 358.687 1142.4 360.02C1142.4 360.98 1142.16 361.907 1141.66 362.8C1141.18 363.68 1140.6 364.473 1139.92 365.18C1139.26 365.873 1138.4 366.68 1137.36 367.6L1136.46 368.4H1142.8V370.3H1133.08V368.64L1134.52 367.4ZM1144.81 363.02C1144.81 360.713 1145.19 358.913 1145.97 357.62C1146.75 356.313 1148.1 355.66 1150.01 355.66C1151.91 355.66 1153.25 356.313 1154.03 357.62C1154.81 358.913 1155.21 360.713 1155.21 363.02C1155.21 365.353 1154.81 367.18 1154.03 368.5C1153.25 369.807 1151.91 370.46 1150.01 370.46C1148.1 370.46 1146.75 369.807 1145.97 368.5C1145.19 367.18 1144.81 365.353 1144.81 363.02ZM1152.97 363.02C1152.97 361.94 1152.89 361.027 1152.75 360.28C1152.61 359.533 1152.33 358.927 1151.91 358.46C1151.48 357.98 1150.85 357.74 1150.01 357.74C1149.17 357.74 1148.53 357.98 1148.11 358.46C1147.68 358.927 1147.39 359.533 1147.25 360.28C1147.11 361.027 1147.05 361.94 1147.05 363.02C1147.05 364.14 1147.11 365.08 1147.25 365.84C1147.38 366.6 1147.66 367.213 1148.09 367.68C1148.53 368.147 1149.17 368.38 1150.01 368.38C1150.85 368.38 1151.48 368.147 1151.91 367.68C1152.35 367.213 1152.63 366.6 1152.77 365.84C1152.9 365.08 1152.97 364.14 1152.97 363.02ZM1157.62 363.02C1157.62 360.713 1158 358.913 1158.78 357.62C1159.56 356.313 1160.91 355.66 1162.82 355.66C1164.72 355.66 1166.06 356.313 1166.84 357.62C1167.62 358.913 1168.02 360.713 1168.02 363.02C1168.02 365.353 1167.62 367.18 1166.84 368.5C1166.06 369.807 1164.72 370.46 1162.82 370.46C1160.91 370.46 1159.56 369.807 1158.78 368.5C1158 367.18 1157.62 365.353 1157.62 363.02ZM1165.78 363.02C1165.78 361.94 1165.7 361.027 1165.56 360.28C1165.42 359.533 1165.14 358.927 1164.72 358.46C1164.29 357.98 1163.66 357.74 1162.82 357.74C1161.98 357.74 1161.34 357.98 1160.92 358.46C1160.49 358.927 1160.2 359.533 1160.06 360.28C1159.92 361.027 1159.86 361.94 1159.86 363.02C1159.86 364.14 1159.92 365.08 1160.06 365.84C1160.19 366.6 1160.47 367.213 1160.9 367.68C1161.34 368.147 1161.98 368.38 1162.82 368.38C1163.66 368.38 1164.29 368.147 1164.72 367.68C1165.16 367.213 1165.44 366.6 1165.58 365.84C1165.71 365.08 1165.78 364.14 1165.78 363.02ZM1179.83 357.88H1173.13V361.86C1173.41 361.487 1173.82 361.173 1174.37 360.92C1174.93 360.667 1175.52 360.54 1176.15 360.54C1177.27 360.54 1178.18 360.78 1178.87 361.26C1179.58 361.74 1180.08 362.347 1180.37 363.08C1180.68 363.813 1180.83 364.587 1180.83 365.4C1180.83 366.387 1180.64 367.267 1180.25 368.04C1179.88 368.8 1179.31 369.4 1178.55 369.84C1177.8 370.28 1176.88 370.5 1175.79 370.5C1174.34 370.5 1173.17 370.14 1172.29 369.42C1171.41 368.7 1170.88 367.747 1170.71 366.56H1172.93C1173.08 367.187 1173.4 367.687 1173.91 368.06C1174.42 368.42 1175.05 368.6 1175.81 368.6C1176.76 368.6 1177.46 368.313 1177.93 367.74C1178.41 367.167 1178.65 366.407 1178.65 365.46C1178.65 364.5 1178.41 363.767 1177.93 363.26C1177.45 362.74 1176.74 362.48 1175.81 362.48C1175.16 362.48 1174.6 362.647 1174.15 362.98C1173.71 363.3 1173.39 363.74 1173.19 364.3H1171.03V355.88H1179.83V357.88ZM1183.16 359.52C1183.24 358.28 1183.72 357.313 1184.58 356.62C1185.46 355.927 1186.58 355.58 1187.94 355.58C1188.88 355.58 1189.68 355.747 1190.36 356.08C1191.04 356.413 1191.56 356.867 1191.9 357.44C1192.25 358.013 1192.42 358.66 1192.42 359.38C1192.42 360.207 1192.2 360.913 1191.76 361.5C1191.32 362.087 1190.8 362.48 1190.18 362.68V362.76C1190.97 363 1191.58 363.44 1192.02 364.08C1192.46 364.707 1192.68 365.513 1192.68 366.5C1192.68 367.287 1192.5 367.987 1192.14 368.6C1191.78 369.213 1191.25 369.7 1190.54 370.06C1189.84 370.407 1188.99 370.58 1188 370.58C1186.56 370.58 1185.38 370.213 1184.44 369.48C1183.52 368.733 1183.03 367.667 1182.96 366.28H1185.16C1185.22 366.987 1185.49 367.567 1185.98 368.02C1186.48 368.46 1187.14 368.68 1187.98 368.68C1188.8 368.68 1189.42 368.46 1189.86 368.02C1190.3 367.567 1190.52 366.987 1190.52 366.28C1190.52 365.347 1190.22 364.687 1189.62 364.3C1189.04 363.9 1188.13 363.7 1186.9 363.7H1186.38V361.82H1186.92C1188 361.807 1188.82 361.627 1189.38 361.28C1189.96 360.933 1190.24 360.387 1190.24 359.64C1190.24 359 1190.04 358.493 1189.62 358.12C1189.21 357.733 1188.62 357.54 1187.86 357.54C1187.12 357.54 1186.54 357.733 1186.12 358.12C1185.71 358.493 1185.46 358.96 1185.38 359.52H1183.16ZM1195.04 359.52C1195.12 358.28 1195.59 357.313 1196.46 356.62C1197.34 355.927 1198.46 355.58 1199.82 355.58C1200.75 355.58 1201.56 355.747 1202.24 356.08C1202.92 356.413 1203.43 356.867 1203.78 357.44C1204.13 358.013 1204.3 358.66 1204.3 359.38C1204.3 360.207 1204.08 360.913 1203.64 361.5C1203.2 362.087 1202.67 362.48 1202.06 362.68V362.76C1202.85 363 1203.46 363.44 1203.9 364.08C1204.34 364.707 1204.56 365.513 1204.56 366.5C1204.56 367.287 1204.38 367.987 1204.02 368.6C1203.66 369.213 1203.13 369.7 1202.42 370.06C1201.71 370.407 1200.87 370.58 1199.88 370.58C1198.44 370.58 1197.25 370.213 1196.32 369.48C1195.4 368.733 1194.91 367.667 1194.84 366.28H1197.04C1197.09 366.987 1197.37 367.567 1197.86 368.02C1198.35 368.46 1199.02 368.68 1199.86 368.68C1200.67 368.68 1201.3 368.46 1201.74 368.02C1202.18 367.567 1202.4 366.987 1202.4 366.28C1202.4 365.347 1202.1 364.687 1201.5 364.3C1200.91 363.9 1200.01 363.7 1198.78 363.7H1198.26V361.82H1198.8C1199.88 361.807 1200.7 361.627 1201.26 361.28C1201.83 360.933 1202.12 360.387 1202.12 359.64C1202.12 359 1201.91 358.493 1201.5 358.12C1201.09 357.733 1200.5 357.54 1199.74 357.54C1198.99 357.54 1198.41 357.733 1198 358.12C1197.59 358.493 1197.34 358.96 1197.26 359.52H1195.04ZM1206.67 367.46V365.74L1213.39 356.1H1216.15V365.48H1218.01V367.46H1216.15V370.5H1213.91V367.46H1206.67ZM1214.01 358.42L1209.29 365.48H1214.01V358.42ZM1230.46 357.58C1231.98 357.58 1233.3 357.86 1234.4 358.42C1235.51 358.98 1236.35 359.767 1236.92 360.78C1237.51 361.78 1237.8 362.947 1237.8 364.28C1237.8 365.347 1237.62 366.367 1237.24 367.34C1236.88 368.313 1236.36 369.107 1235.66 369.72C1234.98 370.333 1234.18 370.64 1233.24 370.64C1232.56 370.64 1232.03 370.493 1231.64 370.2C1231.26 369.893 1231.02 369.467 1230.92 368.92C1230.51 369.453 1229.99 369.873 1229.36 370.18C1228.74 370.487 1228.08 370.64 1227.4 370.64C1226.38 370.64 1225.57 370.333 1224.98 369.72C1224.41 369.093 1224.12 368.247 1224.12 367.18C1224.12 366.167 1224.33 365.22 1224.74 364.34C1225.17 363.46 1225.76 362.76 1226.52 362.24C1227.28 361.707 1228.14 361.44 1229.08 361.44C1230.24 361.44 1231.06 361.833 1231.52 362.62L1231.7 361.62H1233.68L1232.68 367.34C1232.64 367.62 1232.62 367.867 1232.62 368.08C1232.62 368.427 1232.69 368.687 1232.82 368.86C1232.97 369.033 1233.22 369.12 1233.58 369.12C1234.09 369.12 1234.52 368.873 1234.88 368.38C1235.24 367.873 1235.51 367.253 1235.68 366.52C1235.87 365.787 1235.96 365.073 1235.96 364.38C1235.96 362.687 1235.47 361.393 1234.48 360.5C1233.5 359.607 1232.06 359.16 1230.18 359.16C1228.61 359.16 1227.2 359.533 1225.94 360.28C1224.7 361.027 1223.73 362.053 1223.02 363.36C1222.32 364.667 1221.96 366.12 1221.96 367.72C1221.96 369.427 1222.47 370.727 1223.48 371.62C1224.5 372.513 1225.94 372.96 1227.82 372.96C1229.09 372.96 1230.2 372.727 1231.14 372.26L1231.44 373.78C1230.23 374.3 1228.87 374.56 1227.36 374.56C1225.91 374.56 1224.64 374.287 1223.54 373.74C1222.45 373.193 1221.6 372.413 1221 371.4C1220.4 370.4 1220.1 369.233 1220.1 367.9C1220.1 365.993 1220.54 364.253 1221.42 362.68C1222.32 361.107 1223.55 359.867 1225.12 358.96C1226.7 358.04 1228.48 357.58 1230.46 357.58ZM1228.1 368.88C1228.66 368.88 1229.17 368.72 1229.62 368.4C1230.09 368.067 1230.46 367.633 1230.72 367.1C1230.99 366.553 1231.12 365.973 1231.12 365.36C1231.12 364.72 1230.94 364.2 1230.58 363.8C1230.24 363.387 1229.74 363.18 1229.1 363.18C1228.53 363.18 1228.02 363.36 1227.58 363.72C1227.16 364.067 1226.82 364.52 1226.58 365.08C1226.36 365.64 1226.24 366.227 1226.24 366.84C1226.24 367.467 1226.4 367.967 1226.7 368.34C1227.01 368.7 1227.48 368.88 1228.1 368.88ZM1245.15 359.3C1246 359.3 1246.76 359.473 1247.41 359.82C1248.08 360.153 1248.6 360.573 1248.97 361.08V359.48H1251.27V370.68C1251.27 371.693 1251.06 372.593 1250.63 373.38C1250.2 374.18 1249.58 374.807 1248.77 375.26C1247.97 375.713 1247.01 375.94 1245.89 375.94C1244.4 375.94 1243.16 375.587 1242.17 374.88C1241.18 374.187 1240.62 373.24 1240.49 372.04H1242.75C1242.92 372.613 1243.29 373.073 1243.85 373.42C1244.42 373.78 1245.1 373.96 1245.89 373.96C1246.81 373.96 1247.55 373.68 1248.11 373.12C1248.68 372.56 1248.97 371.747 1248.97 370.68V368.84C1248.58 369.36 1248.06 369.8 1247.39 370.16C1246.74 370.507 1245.99 370.68 1245.15 370.68C1244.19 370.68 1243.31 370.44 1242.51 369.96C1241.72 369.467 1241.1 368.787 1240.63 367.92C1240.18 367.04 1239.95 366.047 1239.95 364.94C1239.95 363.833 1240.18 362.853 1240.63 362C1241.1 361.147 1241.72 360.487 1242.51 360.02C1243.31 359.54 1244.19 359.3 1245.15 359.3ZM1248.97 364.98C1248.97 364.22 1248.81 363.56 1248.49 363C1248.18 362.44 1247.78 362.013 1247.27 361.72C1246.76 361.427 1246.22 361.28 1245.63 361.28C1245.04 361.28 1244.5 361.427 1243.99 361.72C1243.48 362 1243.07 362.42 1242.75 362.98C1242.44 363.527 1242.29 364.18 1242.29 364.94C1242.29 365.7 1242.44 366.367 1242.75 366.94C1243.07 367.513 1243.48 367.953 1243.99 368.26C1244.51 368.553 1245.06 368.7 1245.63 368.7C1246.22 368.7 1246.76 368.553 1247.27 368.26C1247.78 367.967 1248.18 367.54 1248.49 366.98C1248.81 366.407 1248.97 365.74 1248.97 364.98ZM1267.61 359.3C1268.47 359.3 1269.25 359.48 1269.93 359.84C1270.62 360.2 1271.16 360.733 1271.55 361.44C1271.95 362.147 1272.15 363 1272.15 364V370.5H1269.89V364.34C1269.89 363.353 1269.64 362.6 1269.15 362.08C1268.65 361.547 1267.98 361.28 1267.13 361.28C1266.27 361.28 1265.59 361.547 1265.09 362.08C1264.59 362.6 1264.35 363.353 1264.35 364.34V370.5H1262.09V364.34C1262.09 363.353 1261.84 362.6 1261.35 362.08C1260.85 361.547 1260.18 361.28 1259.33 361.28C1258.47 361.28 1257.79 361.547 1257.29 362.08C1256.79 362.6 1256.55 363.353 1256.55 364.34V370.5H1254.27V359.48H1256.55V360.74C1256.92 360.287 1257.39 359.933 1257.97 359.68C1258.54 359.427 1259.15 359.3 1259.81 359.3C1260.69 359.3 1261.47 359.487 1262.17 359.86C1262.86 360.233 1263.39 360.773 1263.77 361.48C1264.1 360.813 1264.62 360.287 1265.33 359.9C1266.03 359.5 1266.79 359.3 1267.61 359.3ZM1274.29 364.94C1274.29 363.833 1274.51 362.853 1274.97 362C1275.43 361.147 1276.06 360.487 1276.85 360.02C1277.65 359.54 1278.53 359.3 1279.49 359.3C1280.35 359.3 1281.11 359.473 1281.75 359.82C1282.4 360.153 1282.92 360.573 1283.31 361.08V359.48H1285.61V370.5H1283.31V368.86C1282.92 369.38 1282.39 369.813 1281.73 370.16C1281.06 370.507 1280.3 370.68 1279.45 370.68C1278.5 370.68 1277.63 370.44 1276.85 369.96C1276.06 369.467 1275.43 368.787 1274.97 367.92C1274.51 367.04 1274.29 366.047 1274.29 364.94ZM1283.31 364.98C1283.31 364.22 1283.15 363.56 1282.83 363C1282.52 362.44 1282.11 362.013 1281.61 361.72C1281.1 361.427 1280.55 361.28 1279.97 361.28C1279.38 361.28 1278.83 361.427 1278.33 361.72C1277.82 362 1277.41 362.42 1277.09 362.98C1276.78 363.527 1276.63 364.18 1276.63 364.94C1276.63 365.7 1276.78 366.367 1277.09 366.94C1277.41 367.513 1277.82 367.953 1278.33 368.26C1278.85 368.553 1279.39 368.7 1279.97 368.7C1280.55 368.7 1281.1 368.553 1281.61 368.26C1282.11 367.967 1282.52 367.54 1282.83 366.98C1283.15 366.407 1283.31 365.74 1283.31 364.98ZM1289.76 358.02C1289.35 358.02 1289 357.88 1288.72 357.6C1288.44 357.32 1288.3 356.973 1288.3 356.56C1288.3 356.147 1288.44 355.8 1288.72 355.52C1289 355.24 1289.35 355.1 1289.76 355.1C1290.16 355.1 1290.5 355.24 1290.78 355.52C1291.06 355.8 1291.2 356.147 1291.2 356.56C1291.2 356.973 1291.06 357.32 1290.78 357.6C1290.5 357.88 1290.16 358.02 1289.76 358.02ZM1290.88 359.48V370.5H1288.6V359.48H1290.88ZM1296.16 355.7V370.5H1293.88V355.7H1296.16ZM1300.07 370.64C1299.66 370.64 1299.31 370.5 1299.03 370.22C1298.75 369.94 1298.61 369.593 1298.61 369.18C1298.61 368.767 1298.75 368.42 1299.03 368.14C1299.31 367.86 1299.66 367.72 1300.07 367.72C1300.47 367.72 1300.81 367.86 1301.09 368.14C1301.37 368.42 1301.51 368.767 1301.51 369.18C1301.51 369.593 1301.37 369.94 1301.09 370.22C1300.81 370.5 1300.47 370.64 1300.07 370.64ZM1303.21 364.98C1303.21 363.847 1303.44 362.853 1303.89 362C1304.36 361.133 1305 360.467 1305.81 360C1306.63 359.533 1307.56 359.3 1308.61 359.3C1309.95 359.3 1311.05 359.62 1311.91 360.26C1312.79 360.887 1313.39 361.787 1313.69 362.96H1311.23C1311.03 362.413 1310.71 361.987 1310.27 361.68C1309.83 361.373 1309.28 361.22 1308.61 361.22C1307.68 361.22 1306.93 361.553 1306.37 362.22C1305.83 362.873 1305.55 363.793 1305.55 364.98C1305.55 366.167 1305.83 367.093 1306.37 367.76C1306.93 368.427 1307.68 368.76 1308.61 368.76C1309.93 368.76 1310.81 368.18 1311.23 367.02H1313.69C1313.37 368.14 1312.77 369.033 1311.89 369.7C1311.01 370.353 1309.92 370.68 1308.61 370.68C1307.56 370.68 1306.63 370.447 1305.81 369.98C1305 369.5 1304.36 368.833 1303.89 367.98C1303.44 367.113 1303.21 366.113 1303.21 364.98ZM1320.74 370.68C1319.7 370.68 1318.76 370.447 1317.92 369.98C1317.08 369.5 1316.42 368.833 1315.94 367.98C1315.46 367.113 1315.22 366.113 1315.22 364.98C1315.22 363.86 1315.47 362.867 1315.96 362C1316.46 361.133 1317.13 360.467 1317.98 360C1318.84 359.533 1319.79 359.3 1320.84 359.3C1321.9 359.3 1322.85 359.533 1323.7 360C1324.56 360.467 1325.23 361.133 1325.72 362C1326.22 362.867 1326.46 363.86 1326.46 364.98C1326.46 366.1 1326.21 367.093 1325.7 367.96C1325.2 368.827 1324.5 369.5 1323.62 369.98C1322.76 370.447 1321.8 370.68 1320.74 370.68ZM1320.74 368.7C1321.33 368.7 1321.88 368.56 1322.38 368.28C1322.9 368 1323.32 367.58 1323.64 367.02C1323.96 366.46 1324.12 365.78 1324.12 364.98C1324.12 364.18 1323.97 363.507 1323.66 362.96C1323.36 362.4 1322.95 361.98 1322.44 361.7C1321.94 361.42 1321.39 361.28 1320.8 361.28C1320.22 361.28 1319.67 361.42 1319.16 361.7C1318.67 361.98 1318.28 362.4 1317.98 362.96C1317.69 363.507 1317.54 364.18 1317.54 364.98C1317.54 366.167 1317.84 367.087 1318.44 367.74C1319.06 368.38 1319.82 368.7 1320.74 368.7ZM1342.06 359.3C1342.93 359.3 1343.7 359.48 1344.38 359.84C1345.07 360.2 1345.61 360.733 1346 361.44C1346.4 362.147 1346.6 363 1346.6 364V370.5H1344.34V364.34C1344.34 363.353 1344.09 362.6 1343.6 362.08C1343.11 361.547 1342.43 361.28 1341.58 361.28C1340.73 361.28 1340.05 361.547 1339.54 362.08C1339.05 362.6 1338.8 363.353 1338.8 364.34V370.5H1336.54V364.34C1336.54 363.353 1336.29 362.6 1335.8 362.08C1335.31 361.547 1334.63 361.28 1333.78 361.28C1332.93 361.28 1332.25 361.547 1331.74 362.08C1331.25 362.6 1331 363.353 1331 364.34V370.5H1328.72V359.48H1331V360.74C1331.37 360.287 1331.85 359.933 1332.42 359.68C1332.99 359.427 1333.61 359.3 1334.26 359.3C1335.14 359.3 1335.93 359.487 1336.62 359.86C1337.31 360.233 1337.85 360.773 1338.22 361.48C1338.55 360.813 1339.07 360.287 1339.78 359.9C1340.49 359.5 1341.25 359.3 1342.06 359.3Z"/><path fill="#C7C7C7" fill-opacity=".5" d="M1362.9 372.76H1360.62V354.48H1362.9V372.76Z"/><path fill="#0C0C0C" d="M1376.57 364.94C1376.57 363.833 1376.79 362.853 1377.25 362C1377.71 361.147 1378.34 360.487 1379.13 360.02C1379.93 359.54 1380.81 359.3 1381.77 359.3C1382.63 359.3 1383.39 359.473 1384.03 359.82C1384.68 360.153 1385.2 360.573 1385.59 361.08V359.48H1387.89V370.5H1385.59V368.86C1385.2 369.38 1384.67 369.813 1384.01 370.16C1383.34 370.507 1382.58 370.68 1381.73 370.68C1380.78 370.68 1379.91 370.44 1379.13 369.96C1378.34 369.467 1377.71 368.787 1377.25 367.92C1376.79 367.04 1376.57 366.047 1376.57 364.94ZM1385.59 364.98C1385.59 364.22 1385.43 363.56 1385.11 363C1384.8 362.44 1384.39 362.013 1383.89 361.72C1383.38 361.427 1382.83 361.28 1382.25 361.28C1381.66 361.28 1381.11 361.427 1380.61 361.72C1380.1 362 1379.69 362.42 1379.37 362.98C1379.06 363.527 1378.91 364.18 1378.91 364.94C1378.91 365.7 1379.06 366.367 1379.37 366.94C1379.69 367.513 1380.1 367.953 1380.61 368.26C1381.13 368.553 1381.67 368.7 1382.25 368.7C1382.83 368.7 1383.38 368.553 1383.89 368.26C1384.39 367.967 1384.8 367.54 1385.11 366.98C1385.43 366.407 1385.59 365.74 1385.59 364.98ZM1404.22 359.3C1405.09 359.3 1405.86 359.48 1406.54 359.84C1407.24 360.2 1407.78 360.733 1408.16 361.44C1408.56 362.147 1408.76 363 1408.76 364V370.5H1406.5V364.34C1406.5 363.353 1406.26 362.6 1405.76 362.08C1405.27 361.547 1404.6 361.28 1403.74 361.28C1402.89 361.28 1402.21 361.547 1401.7 362.08C1401.21 362.6 1400.96 363.353 1400.96 364.34V370.5H1398.7V364.34C1398.7 363.353 1398.46 362.6 1397.96 362.08C1397.47 361.547 1396.8 361.28 1395.94 361.28C1395.09 361.28 1394.41 361.547 1393.9 362.08C1393.41 362.6 1393.16 363.353 1393.16 364.34V370.5H1390.88V359.48H1393.16V360.74C1393.54 360.287 1394.01 359.933 1394.58 359.68C1395.16 359.427 1395.77 359.3 1396.42 359.3C1397.3 359.3 1398.09 359.487 1398.78 359.86C1399.48 360.233 1400.01 360.773 1400.38 361.48C1400.72 360.813 1401.24 360.287 1401.94 359.9C1402.65 359.5 1403.41 359.3 1404.22 359.3ZM1413.94 361.08C1414.28 360.52 1414.72 360.087 1415.26 359.78C1415.82 359.46 1416.48 359.3 1417.24 359.3V361.66H1416.66C1415.77 361.66 1415.09 361.887 1414.62 362.34C1414.17 362.793 1413.94 363.58 1413.94 364.7V370.5H1411.66V359.48H1413.94V361.08ZM1429.32 359.48V370.5H1427.04V369.2C1426.68 369.653 1426.21 370.013 1425.62 370.28C1425.05 370.533 1424.43 370.66 1423.78 370.66C1422.91 370.66 1422.13 370.48 1421.44 370.12C1420.76 369.76 1420.22 369.227 1419.82 368.52C1419.43 367.813 1419.24 366.96 1419.24 365.96V359.48H1421.5V365.62C1421.5 366.607 1421.75 367.367 1422.24 367.9C1422.73 368.42 1423.41 368.68 1424.26 368.68C1425.11 368.68 1425.79 368.42 1426.28 367.9C1426.79 367.367 1427.04 366.607 1427.04 365.62V359.48H1429.32ZM1434.61 355.7V370.5H1432.33V355.7H1434.61ZM1438.52 370.64C1438.11 370.64 1437.76 370.5 1437.48 370.22C1437.2 369.94 1437.06 369.593 1437.06 369.18C1437.06 368.767 1437.2 368.42 1437.48 368.14C1437.76 367.86 1438.11 367.72 1438.52 367.72C1438.92 367.72 1439.26 367.86 1439.54 368.14C1439.82 368.42 1439.96 368.767 1439.96 369.18C1439.96 369.593 1439.82 369.94 1439.54 370.22C1439.26 370.5 1438.92 370.64 1438.52 370.64ZM1455.77 359.3C1456.63 359.3 1457.41 359.48 1458.09 359.84C1458.78 360.2 1459.32 360.733 1459.71 361.44C1460.11 362.147 1460.31 363 1460.31 364V370.5H1458.05V364.34C1458.05 363.353 1457.8 362.6 1457.31 362.08C1456.81 361.547 1456.14 361.28 1455.29 361.28C1454.43 361.28 1453.75 361.547 1453.25 362.08C1452.75 362.6 1452.51 363.353 1452.51 364.34V370.5H1450.25V364.34C1450.25 363.353 1450 362.6 1449.51 362.08C1449.01 361.547 1448.34 361.28 1447.49 361.28C1446.63 361.28 1445.95 361.547 1445.45 362.08C1444.95 362.6 1444.71 363.353 1444.71 364.34V370.5H1442.43V359.48H1444.71V360.74C1445.08 360.287 1445.55 359.933 1446.13 359.68C1446.7 359.427 1447.31 359.3 1447.97 359.3C1448.85 359.3 1449.63 359.487 1450.33 359.86C1451.02 360.233 1451.55 360.773 1451.93 361.48C1452.26 360.813 1452.78 360.287 1453.49 359.9C1454.19 359.5 1454.95 359.3 1455.77 359.3ZM1473.13 359.48L1466.37 375.68H1464.01L1466.25 370.32L1461.91 359.48H1464.45L1467.55 367.88L1470.77 359.48H1473.13ZM1475.77 370.64C1475.35 370.64 1475.01 370.5 1474.73 370.22C1474.45 369.94 1474.31 369.593 1474.31 369.18C1474.31 368.767 1474.45 368.42 1474.73 368.14C1475.01 367.86 1475.35 367.72 1475.77 367.72C1476.17 367.72 1476.51 367.86 1476.79 368.14C1477.07 368.42 1477.21 368.767 1477.21 369.18C1477.21 369.593 1477.07 369.94 1476.79 370.22C1476.51 370.5 1476.17 370.64 1475.77 370.64ZM1480.83 358.02C1480.42 358.02 1480.07 357.88 1479.79 357.6C1479.51 357.32 1479.37 356.973 1479.37 356.56C1479.37 356.147 1479.51 355.8 1479.79 355.52C1480.07 355.24 1480.42 355.1 1480.83 355.1C1481.23 355.1 1481.57 355.24 1481.85 355.52C1482.13 355.8 1482.27 356.147 1482.27 356.56C1482.27 356.973 1482.13 357.32 1481.85 357.6C1481.57 357.88 1481.23 358.02 1480.83 358.02ZM1481.95 359.48V370.5H1479.67V359.48H1481.95ZM1484.19 364.94C1484.19 363.833 1484.41 362.853 1484.87 362C1485.33 361.147 1485.96 360.487 1486.75 360.02C1487.55 359.54 1488.43 359.3 1489.41 359.3C1490.13 359.3 1490.83 359.46 1491.53 359.78C1492.23 360.087 1492.79 360.5 1493.21 361.02V355.7H1495.51V370.5H1493.21V368.84C1492.83 369.373 1492.31 369.813 1491.65 370.16C1490.99 370.507 1490.24 370.68 1489.39 370.68C1488.43 370.68 1487.55 370.44 1486.75 369.96C1485.96 369.467 1485.33 368.787 1484.87 367.92C1484.41 367.04 1484.19 366.047 1484.19 364.94ZM1493.21 364.98C1493.21 364.22 1493.05 363.56 1492.73 363C1492.42 362.44 1492.01 362.013 1491.51 361.72C1491 361.427 1490.45 361.28 1489.87 361.28C1489.28 361.28 1488.73 361.427 1488.23 361.72C1487.72 362 1487.31 362.42 1486.99 362.98C1486.68 363.527 1486.53 364.18 1486.53 364.94C1486.53 365.7 1486.68 366.367 1486.99 366.94C1487.31 367.513 1487.72 367.953 1488.23 368.26C1488.75 368.553 1489.29 368.7 1489.87 368.7C1490.45 368.7 1491 368.553 1491.51 368.26C1492.01 367.967 1492.42 367.54 1492.73 366.98C1493.05 366.407 1493.21 365.74 1493.21 364.98Z"/></g><defs><filter id="filter0_f_1_116" width="3431" height="3081" x="-511" y="-1306" color-interpolation-filters="sRGB" filterUnits="userSpaceOnUse"><feFlood flood-opacity="0" result="BackgroundImageFix"/><feBlend in="SourceGraphic" in2="BackgroundImageFix" mode="normal" result="shape"/><feGaussianBlur result="effect1_foregroundBlur_1_116" stdDeviation="500"/></filter><clipPath id="clip0_1_116"><rect width="1584" height="396" fill="#fff"/></clipPath></defs></svg>