<svg width="1584" height="396" viewBox="0 0 1584 396" fill="none" xmlns="http://www.w3.org/2000/svg">
<g clip-path="url(#clip0_103_117)">
<rect width="1584" height="396" fill="#0D1117"/>
<g opacity="0.32" filter="url(#filter0_f_103_117)">
<ellipse cx="1204.5" cy="234.5" rx="715.5" ry="540.5" fill="#FFD755"/>
</g>
<path d="M1388.69 247.208L1411.59 265.365L1384.41 276.117L1388.69 247.208Z" fill="#FFD755"/>
<path d="M1388.74 75.71V91H1386.23V84.312H1379.04V91H1376.53V75.71H1379.04V82.266H1386.23V75.71H1388.74ZM1403.15 84.642C1403.15 85.0967 1403.13 85.5073 1403.07 85.874H1393.8C1393.88 86.842 1394.24 87.6193 1394.88 88.206C1395.53 88.7927 1396.32 89.086 1397.26 89.086C1398.61 89.086 1399.56 88.5213 1400.12 87.392H1402.82C1402.46 88.5067 1401.79 89.4233 1400.82 90.142C1399.87 90.846 1398.68 91.198 1397.26 91.198C1396.1 91.198 1395.06 90.9413 1394.13 90.428C1393.23 89.9 1392.51 89.1667 1391.98 88.228C1391.47 87.2747 1391.21 86.1747 1391.21 84.928C1391.21 83.6813 1391.46 82.5887 1391.96 81.65C1392.47 80.6967 1393.18 79.9633 1394.09 79.45C1395.01 78.9367 1396.07 78.68 1397.26 78.68C1398.4 78.68 1399.42 78.9293 1400.32 79.428C1401.21 79.9267 1401.91 80.6307 1402.41 81.54C1402.91 82.4347 1403.15 83.4687 1403.15 84.642ZM1400.54 83.85C1400.52 82.926 1400.19 82.1853 1399.55 81.628C1398.9 81.0707 1398.1 80.792 1397.15 80.792C1396.28 80.792 1395.54 81.0707 1394.93 81.628C1394.31 82.1707 1393.94 82.9113 1393.83 83.85H1400.54ZM1408.13 74.72V91H1405.62V74.72H1408.13ZM1413.93 74.72V91H1411.42V74.72H1413.93ZM1422.48 91.198C1421.34 91.198 1420.3 90.9413 1419.38 90.428C1418.46 89.9 1417.73 89.1667 1417.2 88.228C1416.67 87.2747 1416.41 86.1747 1416.41 84.928C1416.41 83.696 1416.68 82.6033 1417.22 81.65C1417.77 80.6967 1418.51 79.9633 1419.45 79.45C1420.38 78.9367 1421.43 78.68 1422.59 78.68C1423.75 78.68 1424.8 78.9367 1425.74 79.45C1426.68 79.9633 1427.42 80.6967 1427.96 81.65C1428.5 82.6033 1428.77 83.696 1428.77 84.928C1428.77 86.16 1428.5 87.2527 1427.94 88.206C1427.38 89.1593 1426.62 89.9 1425.65 90.428C1424.7 90.9413 1423.64 91.198 1422.48 91.198ZM1422.48 89.02C1423.13 89.02 1423.73 88.866 1424.29 88.558C1424.86 88.25 1425.32 87.788 1425.67 87.172C1426.02 86.556 1426.2 85.808 1426.2 84.928C1426.2 84.048 1426.03 83.3073 1425.69 82.706C1425.36 82.09 1424.91 81.628 1424.35 81.32C1423.79 81.012 1423.19 80.858 1422.55 80.858C1421.9 80.858 1421.3 81.012 1420.74 81.32C1420.2 81.628 1419.77 82.09 1419.45 82.706C1419.12 83.3073 1418.96 84.048 1418.96 84.928C1418.96 86.2333 1419.29 87.2453 1419.95 87.964C1420.63 88.668 1421.47 89.02 1422.48 89.02ZM1434.4 75.71L1434.11 86.38H1432.02L1431.74 75.71H1434.4ZM1433.15 91.154C1432.69 91.154 1432.31 91 1432 90.692C1431.69 90.384 1431.54 90.0027 1431.54 89.548C1431.54 89.0933 1431.69 88.712 1432 88.404C1432.31 88.096 1432.69 87.942 1433.15 87.942C1433.59 87.942 1433.96 88.096 1434.27 88.404C1434.58 88.712 1434.73 89.0933 1434.73 89.548C1434.73 90.0027 1434.58 90.384 1434.27 90.692C1433.96 91 1433.59 91.154 1433.15 91.154ZM1446.54 75.71V91H1444.04V75.71H1446.54ZM1450.23 75.71H1452.96L1450.65 80.946H1448.89L1450.23 75.71ZM1469.84 78.68C1470.79 78.68 1471.64 78.878 1472.39 79.274C1473.15 79.67 1473.75 80.2567 1474.17 81.034C1474.61 81.8113 1474.83 82.75 1474.83 83.85V91H1472.35V84.224C1472.35 83.1387 1472.08 82.31 1471.53 81.738C1470.99 81.1513 1470.25 80.858 1469.31 80.858C1468.37 80.858 1467.62 81.1513 1467.07 81.738C1466.52 82.31 1466.25 83.1387 1466.25 84.224V91H1463.77V84.224C1463.77 83.1387 1463.5 82.31 1462.95 81.738C1462.41 81.1513 1461.67 80.858 1460.73 80.858C1459.79 80.858 1459.04 81.1513 1458.49 81.738C1457.94 82.31 1457.67 83.1387 1457.67 84.224V91H1455.17V78.878H1457.67V80.264C1458.08 79.7653 1458.6 79.3767 1459.24 79.098C1459.87 78.8193 1460.54 78.68 1461.26 78.68C1462.23 78.68 1463.09 78.8853 1463.86 79.296C1464.62 79.7067 1465.2 80.3007 1465.62 81.078C1465.98 80.3447 1466.55 79.7653 1467.33 79.34C1468.11 78.9 1468.94 78.68 1469.84 78.68ZM1482.9 84.884C1482.9 83.6667 1483.15 82.5887 1483.65 81.65C1484.17 80.7113 1484.85 79.9853 1485.72 79.472C1486.6 78.944 1487.57 78.68 1488.62 78.68C1489.58 78.68 1490.41 78.8707 1491.11 79.252C1491.83 79.6187 1492.4 80.0807 1492.83 80.638V78.878H1495.36V91H1492.83V89.196C1492.4 89.768 1491.82 90.2447 1491.09 90.626C1490.35 91.0073 1489.52 91.198 1488.58 91.198C1487.54 91.198 1486.59 90.934 1485.72 90.406C1484.85 89.8633 1484.17 89.1153 1483.65 88.162C1483.15 87.194 1482.9 86.1013 1482.9 84.884ZM1492.83 84.928C1492.83 84.092 1492.65 83.366 1492.3 82.75C1491.96 82.134 1491.51 81.6647 1490.96 81.342C1490.4 81.0193 1489.8 80.858 1489.15 80.858C1488.51 80.858 1487.91 81.0193 1487.35 81.342C1486.79 81.65 1486.34 82.112 1485.98 82.728C1485.65 83.3293 1485.48 84.048 1485.48 84.884C1485.48 85.72 1485.65 86.4533 1485.98 87.084C1486.34 87.7147 1486.79 88.1987 1487.35 88.536C1487.92 88.8587 1488.52 89.02 1489.15 89.02C1489.8 89.02 1490.4 88.8587 1490.96 88.536C1491.51 88.2133 1491.96 87.744 1492.3 87.128C1492.65 86.4973 1492.83 85.764 1492.83 84.928Z" fill="#BABABA"/>
<path d="M565.865 121.308V159H558.305V134.484L548.207 159H542.483L532.331 134.484V159H524.771V121.308H533.357L545.345 149.334L557.333 121.308H565.865ZM601.581 129.084V159H593.967V155.22C592.995 156.516 591.717 157.542 590.133 158.298C588.585 159.018 586.893 159.378 585.057 159.378C582.717 159.378 580.647 158.892 578.847 157.92C577.047 156.912 575.625 155.454 574.581 153.546C573.573 151.602 573.069 149.298 573.069 146.634V129.084H580.629V145.554C580.629 147.93 581.223 149.766 582.411 151.062C583.599 152.322 585.219 152.952 587.271 152.952C589.359 152.952 590.997 152.322 592.185 151.062C593.373 149.766 593.967 147.93 593.967 145.554V129.084H601.581ZM625.888 128.652C628.156 128.652 630.172 129.156 631.936 130.164C633.7 131.136 635.068 132.594 636.04 134.538C637.048 136.446 637.552 138.75 637.552 141.45V159H629.992V142.476C629.992 140.1 629.398 138.282 628.21 137.022C627.022 135.726 625.402 135.078 623.35 135.078C621.262 135.078 619.606 135.726 618.382 137.022C617.194 138.282 616.6 140.1 616.6 142.476V159H609.04V119.04H616.6V132.81C617.572 131.514 618.868 130.506 620.488 129.786C622.108 129.03 623.908 128.652 625.888 128.652ZM642.798 143.934C642.798 140.91 643.392 138.228 644.58 135.888C645.804 133.548 647.442 131.748 649.494 130.488C651.582 129.228 653.904 128.598 656.46 128.598C658.692 128.598 660.636 129.048 662.292 129.948C663.984 130.848 665.334 131.982 666.342 133.35V129.084H673.956V159H666.342V154.626C665.37 156.03 664.02 157.2 662.292 158.136C660.6 159.036 658.638 159.486 656.406 159.486C653.886 159.486 651.582 158.838 649.494 157.542C647.442 156.246 645.804 154.428 644.58 152.088C643.392 149.712 642.798 146.994 642.798 143.934ZM666.342 144.042C666.342 142.206 665.982 140.64 665.262 139.344C664.542 138.012 663.57 137.004 662.346 136.32C661.122 135.6 659.808 135.24 658.404 135.24C657 135.24 655.704 135.582 654.516 136.266C653.328 136.95 652.356 137.958 651.6 139.29C650.88 140.586 650.52 142.134 650.52 143.934C650.52 145.734 650.88 147.318 651.6 148.686C652.356 150.018 653.328 151.044 654.516 151.764C655.74 152.484 657.036 152.844 658.404 152.844C659.808 152.844 661.122 152.502 662.346 151.818C663.57 151.098 664.542 150.09 665.262 148.794C665.982 147.462 666.342 145.878 666.342 144.042ZM718.491 128.652C722.163 128.652 725.115 129.786 727.347 132.054C729.615 134.286 730.749 137.418 730.749 141.45V159H723.189V142.476C723.189 140.136 722.595 138.354 721.407 137.13C720.219 135.87 718.599 135.24 716.547 135.24C714.495 135.24 712.857 135.87 711.633 137.13C710.445 138.354 709.851 140.136 709.851 142.476V159H702.291V142.476C702.291 140.136 701.697 138.354 700.509 137.13C699.321 135.87 697.701 135.24 695.649 135.24C693.561 135.24 691.905 135.87 690.681 137.13C689.493 138.354 688.899 140.136 688.899 142.476V159H681.339V129.084H688.899V132.702C689.871 131.442 691.113 130.452 692.625 129.732C694.173 129.012 695.865 128.652 697.701 128.652C700.041 128.652 702.129 129.156 703.965 130.164C705.801 131.136 707.223 132.54 708.231 134.376C709.203 132.648 710.607 131.262 712.443 130.218C714.315 129.174 716.331 128.652 718.491 128.652ZM775.075 128.652C778.747 128.652 781.699 129.786 783.931 132.054C786.199 134.286 787.333 137.418 787.333 141.45V159H779.773V142.476C779.773 140.136 779.179 138.354 777.991 137.13C776.803 135.87 775.183 135.24 773.131 135.24C771.079 135.24 769.441 135.87 768.217 137.13C767.029 138.354 766.435 140.136 766.435 142.476V159H758.875V142.476C758.875 140.136 758.281 138.354 757.093 137.13C755.905 135.87 754.285 135.24 752.233 135.24C750.145 135.24 748.489 135.87 747.265 137.13C746.077 138.354 745.483 140.136 745.483 142.476V159H737.923V129.084H745.483V132.702C746.455 131.442 747.697 130.452 749.209 129.732C750.757 129.012 752.449 128.652 754.285 128.652C756.625 128.652 758.713 129.156 760.549 130.164C762.385 131.136 763.807 132.54 764.815 134.376C765.787 132.648 767.191 131.262 769.027 130.218C770.899 129.174 772.915 128.652 775.075 128.652ZM792.563 143.934C792.563 140.91 793.157 138.228 794.345 135.888C795.569 133.548 797.207 131.748 799.259 130.488C801.347 129.228 803.669 128.598 806.225 128.598C808.457 128.598 810.401 129.048 812.057 129.948C813.749 130.848 815.099 131.982 816.107 133.35V129.084H823.721V159H816.107V154.626C815.135 156.03 813.785 157.2 812.057 158.136C810.365 159.036 808.403 159.486 806.171 159.486C803.651 159.486 801.347 158.838 799.259 157.542C797.207 156.246 795.569 154.428 794.345 152.088C793.157 149.712 792.563 146.994 792.563 143.934ZM816.107 144.042C816.107 142.206 815.747 140.64 815.027 139.344C814.307 138.012 813.335 137.004 812.111 136.32C810.887 135.6 809.573 135.24 808.169 135.24C806.765 135.24 805.469 135.582 804.281 136.266C803.093 136.95 802.121 137.958 801.365 139.29C800.645 140.586 800.285 142.134 800.285 143.934C800.285 145.734 800.645 147.318 801.365 148.686C802.121 150.018 803.093 151.044 804.281 151.764C805.505 152.484 806.801 152.844 808.169 152.844C809.573 152.844 810.887 152.502 812.111 151.818C813.335 151.098 814.307 150.09 815.027 148.794C815.747 147.462 816.107 145.878 816.107 144.042ZM829.161 143.934C829.161 140.91 829.755 138.228 830.943 135.888C832.167 133.548 833.823 131.748 835.911 130.488C837.999 129.228 840.321 128.598 842.877 128.598C844.821 128.598 846.675 129.03 848.439 129.894C850.203 130.722 851.607 131.838 852.651 133.242V119.04H860.319V159H852.651V154.572C851.715 156.048 850.401 157.236 848.709 158.136C847.017 159.036 845.055 159.486 842.823 159.486C840.303 159.486 837.999 158.838 835.911 157.542C833.823 156.246 832.167 154.428 830.943 152.088C829.755 149.712 829.161 146.994 829.161 143.934ZM852.705 144.042C852.705 142.206 852.345 140.64 851.625 139.344C850.905 138.012 849.933 137.004 848.709 136.32C847.485 135.6 846.171 135.24 844.767 135.24C843.363 135.24 842.067 135.582 840.879 136.266C839.691 136.95 838.719 137.958 837.963 139.29C837.243 140.586 836.883 142.134 836.883 143.934C836.883 145.734 837.243 147.318 837.963 148.686C838.719 150.018 839.691 151.044 840.879 151.764C842.103 152.484 843.399 152.844 844.767 152.844C846.171 152.844 847.485 152.502 848.709 151.818C849.933 151.098 850.905 150.09 851.625 148.794C852.345 147.462 852.705 145.878 852.705 144.042ZM893.584 159.378C890.956 159.378 888.58 158.928 886.456 158.028C884.368 157.128 882.712 155.832 881.488 154.14C880.264 152.448 879.634 150.45 879.598 148.146H887.698C887.806 149.694 888.346 150.918 889.318 151.818C890.326 152.718 891.694 153.168 893.422 153.168C895.186 153.168 896.572 152.754 897.58 151.926C898.588 151.062 899.092 149.946 899.092 148.578C899.092 147.462 898.75 146.544 898.066 145.824C897.382 145.104 896.518 144.546 895.474 144.15C894.466 143.718 893.062 143.25 891.262 142.746C888.814 142.026 886.816 141.324 885.268 140.64C883.756 139.92 882.442 138.858 881.326 137.454C880.246 136.014 879.706 134.106 879.706 131.73C879.706 129.498 880.264 127.554 881.38 125.898C882.496 124.242 884.062 122.982 886.078 122.118C888.094 121.218 890.398 120.768 892.99 120.768C896.878 120.768 900.028 121.722 902.44 123.63C904.888 125.502 906.238 128.13 906.49 131.514H898.174C898.102 130.218 897.544 129.156 896.5 128.328C895.492 127.464 894.142 127.032 892.45 127.032C890.974 127.032 889.786 127.41 888.886 128.166C888.022 128.922 887.59 130.02 887.59 131.46C887.59 132.468 887.914 133.314 888.562 133.998C889.246 134.646 890.074 135.186 891.046 135.618C892.054 136.014 893.458 136.482 895.258 137.022C897.706 137.742 899.704 138.462 901.252 139.182C902.8 139.902 904.132 140.982 905.248 142.422C906.364 143.862 906.922 145.752 906.922 148.092C906.922 150.108 906.4 151.98 905.356 153.708C904.312 155.436 902.782 156.822 900.766 157.866C898.75 158.874 896.356 159.378 893.584 159.378ZM930.324 128.652C932.592 128.652 934.608 129.156 936.372 130.164C938.136 131.136 939.504 132.594 940.476 134.538C941.484 136.446 941.988 138.75 941.988 141.45V159H934.428V142.476C934.428 140.1 933.834 138.282 932.646 137.022C931.458 135.726 929.838 135.078 927.786 135.078C925.698 135.078 924.042 135.726 922.818 137.022C921.63 138.282 921.036 140.1 921.036 142.476V159H913.476V119.04H921.036V132.81C922.008 131.514 923.304 130.506 924.924 129.786C926.544 129.03 928.344 128.652 930.324 128.652ZM947.233 143.934C947.233 140.91 947.827 138.228 949.015 135.888C950.239 133.548 951.877 131.748 953.929 130.488C956.017 129.228 958.339 128.598 960.895 128.598C963.127 128.598 965.071 129.048 966.727 129.948C968.419 130.848 969.769 131.982 970.777 133.35V129.084H978.391V159H970.777V154.626C969.805 156.03 968.455 157.2 966.727 158.136C965.035 159.036 963.073 159.486 960.841 159.486C958.321 159.486 956.017 158.838 953.929 157.542C951.877 156.246 950.239 154.428 949.015 152.088C947.827 149.712 947.233 146.994 947.233 143.934ZM970.777 144.042C970.777 142.206 970.417 140.64 969.697 139.344C968.977 138.012 968.005 137.004 966.781 136.32C965.557 135.6 964.243 135.24 962.839 135.24C961.435 135.24 960.139 135.582 958.951 136.266C957.763 136.95 956.791 137.958 956.035 139.29C955.315 140.586 954.955 142.134 954.955 143.934C954.955 145.734 955.315 147.318 956.035 148.686C956.791 150.018 957.763 151.044 958.951 151.764C960.175 152.484 961.471 152.844 962.839 152.844C964.243 152.844 965.557 152.502 966.781 151.818C968.005 151.098 968.977 150.09 969.697 148.794C970.417 147.462 970.777 145.878 970.777 144.042ZM993.335 119.04V159H985.775V119.04H993.335ZM998.86 143.934C998.86 140.91 999.454 138.228 1000.64 135.888C1001.87 133.548 1003.5 131.748 1005.56 130.488C1007.64 129.228 1009.97 128.598 1012.52 128.598C1014.75 128.598 1016.7 129.048 1018.35 129.948C1020.05 130.848 1021.4 131.982 1022.4 133.35V129.084H1030.02V159H1022.4V154.626C1021.43 156.03 1020.08 157.2 1018.35 158.136C1016.66 159.036 1014.7 159.486 1012.47 159.486C1009.95 159.486 1007.64 158.838 1005.56 157.542C1003.5 156.246 1001.87 154.428 1000.64 152.088C999.454 149.712 998.86 146.994 998.86 143.934ZM1022.4 144.042C1022.4 142.206 1022.04 140.64 1021.32 139.344C1020.6 138.012 1019.63 137.004 1018.41 136.32C1017.18 135.6 1015.87 135.24 1014.47 135.24C1013.06 135.24 1011.77 135.582 1010.58 136.266C1009.39 136.95 1008.42 137.958 1007.66 139.29C1006.94 140.586 1006.58 142.134 1006.58 143.934C1006.58 145.734 1006.94 147.318 1007.66 148.686C1008.42 150.018 1009.39 151.044 1010.58 151.764C1011.8 152.484 1013.1 152.844 1014.47 152.844C1015.87 152.844 1017.18 152.502 1018.41 151.818C1019.63 151.098 1020.6 150.09 1021.32 148.794C1022.04 147.462 1022.4 145.878 1022.4 144.042ZM1054.25 128.652C1056.52 128.652 1058.53 129.156 1060.3 130.164C1062.06 131.136 1063.43 132.594 1064.4 134.538C1065.41 136.446 1065.91 138.75 1065.91 141.45V159H1058.35V142.476C1058.35 140.1 1057.76 138.282 1056.57 137.022C1055.38 135.726 1053.76 135.078 1051.71 135.078C1049.62 135.078 1047.97 135.726 1046.74 137.022C1045.56 138.282 1044.96 140.1 1044.96 142.476V159H1037.4V119.04H1044.96V132.81C1045.93 131.514 1047.23 130.506 1048.85 129.786C1050.47 129.03 1052.27 128.652 1054.25 128.652ZM1101.34 129.084V159H1093.73V155.22C1092.76 156.516 1091.48 157.542 1089.9 158.298C1088.35 159.018 1086.66 159.378 1084.82 159.378C1082.48 159.378 1080.41 158.892 1078.61 157.92C1076.81 156.912 1075.39 155.454 1074.34 153.546C1073.34 151.602 1072.83 149.298 1072.83 146.634V129.084H1080.39V145.554C1080.39 147.93 1080.99 149.766 1082.17 151.062C1083.36 152.322 1084.98 152.952 1087.03 152.952C1089.12 152.952 1090.76 152.322 1091.95 151.062C1093.14 149.766 1093.73 147.93 1093.73 145.554V129.084H1101.34ZM1106.86 143.934C1106.86 140.91 1107.45 138.228 1108.64 135.888C1109.87 133.548 1111.52 131.748 1113.61 130.488C1115.7 129.228 1118.02 128.598 1120.58 128.598C1122.52 128.598 1124.37 129.03 1126.14 129.894C1127.9 130.722 1129.31 131.838 1130.35 133.242V119.04H1138.02V159H1130.35V154.572C1129.41 156.048 1128.1 157.236 1126.41 158.136C1124.72 159.036 1122.75 159.486 1120.52 159.486C1118 159.486 1115.7 158.838 1113.61 157.542C1111.52 156.246 1109.87 154.428 1108.64 152.088C1107.45 149.712 1106.86 146.994 1106.86 143.934ZM1130.4 144.042C1130.4 142.206 1130.04 140.64 1129.32 139.344C1128.6 138.012 1127.63 137.004 1126.41 136.32C1125.18 135.6 1123.87 135.24 1122.47 135.24C1121.06 135.24 1119.77 135.582 1118.58 136.266C1117.39 136.95 1116.42 137.958 1115.66 139.29C1114.94 140.586 1114.58 142.134 1114.58 143.934C1114.58 145.734 1114.94 147.318 1115.66 148.686C1116.42 150.018 1117.39 151.044 1118.58 151.764C1119.8 152.484 1121.1 152.844 1122.47 152.844C1123.87 152.844 1125.18 152.502 1126.41 151.818C1127.63 151.098 1128.6 150.09 1129.32 148.794C1130.04 147.462 1130.4 145.878 1130.4 144.042ZM1143.46 143.934C1143.46 140.91 1144.05 138.228 1145.24 135.888C1146.46 133.548 1148.12 131.748 1150.21 130.488C1152.3 129.228 1154.62 128.598 1157.17 128.598C1159.12 128.598 1160.97 129.03 1162.74 129.894C1164.5 130.722 1165.9 131.838 1166.95 133.242V119.04H1174.62V159H1166.95V154.572C1166.01 156.048 1164.7 157.236 1163.01 158.136C1161.31 159.036 1159.35 159.486 1157.12 159.486C1154.6 159.486 1152.3 158.838 1150.21 157.542C1148.12 156.246 1146.46 154.428 1145.24 152.088C1144.05 149.712 1143.46 146.994 1143.46 143.934ZM1167 144.042C1167 142.206 1166.64 140.64 1165.92 139.344C1165.2 138.012 1164.23 137.004 1163.01 136.32C1161.78 135.6 1160.47 135.24 1159.06 135.24C1157.66 135.24 1156.36 135.582 1155.18 136.266C1153.99 136.95 1153.02 137.958 1152.26 139.29C1151.54 140.586 1151.18 142.134 1151.18 143.934C1151.18 145.734 1151.54 147.318 1152.26 148.686C1153.02 150.018 1153.99 151.044 1155.18 151.764C1156.4 152.484 1157.7 152.844 1159.06 152.844C1160.47 152.844 1161.78 152.502 1163.01 151.818C1164.23 151.098 1165.2 150.09 1165.92 148.794C1166.64 147.462 1167 145.878 1167 144.042ZM1185.83 125.52C1184.5 125.52 1183.39 125.106 1182.49 124.278C1181.62 123.414 1181.19 122.352 1181.19 121.092C1181.19 119.832 1181.62 118.788 1182.49 117.96C1183.39 117.096 1184.5 116.664 1185.83 116.664C1187.17 116.664 1188.26 117.096 1189.13 117.96C1190.03 118.788 1190.48 119.832 1190.48 121.092C1190.48 122.352 1190.03 123.414 1189.13 124.278C1188.26 125.106 1187.17 125.52 1185.83 125.52ZM1189.56 129.084V159H1182V129.084H1189.56ZM1213.61 128.652C1217.17 128.652 1220.05 129.786 1222.25 132.054C1224.44 134.286 1225.54 137.418 1225.54 141.45V159H1217.98V142.476C1217.98 140.1 1217.39 138.282 1216.2 137.022C1215.01 135.726 1213.39 135.078 1211.34 135.078C1209.25 135.078 1207.59 135.726 1206.37 137.022C1205.18 138.282 1204.59 140.1 1204.59 142.476V159H1197.03V129.084H1204.59V132.81C1205.6 131.514 1206.87 130.506 1208.42 129.786C1210.01 129.03 1211.73 128.652 1213.61 128.652ZM1268.71 151.818H1253.7L1251.21 159H1243.28L1256.83 121.254H1265.63L1279.19 159H1271.19L1268.71 151.818ZM1266.66 145.77L1261.2 130.002L1255.75 145.77H1266.66ZM1321.4 128.652C1325.08 128.652 1328.03 129.786 1330.26 132.054C1332.53 134.286 1333.66 137.418 1333.66 141.45V159H1326.1V142.476C1326.1 140.136 1325.51 138.354 1324.32 137.13C1323.13 135.87 1321.51 135.24 1319.46 135.24C1317.41 135.24 1315.77 135.87 1314.55 137.13C1313.36 138.354 1312.76 140.136 1312.76 142.476V159H1305.2V142.476C1305.2 140.136 1304.61 138.354 1303.42 137.13C1302.23 135.87 1300.61 135.24 1298.56 135.24C1296.47 135.24 1294.82 135.87 1293.59 137.13C1292.41 138.354 1291.81 140.136 1291.81 142.476V159H1284.25V129.084H1291.81V132.702C1292.78 131.442 1294.03 130.452 1295.54 129.732C1297.09 129.012 1298.78 128.652 1300.61 128.652C1302.95 128.652 1305.04 129.156 1306.88 130.164C1308.71 131.136 1310.14 132.54 1311.14 134.376C1312.12 132.648 1313.52 131.262 1315.36 130.218C1317.23 129.174 1319.24 128.652 1321.4 128.652ZM1348.4 133.728C1349.37 132.144 1350.63 130.902 1352.18 130.002C1353.76 129.102 1355.56 128.652 1357.58 128.652V136.59H1355.58C1353.2 136.59 1351.4 137.148 1350.18 138.264C1348.99 139.38 1348.4 141.324 1348.4 144.096V159H1340.84V129.084H1348.4V133.728ZM1390.91 129.084V159H1383.3V155.22C1382.32 156.516 1381.05 157.542 1379.46 158.298C1377.91 159.018 1376.22 159.378 1374.39 159.378C1372.05 159.378 1369.98 158.892 1368.18 157.92C1366.38 156.912 1364.95 155.454 1363.91 153.546C1362.9 151.602 1362.4 149.298 1362.4 146.634V129.084H1369.96V145.554C1369.96 147.93 1370.55 149.766 1371.74 151.062C1372.93 152.322 1374.55 152.952 1376.6 152.952C1378.69 152.952 1380.33 152.322 1381.51 151.062C1382.7 149.766 1383.3 147.93 1383.3 145.554V129.084H1390.91ZM1405.93 119.04V159H1398.37V119.04H1405.93ZM1420.96 119.04V159H1413.4V119.04H1420.96ZM1426.48 143.934C1426.48 140.91 1427.08 138.228 1428.27 135.888C1429.49 133.548 1431.13 131.748 1433.18 130.488C1435.27 129.228 1437.59 128.598 1440.15 128.598C1442.38 128.598 1444.32 129.048 1445.98 129.948C1447.67 130.848 1449.02 131.982 1450.03 133.35V129.084H1457.64V159H1450.03V154.626C1449.06 156.03 1447.71 157.2 1445.98 158.136C1444.29 159.036 1442.32 159.486 1440.09 159.486C1437.57 159.486 1435.27 158.838 1433.18 157.542C1431.13 156.246 1429.49 154.428 1428.27 152.088C1427.08 149.712 1426.48 146.994 1426.48 143.934ZM1450.03 144.042C1450.03 142.206 1449.67 140.64 1448.95 139.344C1448.23 138.012 1447.26 137.004 1446.03 136.32C1444.81 135.6 1443.49 135.24 1442.09 135.24C1440.69 135.24 1439.39 135.582 1438.2 136.266C1437.01 136.95 1436.04 137.958 1435.29 139.29C1434.57 140.586 1434.21 142.134 1434.21 143.934C1434.21 145.734 1434.57 147.318 1435.29 148.686C1436.04 150.018 1437.01 151.044 1438.2 151.764C1439.43 152.484 1440.72 152.844 1442.09 152.844C1443.49 152.844 1444.81 152.502 1446.03 151.818C1447.26 151.098 1448.23 150.09 1448.95 148.794C1449.67 147.462 1450.03 145.878 1450.03 144.042ZM1481.87 128.652C1484.14 128.652 1486.16 129.156 1487.92 130.164C1489.68 131.136 1491.05 132.594 1492.02 134.538C1493.03 136.446 1493.54 138.75 1493.54 141.45V159H1485.98V142.476C1485.98 140.1 1485.38 138.282 1484.19 137.022C1483.01 135.726 1481.39 135.078 1479.33 135.078C1477.25 135.078 1475.59 135.726 1474.37 137.022C1473.18 138.282 1472.58 140.1 1472.58 142.476V159H1465.02V119.04H1472.58V132.81C1473.56 131.514 1474.85 130.506 1476.47 129.786C1478.09 129.03 1479.89 128.652 1481.87 128.652Z" fill="white"/>
<path d="M657.108 192.54L651.34 212H647.728L643.64 197.272L639.3 212L635.716 212.028L630.2 192.54H633.588L637.62 208.388L641.988 192.54H645.572L649.632 208.304L653.692 192.54H657.108ZM673.881 203.908C673.881 204.487 673.843 205.009 673.769 205.476H661.981C662.074 206.708 662.531 207.697 663.353 208.444C664.174 209.191 665.182 209.564 666.377 209.564C668.094 209.564 669.307 208.845 670.017 207.408H673.461C672.994 208.827 672.145 209.993 670.913 210.908C669.699 211.804 668.187 212.252 666.377 212.252C664.902 212.252 663.577 211.925 662.401 211.272C661.243 210.6 660.329 209.667 659.657 208.472C659.003 207.259 658.677 205.859 658.677 204.272C658.677 202.685 658.994 201.295 659.629 200.1C660.282 198.887 661.187 197.953 662.345 197.3C663.521 196.647 664.865 196.32 666.377 196.32C667.833 196.32 669.13 196.637 670.269 197.272C671.407 197.907 672.294 198.803 672.929 199.96C673.563 201.099 673.881 202.415 673.881 203.908ZM670.549 202.9C670.53 201.724 670.11 200.781 669.289 200.072C668.467 199.363 667.45 199.008 666.237 199.008C665.135 199.008 664.193 199.363 663.409 200.072C662.625 200.763 662.158 201.705 662.009 202.9H670.549ZM680.214 198.868C680.755 198.121 681.493 197.515 682.426 197.048C683.378 196.563 684.433 196.32 685.59 196.32C686.953 196.32 688.185 196.647 689.286 197.3C690.387 197.953 691.255 198.887 691.89 200.1C692.525 201.295 692.842 202.667 692.842 204.216C692.842 205.765 692.525 207.156 691.89 208.388C691.255 209.601 690.378 210.553 689.258 211.244C688.157 211.916 686.934 212.252 685.59 212.252C684.395 212.252 683.331 212.019 682.398 211.552C681.483 211.085 680.755 210.488 680.214 209.76V212H677.022V191.28H680.214V198.868ZM689.594 204.216C689.594 203.152 689.37 202.237 688.922 201.472C688.493 200.688 687.914 200.1 687.186 199.708C686.477 199.297 685.711 199.092 684.89 199.092C684.087 199.092 683.322 199.297 682.594 199.708C681.885 200.119 681.306 200.716 680.858 201.5C680.429 202.284 680.214 203.208 680.214 204.272C680.214 205.336 680.429 206.269 680.858 207.072C681.306 207.856 681.885 208.453 682.594 208.864C683.322 209.275 684.087 209.48 684.89 209.48C685.711 209.48 686.477 209.275 687.186 208.864C687.914 208.435 688.493 207.819 688.922 207.016C689.37 206.213 689.594 205.28 689.594 204.216ZM701.598 212.252C700.385 212.252 699.293 212.037 698.322 211.608C697.37 211.16 696.614 210.563 696.054 209.816C695.494 209.051 695.196 208.201 695.158 207.268H698.462C698.518 207.921 698.826 208.472 699.386 208.92C699.965 209.349 700.684 209.564 701.542 209.564C702.438 209.564 703.129 209.396 703.614 209.06C704.118 208.705 704.37 208.257 704.37 207.716C704.37 207.137 704.09 206.708 703.53 206.428C702.989 206.148 702.121 205.84 700.926 205.504C699.769 205.187 698.826 204.879 698.098 204.58C697.37 204.281 696.736 203.824 696.194 203.208C695.672 202.592 695.41 201.78 695.41 200.772C695.41 199.951 695.653 199.204 696.138 198.532C696.624 197.841 697.314 197.3 698.21 196.908C699.125 196.516 700.17 196.32 701.346 196.32C703.101 196.32 704.51 196.768 705.574 197.664C706.657 198.541 707.236 199.745 707.31 201.276H704.118C704.062 200.585 703.782 200.035 703.278 199.624C702.774 199.213 702.093 199.008 701.234 199.008C700.394 199.008 699.75 199.167 699.302 199.484C698.854 199.801 698.63 200.221 698.63 200.744C698.63 201.155 698.78 201.5 699.078 201.78C699.377 202.06 699.741 202.284 700.17 202.452C700.6 202.601 701.234 202.797 702.074 203.04C703.194 203.339 704.109 203.647 704.818 203.964C705.546 204.263 706.172 204.711 706.694 205.308C707.217 205.905 707.488 206.699 707.506 207.688C707.506 208.565 707.264 209.349 706.778 210.04C706.293 210.731 705.602 211.272 704.706 211.664C703.829 212.056 702.793 212.252 701.598 212.252ZM712.579 194.528C712.001 194.528 711.515 194.332 711.123 193.94C710.731 193.548 710.535 193.063 710.535 192.484C710.535 191.905 710.731 191.42 711.123 191.028C711.515 190.636 712.001 190.44 712.579 190.44C713.139 190.44 713.615 190.636 714.007 191.028C714.399 191.42 714.595 191.905 714.595 192.484C714.595 193.063 714.399 193.548 714.007 193.94C713.615 194.332 713.139 194.528 712.579 194.528ZM714.147 196.572V212H710.955V196.572H714.147ZM722.062 199.176V207.716C722.062 208.295 722.193 208.715 722.454 208.976C722.734 209.219 723.201 209.34 723.854 209.34H725.814V212H723.294C721.857 212 720.756 211.664 719.99 210.992C719.225 210.32 718.842 209.228 718.842 207.716V199.176H717.022V196.572H718.842V192.736H722.062V196.572H725.814V199.176H722.062ZM742.896 203.908C742.896 204.487 742.859 205.009 742.784 205.476H730.996C731.09 206.708 731.547 207.697 732.368 208.444C733.19 209.191 734.198 209.564 735.392 209.564C737.11 209.564 738.323 208.845 739.032 207.408H742.476C742.01 208.827 741.16 209.993 739.928 210.908C738.715 211.804 737.203 212.252 735.392 212.252C733.918 212.252 732.592 211.925 731.416 211.272C730.259 210.6 729.344 209.667 728.672 208.472C728.019 207.259 727.692 205.859 727.692 204.272C727.692 202.685 728.01 201.295 728.644 200.1C729.298 198.887 730.203 197.953 731.36 197.3C732.536 196.647 733.88 196.32 735.392 196.32C736.848 196.32 738.146 196.637 739.284 197.272C740.423 197.907 741.31 198.803 741.944 199.96C742.579 201.099 742.896 202.415 742.896 203.908ZM739.564 202.9C739.546 201.724 739.126 200.781 738.304 200.072C737.483 199.363 736.466 199.008 735.252 199.008C734.151 199.008 733.208 199.363 732.424 200.072C731.64 200.763 731.174 201.705 731.024 202.9H739.564ZM759.667 192.54C761.739 192.54 763.55 192.941 765.099 193.744C766.667 194.528 767.871 195.667 768.711 197.16C769.57 198.635 769.999 200.361 769.999 202.34C769.999 204.319 769.57 206.036 768.711 207.492C767.871 208.948 766.667 210.068 765.099 210.852C763.55 211.617 761.739 212 759.667 212H753.311V192.54H759.667ZM759.667 209.396C761.944 209.396 763.69 208.78 764.903 207.548C766.116 206.316 766.723 204.58 766.723 202.34C766.723 200.081 766.116 198.317 764.903 197.048C763.69 195.779 761.944 195.144 759.667 195.144H756.503V209.396H759.667ZM787.303 203.908C787.303 204.487 787.265 205.009 787.191 205.476H775.403C775.496 206.708 775.953 207.697 776.775 208.444C777.596 209.191 778.604 209.564 779.799 209.564C781.516 209.564 782.729 208.845 783.439 207.408H786.882C786.416 208.827 785.567 209.993 784.335 210.908C783.121 211.804 781.609 212.252 779.799 212.252C778.324 212.252 776.999 211.925 775.823 211.272C774.665 210.6 773.751 209.667 773.079 208.472C772.425 207.259 772.099 205.859 772.099 204.272C772.099 202.685 772.416 201.295 773.051 200.1C773.704 198.887 774.609 197.953 775.767 197.3C776.943 196.647 778.287 196.32 779.799 196.32C781.255 196.32 782.552 196.637 783.691 197.272C784.829 197.907 785.716 198.803 786.351 199.96C786.985 201.099 787.303 202.415 787.303 203.908ZM783.971 202.9C783.952 201.724 783.532 200.781 782.711 200.072C781.889 199.363 780.872 199.008 779.659 199.008C778.557 199.008 777.615 199.363 776.831 200.072C776.047 200.763 775.58 201.705 775.431 202.9H783.971ZM796.408 209.144L800.776 196.572H804.164L798.284 212H794.476L788.624 196.572H792.04L796.408 209.144ZM820.717 203.908C820.717 204.487 820.679 205.009 820.605 205.476H808.817C808.91 206.708 809.367 207.697 810.189 208.444C811.01 209.191 812.018 209.564 813.213 209.564C814.93 209.564 816.143 208.845 816.853 207.408H820.297C819.83 208.827 818.981 209.993 817.749 210.908C816.535 211.804 815.023 212.252 813.213 212.252C811.738 212.252 810.413 211.925 809.237 211.272C808.079 210.6 807.165 209.667 806.493 208.472C805.839 207.259 805.513 205.859 805.513 204.272C805.513 202.685 805.83 201.295 806.465 200.1C807.118 198.887 808.023 197.953 809.181 197.3C810.357 196.647 811.701 196.32 813.213 196.32C814.669 196.32 815.966 196.637 817.105 197.272C818.243 197.907 819.13 198.803 819.765 199.96C820.399 201.099 820.717 202.415 820.717 203.908ZM817.385 202.9C817.366 201.724 816.946 200.781 816.125 200.072C815.303 199.363 814.286 199.008 813.073 199.008C811.971 199.008 811.029 199.363 810.245 200.072C809.461 200.763 808.994 201.705 808.845 202.9H817.385ZM827.05 191.28V212H823.858V191.28H827.05ZM837.933 212.252C836.477 212.252 835.161 211.925 833.985 211.272C832.809 210.6 831.885 209.667 831.213 208.472C830.541 207.259 830.205 205.859 830.205 204.272C830.205 202.704 830.55 201.313 831.241 200.1C831.931 198.887 832.874 197.953 834.069 197.3C835.263 196.647 836.598 196.32 838.073 196.32C839.547 196.32 840.882 196.647 842.077 197.3C843.271 197.953 844.214 198.887 844.905 200.1C845.595 201.313 845.941 202.704 845.941 204.272C845.941 205.84 845.586 207.231 844.877 208.444C844.167 209.657 843.197 210.6 841.965 211.272C840.751 211.925 839.407 212.252 837.933 212.252ZM837.933 209.48C838.754 209.48 839.519 209.284 840.229 208.892C840.957 208.5 841.545 207.912 841.993 207.128C842.441 206.344 842.665 205.392 842.665 204.272C842.665 203.152 842.45 202.209 842.021 201.444C841.591 200.66 841.022 200.072 840.313 199.68C839.603 199.288 838.838 199.092 838.017 199.092C837.195 199.092 836.43 199.288 835.721 199.68C835.03 200.072 834.479 200.66 834.069 201.444C833.658 202.209 833.453 203.152 833.453 204.272C833.453 205.933 833.873 207.221 834.713 208.136C835.571 209.032 836.645 209.48 837.933 209.48ZM852.288 198.84C852.829 198.131 853.567 197.533 854.5 197.048C855.433 196.563 856.488 196.32 857.664 196.32C859.008 196.32 860.231 196.656 861.332 197.328C862.452 197.981 863.329 198.905 863.964 200.1C864.599 201.295 864.916 202.667 864.916 204.216C864.916 205.765 864.599 207.156 863.964 208.388C863.329 209.601 862.452 210.553 861.332 211.244C860.231 211.916 859.008 212.252 857.664 212.252C856.488 212.252 855.443 212.019 854.528 211.552C853.613 211.067 852.867 210.469 852.288 209.76V219.336H849.096V196.572H852.288V198.84ZM861.668 204.216C861.668 203.152 861.444 202.237 860.996 201.472C860.567 200.688 859.988 200.1 859.26 199.708C858.551 199.297 857.785 199.092 856.964 199.092C856.161 199.092 855.396 199.297 854.668 199.708C853.959 200.119 853.38 200.716 852.932 201.5C852.503 202.284 852.288 203.208 852.288 204.272C852.288 205.336 852.503 206.269 852.932 207.072C853.38 207.856 853.959 208.453 854.668 208.864C855.396 209.275 856.161 209.48 856.964 209.48C857.785 209.48 858.551 209.275 859.26 208.864C859.988 208.435 860.567 207.819 860.996 207.016C861.444 206.213 861.668 205.28 861.668 204.216ZM882.213 203.908C882.213 204.487 882.175 205.009 882.101 205.476H870.313C870.406 206.708 870.863 207.697 871.685 208.444C872.506 209.191 873.514 209.564 874.709 209.564C876.426 209.564 877.639 208.845 878.349 207.408H881.793C881.326 208.827 880.477 209.993 879.245 210.908C878.031 211.804 876.519 212.252 874.709 212.252C873.234 212.252 871.909 211.925 870.733 211.272C869.575 210.6 868.661 209.667 867.989 208.472C867.335 207.259 867.009 205.859 867.009 204.272C867.009 202.685 867.326 201.295 867.961 200.1C868.614 198.887 869.519 197.953 870.677 197.3C871.853 196.647 873.197 196.32 874.709 196.32C876.165 196.32 877.462 196.637 878.601 197.272C879.739 197.907 880.626 198.803 881.261 199.96C881.895 201.099 882.213 202.415 882.213 203.908ZM878.881 202.9C878.862 201.724 878.442 200.781 877.621 200.072C876.799 199.363 875.782 199.008 874.569 199.008C873.467 199.008 872.525 199.363 871.741 200.072C870.957 200.763 870.49 201.705 870.341 202.9H878.881ZM888.546 198.812C889.013 198.028 889.629 197.421 890.394 196.992C891.178 196.544 892.102 196.32 893.166 196.32V199.624H892.354C891.103 199.624 890.151 199.941 889.498 200.576C888.863 201.211 888.546 202.312 888.546 203.88V212H885.354V196.572H888.546V198.812Z" fill="white"/>
<path d="M911.054 215.164H907.862V189.572H911.054V215.164Z" fill="#BABABA"/>
<path d="M929.416 192.54V204.944C929.416 206.419 929.799 207.529 930.564 208.276C931.348 209.023 932.431 209.396 933.812 209.396C935.212 209.396 936.295 209.023 937.06 208.276C937.844 207.529 938.236 206.419 938.236 204.944V192.54H941.428V204.888C941.428 206.475 941.083 207.819 940.392 208.92C939.702 210.021 938.778 210.843 937.62 211.384C936.463 211.925 935.184 212.196 933.784 212.196C932.384 212.196 931.106 211.925 929.948 211.384C928.81 210.843 927.904 210.021 927.232 208.92C926.56 207.819 926.224 206.475 926.224 204.888V192.54H929.416ZM948.776 192.54V212H945.584V192.54H948.776ZM963.327 185.568L955.711 216.9H952.575L960.163 185.568H963.327ZM970.514 192.54V204.944C970.514 206.419 970.897 207.529 971.662 208.276C972.446 209.023 973.529 209.396 974.91 209.396C976.31 209.396 977.393 209.023 978.158 208.276C978.942 207.529 979.334 206.419 979.334 204.944V192.54H982.526V204.888C982.526 206.475 982.181 207.819 981.49 208.92C980.799 210.021 979.875 210.843 978.718 211.384C977.561 211.925 976.282 212.196 974.882 212.196C973.482 212.196 972.203 211.925 971.046 211.384C969.907 210.843 969.002 210.021 968.33 208.92C967.658 207.819 967.322 206.475 967.322 204.888V192.54H970.514ZM995.614 202.284L1001.66 212H998.078L993.682 204.944L989.566 212H986.01L992.058 202.284L985.982 192.54H989.566L993.99 199.652L998.134 192.54H1001.69L995.614 202.284ZM1018.8 192.54C1020.87 192.54 1022.68 192.941 1024.23 193.744C1025.8 194.528 1027 195.667 1027.84 197.16C1028.7 198.635 1029.13 200.361 1029.13 202.34C1029.13 204.319 1028.7 206.036 1027.84 207.492C1027 208.948 1025.8 210.068 1024.23 210.852C1022.68 211.617 1020.87 212 1018.8 212H1012.44V192.54H1018.8ZM1018.8 209.396C1021.07 209.396 1022.82 208.78 1024.03 207.548C1025.25 206.316 1025.85 204.58 1025.85 202.34C1025.85 200.081 1025.25 198.317 1024.03 197.048C1022.82 195.779 1021.07 195.144 1018.8 195.144H1015.63V209.396H1018.8ZM1046.43 203.908C1046.43 204.487 1046.39 205.009 1046.32 205.476H1034.53C1034.62 206.708 1035.08 207.697 1035.9 208.444C1036.72 209.191 1037.73 209.564 1038.93 209.564C1040.64 209.564 1041.86 208.845 1042.57 207.408H1046.01C1045.54 208.827 1044.7 209.993 1043.46 210.908C1042.25 211.804 1040.74 212.252 1038.93 212.252C1037.45 212.252 1036.13 211.925 1034.95 211.272C1033.79 210.6 1032.88 209.667 1032.21 208.472C1031.55 207.259 1031.23 205.859 1031.23 204.272C1031.23 202.685 1031.54 201.295 1032.18 200.1C1032.83 198.887 1033.74 197.953 1034.9 197.3C1036.07 196.647 1037.42 196.32 1038.93 196.32C1040.38 196.32 1041.68 196.637 1042.82 197.272C1043.96 197.907 1044.84 198.803 1045.48 199.96C1046.11 201.099 1046.43 202.415 1046.43 203.908ZM1043.1 202.9C1043.08 201.724 1042.66 200.781 1041.84 200.072C1041.02 199.363 1040 199.008 1038.79 199.008C1037.69 199.008 1036.74 199.363 1035.96 200.072C1035.18 200.763 1034.71 201.705 1034.56 202.9H1043.1ZM1055.17 212.252C1053.96 212.252 1052.87 212.037 1051.9 211.608C1050.94 211.16 1050.19 210.563 1049.63 209.816C1049.07 209.051 1048.77 208.201 1048.73 207.268H1052.04C1052.09 207.921 1052.4 208.472 1052.96 208.92C1053.54 209.349 1054.26 209.564 1055.12 209.564C1056.01 209.564 1056.7 209.396 1057.19 209.06C1057.69 208.705 1057.94 208.257 1057.94 207.716C1057.94 207.137 1057.66 206.708 1057.1 206.428C1056.56 206.148 1055.7 205.84 1054.5 205.504C1053.34 205.187 1052.4 204.879 1051.67 204.58C1050.94 204.281 1050.31 203.824 1049.77 203.208C1049.25 202.592 1048.98 201.78 1048.98 200.772C1048.98 199.951 1049.23 199.204 1049.71 198.532C1050.2 197.841 1050.89 197.3 1051.78 196.908C1052.7 196.516 1053.74 196.32 1054.92 196.32C1056.68 196.32 1058.08 196.768 1059.15 197.664C1060.23 198.541 1060.81 199.745 1060.88 201.276H1057.69C1057.64 200.585 1057.36 200.035 1056.85 199.624C1056.35 199.213 1055.67 199.008 1054.81 199.008C1053.97 199.008 1053.32 199.167 1052.88 199.484C1052.43 199.801 1052.2 200.221 1052.2 200.744C1052.2 201.155 1052.35 201.5 1052.65 201.78C1052.95 202.06 1053.32 202.284 1053.74 202.452C1054.17 202.601 1054.81 202.797 1055.65 203.04C1056.77 203.339 1057.68 203.647 1058.39 203.964C1059.12 204.263 1059.75 204.711 1060.27 205.308C1060.79 205.905 1061.06 206.699 1061.08 207.688C1061.08 208.565 1060.84 209.349 1060.35 210.04C1059.87 210.731 1059.18 211.272 1058.28 211.664C1057.4 212.056 1056.37 212.252 1055.17 212.252ZM1066.15 194.528C1065.58 194.528 1065.09 194.332 1064.7 193.94C1064.31 193.548 1064.11 193.063 1064.11 192.484C1064.11 191.905 1064.31 191.42 1064.7 191.028C1065.09 190.636 1065.58 190.44 1066.15 190.44C1066.71 190.44 1067.19 190.636 1067.58 191.028C1067.97 191.42 1068.17 191.905 1068.17 192.484C1068.17 193.063 1067.97 193.548 1067.58 193.94C1067.19 194.332 1066.71 194.528 1066.15 194.528ZM1067.72 196.572V212H1064.53V196.572H1067.72ZM1078.13 196.32C1079.32 196.32 1080.38 196.563 1081.29 197.048C1082.23 197.515 1082.95 198.103 1083.48 198.812V196.572H1086.7V212.252C1086.7 213.671 1086.4 214.931 1085.8 216.032C1085.2 217.152 1084.34 218.029 1083.2 218.664C1082.08 219.299 1080.73 219.616 1079.16 219.616C1077.07 219.616 1075.34 219.121 1073.96 218.132C1072.58 217.161 1071.79 215.836 1071.6 214.156H1074.77C1075.01 214.959 1075.52 215.603 1076.31 216.088C1077.11 216.592 1078.06 216.844 1079.16 216.844C1080.45 216.844 1081.49 216.452 1082.27 215.668C1083.08 214.884 1083.48 213.745 1083.48 212.252V209.676C1082.94 210.404 1082.2 211.02 1081.26 211.524C1080.35 212.009 1079.3 212.252 1078.13 212.252C1076.78 212.252 1075.55 211.916 1074.43 211.244C1073.33 210.553 1072.45 209.601 1071.8 208.388C1071.17 207.156 1070.85 205.765 1070.85 204.216C1070.85 202.667 1071.17 201.295 1071.8 200.1C1072.45 198.905 1073.33 197.981 1074.43 197.328C1075.55 196.656 1076.78 196.32 1078.13 196.32ZM1083.48 204.272C1083.48 203.208 1083.25 202.284 1082.8 201.5C1082.38 200.716 1081.81 200.119 1081.1 199.708C1080.39 199.297 1079.62 199.092 1078.8 199.092C1077.98 199.092 1077.21 199.297 1076.5 199.708C1075.8 200.1 1075.22 200.688 1074.77 201.472C1074.34 202.237 1074.12 203.152 1074.12 204.216C1074.12 205.28 1074.34 206.213 1074.77 207.016C1075.22 207.819 1075.8 208.435 1076.5 208.864C1077.23 209.275 1078 209.48 1078.8 209.48C1079.62 209.48 1080.39 209.275 1081.1 208.864C1081.81 208.453 1082.38 207.856 1082.8 207.072C1083.25 206.269 1083.48 205.336 1083.48 204.272ZM1098.67 196.32C1099.89 196.32 1100.97 196.572 1101.92 197.076C1102.89 197.58 1103.65 198.327 1104.19 199.316C1104.73 200.305 1105 201.5 1105 202.9V212H1101.84V203.376C1101.84 201.995 1101.49 200.94 1100.8 200.212C1100.11 199.465 1099.17 199.092 1097.97 199.092C1096.78 199.092 1095.83 199.465 1095.12 200.212C1094.43 200.94 1094.08 201.995 1094.08 203.376V212H1090.89V196.572H1094.08V198.336C1094.6 197.701 1095.27 197.207 1096.07 196.852C1096.89 196.497 1097.76 196.32 1098.67 196.32ZM1123.21 203.908C1123.21 204.487 1123.18 205.009 1123.1 205.476H1111.31C1111.41 206.708 1111.86 207.697 1112.68 208.444C1113.51 209.191 1114.51 209.564 1115.71 209.564C1117.43 209.564 1118.64 208.845 1119.35 207.408H1122.79C1122.33 208.827 1121.48 209.993 1120.24 210.908C1119.03 211.804 1117.52 212.252 1115.71 212.252C1114.23 212.252 1112.91 211.925 1111.73 211.272C1110.58 210.6 1109.66 209.667 1108.99 208.472C1108.34 207.259 1108.01 205.859 1108.01 204.272C1108.01 202.685 1108.33 201.295 1108.96 200.1C1109.61 198.887 1110.52 197.953 1111.68 197.3C1112.85 196.647 1114.2 196.32 1115.71 196.32C1117.16 196.32 1118.46 196.637 1119.6 197.272C1120.74 197.907 1121.63 198.803 1122.26 199.96C1122.9 201.099 1123.21 202.415 1123.21 203.908ZM1119.88 202.9C1119.86 201.724 1119.44 200.781 1118.62 200.072C1117.8 199.363 1116.78 199.008 1115.57 199.008C1114.47 199.008 1113.52 199.363 1112.74 200.072C1111.96 200.763 1111.49 201.705 1111.34 202.9H1119.88ZM1129.55 198.812C1130.01 198.028 1130.63 197.421 1131.39 196.992C1132.18 196.544 1133.1 196.32 1134.17 196.32V199.624H1133.35C1132.1 199.624 1131.15 199.941 1130.5 200.576C1129.86 201.211 1129.55 202.312 1129.55 203.88V212H1126.35V196.572H1129.55V198.812Z" fill="white"/>
<path d="M1152.05 215.164H1148.86V189.572H1152.05V215.164Z" fill="#BABABA"/>
<path d="M1183.46 212H1180.26L1170.66 197.468V212H1167.47V192.512H1170.66L1180.26 207.016V192.512H1183.46V212ZM1201.79 203.908C1201.79 204.487 1201.75 205.009 1201.67 205.476H1189.89C1189.98 206.708 1190.44 207.697 1191.26 208.444C1192.08 209.191 1193.09 209.564 1194.28 209.564C1196 209.564 1197.21 208.845 1197.92 207.408H1201.37C1200.9 208.827 1200.05 209.993 1198.82 210.908C1197.61 211.804 1196.09 212.252 1194.28 212.252C1192.81 212.252 1191.48 211.925 1190.31 211.272C1189.15 210.6 1188.23 209.667 1187.56 208.472C1186.91 207.259 1186.58 205.859 1186.58 204.272C1186.58 202.685 1186.9 201.295 1187.53 200.1C1188.19 198.887 1189.09 197.953 1190.25 197.3C1191.43 196.647 1192.77 196.32 1194.28 196.32C1195.74 196.32 1197.04 196.637 1198.17 197.272C1199.31 197.907 1200.2 198.803 1200.83 199.96C1201.47 201.099 1201.79 202.415 1201.79 203.908ZM1198.45 202.9C1198.44 201.724 1198.02 200.781 1197.19 200.072C1196.37 199.363 1195.36 199.008 1194.14 199.008C1193.04 199.008 1192.1 199.363 1191.31 200.072C1190.53 200.763 1190.06 201.705 1189.91 202.9H1198.45ZM1208.65 199.176V207.716C1208.65 208.295 1208.78 208.715 1209.04 208.976C1209.32 209.219 1209.79 209.34 1210.44 209.34H1212.4V212H1209.88C1208.45 212 1207.35 211.664 1206.58 210.992C1205.81 210.32 1205.43 209.228 1205.43 207.716V199.176H1203.61V196.572H1205.43V192.736H1208.65V196.572H1212.4V199.176H1208.65ZM1236.07 196.572L1231.28 212H1227.92L1224.81 200.604L1221.7 212H1218.34L1213.53 196.572H1216.77L1219.99 208.976L1223.27 196.572H1226.6L1229.74 208.92L1232.93 196.572H1236.07ZM1245.14 212.252C1243.69 212.252 1242.37 211.925 1241.2 211.272C1240.02 210.6 1239.1 209.667 1238.42 208.472C1237.75 207.259 1237.42 205.859 1237.42 204.272C1237.42 202.704 1237.76 201.313 1238.45 200.1C1239.14 198.887 1240.08 197.953 1241.28 197.3C1242.47 196.647 1243.81 196.32 1245.28 196.32C1246.76 196.32 1248.09 196.647 1249.29 197.3C1250.48 197.953 1251.42 198.887 1252.12 200.1C1252.81 201.313 1253.15 202.704 1253.15 204.272C1253.15 205.84 1252.8 207.231 1252.09 208.444C1251.38 209.657 1250.41 210.6 1249.18 211.272C1247.96 211.925 1246.62 212.252 1245.14 212.252ZM1245.14 209.48C1245.96 209.48 1246.73 209.284 1247.44 208.892C1248.17 208.5 1248.76 207.912 1249.2 207.128C1249.65 206.344 1249.88 205.392 1249.88 204.272C1249.88 203.152 1249.66 202.209 1249.23 201.444C1248.8 200.66 1248.23 200.072 1247.52 199.68C1246.81 199.288 1246.05 199.092 1245.23 199.092C1244.41 199.092 1243.64 199.288 1242.93 199.68C1242.24 200.072 1241.69 200.66 1241.28 201.444C1240.87 202.209 1240.66 203.152 1240.66 204.272C1240.66 205.933 1241.08 207.221 1241.92 208.136C1242.78 209.032 1243.86 209.48 1245.14 209.48ZM1259.5 198.812C1259.97 198.028 1260.58 197.421 1261.35 196.992C1262.13 196.544 1263.06 196.32 1264.12 196.32V199.624H1263.31C1262.06 199.624 1261.1 199.941 1260.45 200.576C1259.82 201.211 1259.5 202.312 1259.5 203.88V212H1256.31V196.572H1259.5V198.812ZM1273.16 204.3L1280.27 212H1275.96L1270.25 205.364V212H1267.05V191.28H1270.25V203.32L1275.85 196.572H1280.27L1273.16 204.3ZM1284.18 194.528C1283.6 194.528 1283.12 194.332 1282.73 193.94C1282.33 193.548 1282.14 193.063 1282.14 192.484C1282.14 191.905 1282.33 191.42 1282.73 191.028C1283.12 190.636 1283.6 190.44 1284.18 190.44C1284.74 190.44 1285.22 190.636 1285.61 191.028C1286 191.42 1286.2 191.905 1286.2 192.484C1286.2 193.063 1286 193.548 1285.61 193.94C1285.22 194.332 1284.74 194.528 1284.18 194.528ZM1285.75 196.572V212H1282.56V196.572H1285.75ZM1297.72 196.32C1298.94 196.32 1300.02 196.572 1300.97 197.076C1301.94 197.58 1302.7 198.327 1303.24 199.316C1303.78 200.305 1304.05 201.5 1304.05 202.9V212H1300.89V203.376C1300.89 201.995 1300.54 200.94 1299.85 200.212C1299.16 199.465 1298.22 199.092 1297.02 199.092C1295.83 199.092 1294.88 199.465 1294.17 200.212C1293.48 200.94 1293.13 201.995 1293.13 203.376V212H1289.94V196.572H1293.13V198.336C1293.65 197.701 1294.32 197.207 1295.12 196.852C1295.94 196.497 1296.81 196.32 1297.72 196.32ZM1314.34 196.32C1315.53 196.32 1316.59 196.563 1317.5 197.048C1318.44 197.515 1319.16 198.103 1319.69 198.812V196.572H1322.91V212.252C1322.91 213.671 1322.61 214.931 1322.01 216.032C1321.41 217.152 1320.55 218.029 1319.41 218.664C1318.29 219.299 1316.94 219.616 1315.38 219.616C1313.28 219.616 1311.55 219.121 1310.17 218.132C1308.79 217.161 1308 215.836 1307.82 214.156H1310.98C1311.22 214.959 1311.74 215.603 1312.52 216.088C1313.32 216.592 1314.27 216.844 1315.38 216.844C1316.66 216.844 1317.7 216.452 1318.48 215.668C1319.29 214.884 1319.69 213.745 1319.69 212.252V209.676C1319.15 210.404 1318.41 211.02 1317.48 211.524C1316.56 212.009 1315.52 212.252 1314.34 212.252C1313 212.252 1311.76 211.916 1310.64 211.244C1309.54 210.553 1308.66 209.601 1308.01 208.388C1307.38 207.156 1307.06 205.765 1307.06 204.216C1307.06 202.667 1307.38 201.295 1308.01 200.1C1308.66 198.905 1309.54 197.981 1310.64 197.328C1311.76 196.656 1313 196.32 1314.34 196.32ZM1319.69 204.272C1319.69 203.208 1319.46 202.284 1319.02 201.5C1318.59 200.716 1318.02 200.119 1317.31 199.708C1316.6 199.297 1315.83 199.092 1315.01 199.092C1314.19 199.092 1313.42 199.297 1312.72 199.708C1312.01 200.1 1311.43 200.688 1310.98 201.472C1310.55 202.237 1310.34 203.152 1310.34 204.216C1310.34 205.28 1310.55 206.213 1310.98 207.016C1311.43 207.819 1312.01 208.435 1312.72 208.864C1313.44 209.275 1314.21 209.48 1315.01 209.48C1315.83 209.48 1316.6 209.275 1317.31 208.864C1318.02 208.453 1318.59 207.856 1319.02 207.072C1319.46 206.269 1319.69 205.336 1319.69 204.272Z" fill="white"/>
<path d="M1342.05 215.164H1338.86V189.572H1342.05V215.164Z" fill="#BABABA"/>
<path d="M1360.84 195.116V200.828H1367.56V203.432H1360.84V209.396H1368.4V212H1357.65V192.512H1368.4V195.116H1360.84ZM1371.27 204.216C1371.27 202.667 1371.59 201.295 1372.22 200.1C1372.88 198.905 1373.75 197.981 1374.85 197.328C1375.97 196.656 1377.22 196.32 1378.58 196.32C1379.59 196.32 1380.58 196.544 1381.55 196.992C1382.54 197.421 1383.32 198 1383.9 198.728V191.28H1387.12V212H1383.9V209.676C1383.38 210.423 1382.65 211.039 1381.71 211.524C1380.8 212.009 1379.75 212.252 1378.55 212.252C1377.21 212.252 1375.97 211.916 1374.85 211.244C1373.75 210.553 1372.88 209.601 1372.22 208.388C1371.59 207.156 1371.27 205.765 1371.27 204.216ZM1383.9 204.272C1383.9 203.208 1383.67 202.284 1383.23 201.5C1382.8 200.716 1382.23 200.119 1381.52 199.708C1380.81 199.297 1380.04 199.092 1379.22 199.092C1378.4 199.092 1377.64 199.297 1376.93 199.708C1376.22 200.1 1375.64 200.688 1375.19 201.472C1374.76 202.237 1374.55 203.152 1374.55 204.216C1374.55 205.28 1374.76 206.213 1375.19 207.016C1375.64 207.819 1376.22 208.435 1376.93 208.864C1377.65 209.275 1378.42 209.48 1379.22 209.48C1380.04 209.48 1380.81 209.275 1381.52 208.864C1382.23 208.453 1382.8 207.856 1383.23 207.072C1383.67 206.269 1383.9 205.336 1383.9 204.272ZM1405.28 196.572V212H1402.09V210.18C1401.59 210.815 1400.92 211.319 1400.1 211.692C1399.3 212.047 1398.44 212.224 1397.53 212.224C1396.31 212.224 1395.22 211.972 1394.25 211.468C1393.3 210.964 1392.54 210.217 1391.98 209.228C1391.44 208.239 1391.17 207.044 1391.17 205.644V196.572H1394.33V205.168C1394.33 206.549 1394.68 207.613 1395.37 208.36C1396.06 209.088 1397 209.452 1398.2 209.452C1399.39 209.452 1400.34 209.088 1401.03 208.36C1401.74 207.613 1402.09 206.549 1402.09 205.168V196.572H1405.28ZM1408.43 204.272C1408.43 202.685 1408.75 201.295 1409.38 200.1C1410.04 198.887 1410.93 197.953 1412.07 197.3C1413.21 196.647 1414.52 196.32 1415.99 196.32C1417.86 196.32 1419.4 196.768 1420.61 197.664C1421.84 198.541 1422.67 199.801 1423.1 201.444H1419.66C1419.38 200.679 1418.93 200.081 1418.31 199.652C1417.7 199.223 1416.92 199.008 1415.99 199.008C1414.68 199.008 1413.64 199.475 1412.85 200.408C1412.09 201.323 1411.71 202.611 1411.71 204.272C1411.71 205.933 1412.09 207.231 1412.85 208.164C1413.64 209.097 1414.68 209.564 1415.99 209.564C1417.84 209.564 1419.06 208.752 1419.66 207.128H1423.1C1422.65 208.696 1421.81 209.947 1420.58 210.88C1419.35 211.795 1417.82 212.252 1415.99 212.252C1414.52 212.252 1413.21 211.925 1412.07 211.272C1410.93 210.6 1410.04 209.667 1409.38 208.472C1408.75 207.259 1408.43 205.859 1408.43 204.272ZM1425.22 204.216C1425.22 202.667 1425.54 201.295 1426.17 200.1C1426.82 198.905 1427.7 197.981 1428.8 197.328C1429.92 196.656 1431.16 196.32 1432.5 196.32C1433.71 196.32 1434.77 196.563 1435.66 197.048C1436.58 197.515 1437.31 198.103 1437.85 198.812V196.572H1441.07V212H1437.85V209.704C1437.31 210.432 1436.57 211.039 1435.64 211.524C1434.7 212.009 1433.64 212.252 1432.44 212.252C1431.12 212.252 1429.9 211.916 1428.8 211.244C1427.7 210.553 1426.82 209.601 1426.17 208.388C1425.54 207.156 1425.22 205.765 1425.22 204.216ZM1437.85 204.272C1437.85 203.208 1437.62 202.284 1437.18 201.5C1436.75 200.716 1436.18 200.119 1435.47 199.708C1434.76 199.297 1433.99 199.092 1433.17 199.092C1432.35 199.092 1431.58 199.297 1430.88 199.708C1430.17 200.1 1429.59 200.688 1429.14 201.472C1428.71 202.237 1428.5 203.152 1428.5 204.216C1428.5 205.28 1428.71 206.213 1429.14 207.016C1429.59 207.819 1430.17 208.435 1430.88 208.864C1431.6 209.275 1432.37 209.48 1433.17 209.48C1433.99 209.48 1434.76 209.275 1435.47 208.864C1436.18 208.453 1436.75 207.856 1437.18 207.072C1437.62 206.269 1437.85 205.336 1437.85 204.272ZM1448.98 199.176V207.716C1448.98 208.295 1449.11 208.715 1449.38 208.976C1449.66 209.219 1450.12 209.34 1450.78 209.34H1452.74V212H1450.22C1448.78 212 1447.68 211.664 1446.91 210.992C1446.15 210.32 1445.76 209.228 1445.76 207.716V199.176H1443.94V196.572H1445.76V192.736H1448.98V196.572H1452.74V199.176H1448.98ZM1457.3 194.528C1456.72 194.528 1456.24 194.332 1455.85 193.94C1455.45 193.548 1455.26 193.063 1455.26 192.484C1455.26 191.905 1455.45 191.42 1455.85 191.028C1456.24 190.636 1456.72 190.44 1457.3 190.44C1457.86 190.44 1458.34 190.636 1458.73 191.028C1459.12 191.42 1459.32 191.905 1459.32 192.484C1459.32 193.063 1459.12 193.548 1458.73 193.94C1458.34 194.332 1457.86 194.528 1457.3 194.528ZM1458.87 196.572V212H1455.68V196.572H1458.87ZM1469.75 212.252C1468.3 212.252 1466.98 211.925 1465.8 211.272C1464.63 210.6 1463.7 209.667 1463.03 208.472C1462.36 207.259 1462.02 205.859 1462.02 204.272C1462.02 202.704 1462.37 201.313 1463.06 200.1C1463.75 198.887 1464.69 197.953 1465.89 197.3C1467.08 196.647 1468.42 196.32 1469.89 196.32C1471.37 196.32 1472.7 196.647 1473.9 197.3C1475.09 197.953 1476.03 198.887 1476.72 200.1C1477.42 201.313 1477.76 202.704 1477.76 204.272C1477.76 205.84 1477.41 207.231 1476.7 208.444C1475.99 209.657 1475.02 210.6 1473.78 211.272C1472.57 211.925 1471.23 212.252 1469.75 212.252ZM1469.75 209.48C1470.57 209.48 1471.34 209.284 1472.05 208.892C1472.78 208.5 1473.36 207.912 1473.81 207.128C1474.26 206.344 1474.48 205.392 1474.48 204.272C1474.48 203.152 1474.27 202.209 1473.84 201.444C1473.41 200.66 1472.84 200.072 1472.13 199.68C1471.42 199.288 1470.66 199.092 1469.84 199.092C1469.02 199.092 1468.25 199.288 1467.54 199.68C1466.85 200.072 1466.3 200.66 1465.89 201.444C1465.48 202.209 1465.27 203.152 1465.27 204.272C1465.27 205.933 1465.69 207.221 1466.53 208.136C1467.39 209.032 1468.46 209.48 1469.75 209.48ZM1488.7 196.32C1489.91 196.32 1491 196.572 1491.95 197.076C1492.92 197.58 1493.68 198.327 1494.22 199.316C1494.76 200.305 1495.03 201.5 1495.03 202.9V212H1491.86V203.376C1491.86 201.995 1491.52 200.94 1490.83 200.212C1490.14 199.465 1489.2 199.092 1488 199.092C1486.81 199.092 1485.85 199.465 1485.14 200.212C1484.45 200.94 1484.11 201.995 1484.11 203.376V212H1480.92V196.572H1484.11V198.336C1484.63 197.701 1485.29 197.207 1486.1 196.852C1486.92 196.497 1487.79 196.32 1488.7 196.32Z" fill="white"/>
<circle cx="1125.5" cy="93" r="5.5" fill="white"/>
<circle cx="1145.75" cy="77.75" r="8.75" fill="#FFD755"/>
<rect width="15.5" height="15.5" rx="3.5" transform="matrix(-1 0 0 1 456.5 145)" fill="white"/>
<line x1="42" y1="330.5" x2="1542" y2="330.5" stroke="#C7C7C7" stroke-opacity="0.7"/>
<path d="M933.295 364.24H929.255V368.38H927.135V364.24H923.095V362.32H927.135V358.18H929.255V362.32H933.295V364.24ZM944.372 359.3C944.225 358.687 943.959 358.227 943.572 357.92C943.185 357.613 942.645 357.46 941.952 357.46C940.899 357.46 940.112 357.867 939.592 358.68C939.072 359.48 938.799 360.813 938.772 362.68C939.119 362.093 939.625 361.64 940.292 361.32C940.959 361 941.679 360.84 942.452 360.84C943.332 360.84 944.105 361.033 944.772 361.42C945.452 361.793 945.979 362.34 946.352 363.06C946.739 363.78 946.932 364.64 946.932 365.64C946.932 366.573 946.745 367.407 946.372 368.14C946.012 368.873 945.472 369.453 944.752 369.88C944.032 370.293 943.165 370.5 942.152 370.5C940.779 370.5 939.699 370.2 938.912 369.6C938.139 368.987 937.592 368.127 937.272 367.02C936.965 365.913 936.812 364.533 936.812 362.88C936.812 358 938.532 355.56 941.972 355.56C943.305 355.56 944.352 355.92 945.112 356.64C945.885 357.36 946.339 358.247 946.472 359.3H944.372ZM941.952 362.76C941.139 362.76 940.445 363.007 939.872 363.5C939.312 363.98 939.032 364.68 939.032 365.6C939.032 366.52 939.292 367.253 939.812 367.8C940.345 368.333 941.085 368.6 942.032 368.6C942.872 368.6 943.532 368.34 944.012 367.82C944.505 367.3 944.752 366.607 944.752 365.74C944.752 364.833 944.512 364.113 944.032 363.58C943.565 363.033 942.872 362.76 941.952 362.76ZM950.624 367.4C951.904 366.293 952.911 365.387 953.644 364.68C954.391 363.96 955.011 363.213 955.504 362.44C955.997 361.667 956.244 360.893 956.244 360.12C956.244 359.32 956.051 358.693 955.664 358.24C955.291 357.787 954.697 357.56 953.884 357.56C953.097 357.56 952.484 357.813 952.044 358.32C951.617 358.813 951.391 359.48 951.364 360.32H949.164C949.204 358.8 949.657 357.64 950.524 356.84C951.404 356.027 952.517 355.62 953.864 355.62C955.317 355.62 956.451 356.02 957.264 356.82C958.091 357.62 958.504 358.687 958.504 360.02C958.504 360.98 958.257 361.907 957.764 362.8C957.284 363.68 956.704 364.473 956.024 365.18C955.357 365.873 954.504 366.68 953.464 367.6L952.564 368.4H958.904V370.3H949.184V368.64L950.624 367.4ZM968.562 362.88C967.176 362.187 966.482 361.093 966.482 359.6C966.482 358.88 966.662 358.22 967.022 357.62C967.382 357.02 967.922 356.547 968.642 356.2C969.362 355.84 970.242 355.66 971.282 355.66C972.309 355.66 973.182 355.84 973.902 356.2C974.636 356.547 975.182 357.02 975.542 357.62C975.902 358.22 976.082 358.88 976.082 359.6C976.082 360.347 975.889 361.007 975.502 361.58C975.129 362.14 974.629 362.573 974.002 362.88C974.762 363.16 975.362 363.62 975.802 364.26C976.242 364.887 976.462 365.627 976.462 366.48C976.462 367.347 976.242 368.113 975.802 368.78C975.362 369.447 974.749 369.96 973.962 370.32C973.176 370.68 972.282 370.86 971.282 370.86C970.282 370.86 969.389 370.68 968.602 370.32C967.829 369.96 967.222 369.447 966.782 368.78C966.342 368.113 966.122 367.347 966.122 366.48C966.122 365.613 966.342 364.867 966.782 364.24C967.222 363.613 967.816 363.16 968.562 362.88ZM973.902 359.88C973.902 359.133 973.669 358.56 973.202 358.16C972.736 357.76 972.096 357.56 971.282 357.56C970.482 357.56 969.849 357.76 969.382 358.16C968.916 358.56 968.682 359.14 968.682 359.9C968.682 360.567 968.922 361.113 969.402 361.54C969.896 361.953 970.522 362.16 971.282 362.16C972.042 362.16 972.669 361.947 973.162 361.52C973.656 361.093 973.902 360.547 973.902 359.88ZM971.282 363.88C970.402 363.88 969.682 364.1 969.122 364.54C968.576 364.967 968.302 365.587 968.302 366.4C968.302 367.16 968.569 367.78 969.102 368.26C969.636 368.727 970.362 368.96 971.282 368.96C972.189 368.96 972.902 368.72 973.422 368.24C973.956 367.76 974.222 367.147 974.222 366.4C974.222 365.6 973.949 364.98 973.402 364.54C972.869 364.1 972.162 363.88 971.282 363.88ZM988.256 357.88H981.556V361.86C981.836 361.487 982.25 361.173 982.796 360.92C983.356 360.667 983.95 360.54 984.576 360.54C985.696 360.54 986.603 360.78 987.296 361.26C988.003 361.74 988.503 362.347 988.796 363.08C989.103 363.813 989.256 364.587 989.256 365.4C989.256 366.387 989.063 367.267 988.676 368.04C988.303 368.8 987.736 369.4 986.976 369.84C986.23 370.28 985.31 370.5 984.216 370.5C982.763 370.5 981.596 370.14 980.716 369.42C979.836 368.7 979.31 367.747 979.136 366.56H981.356C981.503 367.187 981.83 367.687 982.336 368.06C982.843 368.42 983.476 368.6 984.236 368.6C985.183 368.6 985.89 368.313 986.356 367.74C986.836 367.167 987.076 366.407 987.076 365.46C987.076 364.5 986.836 363.767 986.356 363.26C985.876 362.74 985.17 362.48 984.236 362.48C983.583 362.48 983.03 362.647 982.576 362.98C982.136 363.3 981.816 363.74 981.616 364.3H979.456V355.88H988.256V357.88ZM991.33 358V355.92H995.49V370.5H993.19V358H991.33ZM1007.38 362.3V364.22H999.162V362.3H1007.38ZM1019.72 357.88H1013.02V361.86C1013.3 361.487 1013.71 361.173 1014.26 360.92C1014.82 360.667 1015.41 360.54 1016.04 360.54C1017.16 360.54 1018.07 360.78 1018.76 361.26C1019.47 361.74 1019.97 362.347 1020.26 363.08C1020.57 363.813 1020.72 364.587 1020.72 365.4C1020.72 366.387 1020.53 367.267 1020.14 368.04C1019.77 368.8 1019.2 369.4 1018.44 369.84C1017.69 370.28 1016.77 370.5 1015.68 370.5C1014.23 370.5 1013.06 370.14 1012.18 369.42C1011.3 368.7 1010.77 367.747 1010.6 366.56H1012.82C1012.97 367.187 1013.29 367.687 1013.8 368.06C1014.31 368.42 1014.94 368.6 1015.7 368.6C1016.65 368.6 1017.35 368.313 1017.82 367.74C1018.3 367.167 1018.54 366.407 1018.54 365.46C1018.54 364.5 1018.3 363.767 1017.82 363.26C1017.34 362.74 1016.63 362.48 1015.7 362.48C1015.05 362.48 1014.49 362.647 1014.04 362.98C1013.6 363.3 1013.28 363.74 1013.08 364.3H1010.92V355.88H1019.72V357.88ZM1030.93 359.3C1030.79 358.687 1030.52 358.227 1030.13 357.92C1029.75 357.613 1029.21 357.46 1028.51 357.46C1027.46 357.46 1026.67 357.867 1026.15 358.68C1025.63 359.48 1025.36 360.813 1025.33 362.68C1025.68 362.093 1026.19 361.64 1026.85 361.32C1027.52 361 1028.24 360.84 1029.01 360.84C1029.89 360.84 1030.67 361.033 1031.33 361.42C1032.01 361.793 1032.54 362.34 1032.91 363.06C1033.3 363.78 1033.49 364.64 1033.49 365.64C1033.49 366.573 1033.31 367.407 1032.93 368.14C1032.57 368.873 1032.03 369.453 1031.31 369.88C1030.59 370.293 1029.73 370.5 1028.71 370.5C1027.34 370.5 1026.26 370.2 1025.47 369.6C1024.7 368.987 1024.15 368.127 1023.83 367.02C1023.53 365.913 1023.37 364.533 1023.37 362.88C1023.37 358 1025.09 355.56 1028.53 355.56C1029.87 355.56 1030.91 355.92 1031.67 356.64C1032.45 357.36 1032.9 358.247 1033.03 359.3H1030.93ZM1028.51 362.76C1027.7 362.76 1027.01 363.007 1026.43 363.5C1025.87 363.98 1025.59 364.68 1025.59 365.6C1025.59 366.52 1025.85 367.253 1026.37 367.8C1026.91 368.333 1027.65 368.6 1028.59 368.6C1029.43 368.6 1030.09 368.34 1030.57 367.82C1031.07 367.3 1031.31 366.607 1031.31 365.74C1031.31 364.833 1031.07 364.113 1030.59 363.58C1030.13 363.033 1029.43 362.76 1028.51 362.76ZM1035.89 359.52C1035.97 358.28 1036.44 357.313 1037.31 356.62C1038.19 355.927 1039.31 355.58 1040.67 355.58C1041.6 355.58 1042.41 355.747 1043.09 356.08C1043.77 356.413 1044.28 356.867 1044.63 357.44C1044.97 358.013 1045.15 358.66 1045.15 359.38C1045.15 360.207 1044.93 360.913 1044.49 361.5C1044.05 362.087 1043.52 362.48 1042.91 362.68V362.76C1043.69 363 1044.31 363.44 1044.75 364.08C1045.19 364.707 1045.41 365.513 1045.41 366.5C1045.41 367.287 1045.23 367.987 1044.87 368.6C1044.51 369.213 1043.97 369.7 1043.27 370.06C1042.56 370.407 1041.71 370.58 1040.73 370.58C1039.29 370.58 1038.1 370.213 1037.17 369.48C1036.25 368.733 1035.75 367.667 1035.69 366.28H1037.89C1037.94 366.987 1038.21 367.567 1038.71 368.02C1039.2 368.46 1039.87 368.68 1040.71 368.68C1041.52 368.68 1042.15 368.46 1042.59 368.02C1043.03 367.567 1043.25 366.987 1043.25 366.28C1043.25 365.347 1042.95 364.687 1042.35 364.3C1041.76 363.9 1040.85 363.7 1039.63 363.7H1039.11V361.82H1039.65C1040.73 361.807 1041.55 361.627 1042.11 361.28C1042.68 360.933 1042.97 360.387 1042.97 359.64C1042.97 359 1042.76 358.493 1042.35 358.12C1041.93 357.733 1041.35 357.54 1040.59 357.54C1039.84 357.54 1039.26 357.733 1038.85 358.12C1038.43 358.493 1038.19 358.96 1038.11 359.52H1035.89ZM1049.06 367.4C1050.34 366.293 1051.35 365.387 1052.08 364.68C1052.83 363.96 1053.45 363.213 1053.94 362.44C1054.43 361.667 1054.68 360.893 1054.68 360.12C1054.68 359.32 1054.49 358.693 1054.1 358.24C1053.73 357.787 1053.13 357.56 1052.32 357.56C1051.53 357.56 1050.92 357.813 1050.48 358.32C1050.05 358.813 1049.83 359.48 1049.8 360.32H1047.6C1047.64 358.8 1048.09 357.64 1048.96 356.84C1049.84 356.027 1050.95 355.62 1052.3 355.62C1053.75 355.62 1054.89 356.02 1055.7 356.82C1056.53 357.62 1056.94 358.687 1056.94 360.02C1056.94 360.98 1056.69 361.907 1056.2 362.8C1055.72 363.68 1055.14 364.473 1054.46 365.18C1053.79 365.873 1052.94 366.68 1051.9 367.6L1051 368.4H1057.34V370.3H1047.62V368.64L1049.06 367.4ZM1068.1 362.3V364.22H1059.88V362.3H1068.1ZM1071 359.52C1071.08 358.28 1071.56 357.313 1072.42 356.62C1073.3 355.927 1074.42 355.58 1075.78 355.58C1076.72 355.58 1077.52 355.747 1078.2 356.08C1078.88 356.413 1079.4 356.867 1079.74 357.44C1080.09 358.013 1080.26 358.66 1080.26 359.38C1080.26 360.207 1080.04 360.913 1079.6 361.5C1079.16 362.087 1078.64 362.48 1078.02 362.68V362.76C1078.81 363 1079.42 363.44 1079.86 364.08C1080.3 364.707 1080.52 365.513 1080.52 366.5C1080.52 367.287 1080.34 367.987 1079.98 368.6C1079.62 369.213 1079.09 369.7 1078.38 370.06C1077.68 370.407 1076.83 370.58 1075.84 370.58C1074.4 370.58 1073.22 370.213 1072.28 369.48C1071.36 368.733 1070.87 367.667 1070.8 366.28H1073C1073.06 366.987 1073.33 367.567 1073.82 368.02C1074.32 368.46 1074.98 368.68 1075.82 368.68C1076.64 368.68 1077.26 368.46 1077.7 368.02C1078.14 367.567 1078.36 366.987 1078.36 366.28C1078.36 365.347 1078.06 364.687 1077.46 364.3C1076.88 363.9 1075.97 363.7 1074.74 363.7H1074.22V361.82H1074.76C1075.84 361.807 1076.66 361.627 1077.22 361.28C1077.8 360.933 1078.08 360.387 1078.08 359.64C1078.08 359 1077.88 358.493 1077.46 358.12C1077.05 357.733 1076.46 357.54 1075.7 357.54C1074.96 357.54 1074.38 357.733 1073.96 358.12C1073.55 358.493 1073.3 358.96 1073.22 359.52H1071ZM1092.32 357.88H1085.62V361.86C1085.9 361.487 1086.31 361.173 1086.86 360.92C1087.42 360.667 1088.01 360.54 1088.64 360.54C1089.76 360.54 1090.67 360.78 1091.36 361.26C1092.07 361.74 1092.57 362.347 1092.86 363.08C1093.17 363.813 1093.32 364.587 1093.32 365.4C1093.32 366.387 1093.13 367.267 1092.74 368.04C1092.37 368.8 1091.8 369.4 1091.04 369.84C1090.29 370.28 1089.37 370.5 1088.28 370.5C1086.83 370.5 1085.66 370.14 1084.78 369.42C1083.9 368.7 1083.37 367.747 1083.2 366.56H1085.42C1085.57 367.187 1085.89 367.687 1086.4 368.06C1086.91 368.42 1087.54 368.6 1088.3 368.6C1089.25 368.6 1089.95 368.313 1090.42 367.74C1090.9 367.167 1091.14 366.407 1091.14 365.46C1091.14 364.5 1090.9 363.767 1090.42 363.26C1089.94 362.74 1089.23 362.48 1088.3 362.48C1087.65 362.48 1087.09 362.647 1086.64 362.98C1086.2 363.3 1085.88 363.74 1085.68 364.3H1083.52V355.88H1092.32V357.88ZM1098.53 366.54C1098.67 367.207 1098.95 367.713 1099.39 368.06C1099.83 368.407 1100.43 368.58 1101.17 368.58C1102.12 368.58 1102.81 368.207 1103.25 367.46C1103.69 366.713 1103.91 365.44 1103.91 363.64C1103.59 364.093 1103.14 364.447 1102.55 364.7C1101.98 364.94 1101.35 365.06 1100.67 365.06C1099.81 365.06 1099.02 364.887 1098.31 364.54C1097.61 364.18 1097.05 363.653 1096.63 362.96C1096.23 362.253 1096.03 361.4 1096.03 360.4C1096.03 358.933 1096.46 357.767 1097.31 356.9C1098.18 356.02 1099.37 355.58 1100.87 355.58C1102.69 355.58 1103.97 356.187 1104.73 357.4C1105.51 358.6 1105.89 360.447 1105.89 362.94C1105.89 364.66 1105.75 366.067 1105.45 367.16C1105.17 368.253 1104.68 369.08 1103.97 369.64C1103.27 370.2 1102.29 370.48 1101.03 370.48C1099.61 370.48 1098.51 370.107 1097.73 369.36C1096.96 368.613 1096.53 367.673 1096.43 366.54H1098.53ZM1101.07 363.14C1101.87 363.14 1102.5 362.893 1102.95 362.4C1103.42 361.893 1103.65 361.227 1103.65 360.4C1103.65 359.48 1103.41 358.767 1102.91 358.26C1102.43 357.74 1101.77 357.48 1100.93 357.48C1100.09 357.48 1099.43 357.747 1098.93 358.28C1098.45 358.8 1098.21 359.487 1098.21 360.34C1098.21 361.153 1098.45 361.827 1098.91 362.36C1099.39 362.88 1100.11 363.14 1101.07 363.14ZM1108.39 363.02C1108.39 360.713 1108.77 358.913 1109.55 357.62C1110.33 356.313 1111.68 355.66 1113.59 355.66C1115.49 355.66 1116.83 356.313 1117.61 357.62C1118.39 358.913 1118.79 360.713 1118.79 363.02C1118.79 365.353 1118.39 367.18 1117.61 368.5C1116.83 369.807 1115.49 370.46 1113.59 370.46C1111.68 370.46 1110.33 369.807 1109.55 368.5C1108.77 367.18 1108.39 365.353 1108.39 363.02ZM1116.55 363.02C1116.55 361.94 1116.47 361.027 1116.33 360.28C1116.19 359.533 1115.91 358.927 1115.49 358.46C1115.06 357.98 1114.43 357.74 1113.59 357.74C1112.75 357.74 1112.11 357.98 1111.69 358.46C1111.26 358.927 1110.97 359.533 1110.83 360.28C1110.69 361.027 1110.63 361.94 1110.63 363.02C1110.63 364.14 1110.69 365.08 1110.83 365.84C1110.96 366.6 1111.24 367.213 1111.67 367.68C1112.11 368.147 1112.75 368.38 1113.59 368.38C1114.43 368.38 1115.06 368.147 1115.49 367.68C1115.93 367.213 1116.21 366.6 1116.35 365.84C1116.48 365.08 1116.55 364.14 1116.55 363.02Z" fill="#BABABA"/>
<path d="M1134.9 372.76H1132.62V354.48H1134.9V372.76Z" fill="white"/>
<path d="M1151.33 361.08C1151.66 360.52 1152.1 360.087 1152.65 359.78C1153.21 359.46 1153.87 359.3 1154.63 359.3V361.66H1154.05C1153.16 361.66 1152.48 361.887 1152.01 362.34C1151.56 362.793 1151.33 363.58 1151.33 364.7V370.5H1149.05V359.48H1151.33V361.08ZM1166.83 364.72C1166.83 365.133 1166.8 365.507 1166.75 365.84H1158.33C1158.39 366.72 1158.72 367.427 1159.31 367.96C1159.89 368.493 1160.61 368.76 1161.47 368.76C1162.69 368.76 1163.56 368.247 1164.07 367.22H1166.53C1166.19 368.233 1165.59 369.067 1164.71 369.72C1163.84 370.36 1162.76 370.68 1161.47 370.68C1160.41 370.68 1159.47 370.447 1158.63 369.98C1157.8 369.5 1157.15 368.833 1156.67 367.98C1156.2 367.113 1155.97 366.113 1155.97 364.98C1155.97 363.847 1156.19 362.853 1156.65 362C1157.11 361.133 1157.76 360.467 1158.59 360C1159.43 359.533 1160.39 359.3 1161.47 359.3C1162.51 359.3 1163.43 359.527 1164.25 359.98C1165.06 360.433 1165.69 361.073 1166.15 361.9C1166.6 362.713 1166.83 363.653 1166.83 364.72ZM1164.45 364C1164.43 363.16 1164.13 362.487 1163.55 361.98C1162.96 361.473 1162.23 361.22 1161.37 361.22C1160.58 361.22 1159.91 361.473 1159.35 361.98C1158.79 362.473 1158.45 363.147 1158.35 364H1164.45ZM1168.31 364.94C1168.31 363.833 1168.54 362.853 1168.99 362C1169.46 361.147 1170.08 360.487 1170.87 360.02C1171.67 359.54 1172.55 359.3 1173.51 359.3C1174.38 359.3 1175.13 359.473 1175.77 359.82C1176.42 360.153 1176.94 360.573 1177.33 361.08V359.48H1179.63V370.5H1177.33V368.86C1176.94 369.38 1176.42 369.813 1175.75 370.16C1175.08 370.507 1174.32 370.68 1173.47 370.68C1172.52 370.68 1171.66 370.44 1170.87 369.96C1170.08 369.467 1169.46 368.787 1168.99 367.92C1168.54 367.04 1168.31 366.047 1168.31 364.94ZM1177.33 364.98C1177.33 364.22 1177.17 363.56 1176.85 363C1176.54 362.44 1176.14 362.013 1175.63 361.72C1175.12 361.427 1174.58 361.28 1173.99 361.28C1173.4 361.28 1172.86 361.427 1172.35 361.72C1171.84 362 1171.43 362.42 1171.11 362.98C1170.8 363.527 1170.65 364.18 1170.65 364.94C1170.65 365.7 1170.8 366.367 1171.11 366.94C1171.43 367.513 1171.84 367.953 1172.35 368.26C1172.87 368.553 1173.42 368.7 1173.99 368.7C1174.58 368.7 1175.12 368.553 1175.63 368.26C1176.14 367.967 1176.54 367.54 1176.85 366.98C1177.17 366.407 1177.33 365.74 1177.33 364.98ZM1181.87 364.94C1181.87 363.833 1182.09 362.853 1182.55 362C1183.01 361.147 1183.64 360.487 1184.43 360.02C1185.23 359.54 1186.11 359.3 1187.09 359.3C1187.81 359.3 1188.51 359.46 1189.21 359.78C1189.91 360.087 1190.47 360.5 1190.89 361.02V355.7H1193.19V370.5H1190.89V368.84C1190.51 369.373 1189.99 369.813 1189.33 370.16C1188.67 370.507 1187.92 370.68 1187.07 370.68C1186.11 370.68 1185.23 370.44 1184.43 369.96C1183.64 369.467 1183.01 368.787 1182.55 367.92C1182.09 367.04 1181.87 366.047 1181.87 364.94ZM1190.89 364.98C1190.89 364.22 1190.73 363.56 1190.41 363C1190.1 362.44 1189.69 362.013 1189.19 361.72C1188.68 361.427 1188.13 361.28 1187.55 361.28C1186.96 361.28 1186.41 361.427 1185.91 361.72C1185.4 362 1184.99 362.42 1184.67 362.98C1184.36 363.527 1184.21 364.18 1184.21 364.94C1184.21 365.7 1184.36 366.367 1184.67 366.94C1184.99 367.513 1185.4 367.953 1185.91 368.26C1186.43 368.553 1186.97 368.7 1187.55 368.7C1188.13 368.7 1188.68 368.553 1189.19 368.26C1189.69 367.967 1190.1 367.54 1190.41 366.98C1190.73 366.407 1190.89 365.74 1190.89 364.98ZM1206.1 359.48L1199.34 375.68H1196.98L1199.22 370.32L1194.88 359.48H1197.42L1200.52 367.88L1203.74 359.48H1206.1ZM1218.08 357.58C1219.6 357.58 1220.91 357.86 1222.02 358.42C1223.13 358.98 1223.97 359.767 1224.54 360.78C1225.13 361.78 1225.42 362.947 1225.42 364.28C1225.42 365.347 1225.23 366.367 1224.86 367.34C1224.5 368.313 1223.97 369.107 1223.28 369.72C1222.6 370.333 1221.79 370.64 1220.86 370.64C1220.18 370.64 1219.65 370.493 1219.26 370.2C1218.87 369.893 1218.63 369.467 1218.54 368.92C1218.13 369.453 1217.61 369.873 1216.98 370.18C1216.35 370.487 1215.7 370.64 1215.02 370.64C1213.99 370.64 1213.19 370.333 1212.6 369.72C1212.03 369.093 1211.74 368.247 1211.74 367.18C1211.74 366.167 1211.95 365.22 1212.36 364.34C1212.79 363.46 1213.38 362.76 1214.14 362.24C1214.9 361.707 1215.75 361.44 1216.7 361.44C1217.86 361.44 1218.67 361.833 1219.14 362.62L1219.32 361.62H1221.3L1220.3 367.34C1220.26 367.62 1220.24 367.867 1220.24 368.08C1220.24 368.427 1220.31 368.687 1220.44 368.86C1220.59 369.033 1220.84 369.12 1221.2 369.12C1221.71 369.12 1222.14 368.873 1222.5 368.38C1222.86 367.873 1223.13 367.253 1223.3 366.52C1223.49 365.787 1223.58 365.073 1223.58 364.38C1223.58 362.687 1223.09 361.393 1222.1 360.5C1221.11 359.607 1219.68 359.16 1217.8 359.16C1216.23 359.16 1214.81 359.533 1213.56 360.28C1212.32 361.027 1211.35 362.053 1210.64 363.36C1209.93 364.667 1209.58 366.12 1209.58 367.72C1209.58 369.427 1210.09 370.727 1211.1 371.62C1212.11 372.513 1213.56 372.96 1215.44 372.96C1216.71 372.96 1217.81 372.727 1218.76 372.26L1219.06 373.78C1217.85 374.3 1216.49 374.56 1214.98 374.56C1213.53 374.56 1212.25 374.287 1211.16 373.74C1210.07 373.193 1209.22 372.413 1208.62 371.4C1208.02 370.4 1207.72 369.233 1207.72 367.9C1207.72 365.993 1208.16 364.253 1209.04 362.68C1209.93 361.107 1211.17 359.867 1212.74 358.96C1214.31 358.04 1216.09 357.58 1218.08 357.58ZM1215.72 368.88C1216.28 368.88 1216.79 368.72 1217.24 368.4C1217.71 368.067 1218.07 367.633 1218.34 367.1C1218.61 366.553 1218.74 365.973 1218.74 365.36C1218.74 364.72 1218.56 364.2 1218.2 363.8C1217.85 363.387 1217.36 363.18 1216.72 363.18C1216.15 363.18 1215.64 363.36 1215.2 363.72C1214.77 364.067 1214.44 364.52 1214.2 365.08C1213.97 365.64 1213.86 366.227 1213.86 366.84C1213.86 367.467 1214.01 367.967 1214.32 368.34C1214.63 368.7 1215.09 368.88 1215.72 368.88ZM1227.57 364.94C1227.57 363.833 1227.79 362.853 1228.25 362C1228.71 361.147 1229.34 360.487 1230.13 360.02C1230.93 359.54 1231.81 359.3 1232.77 359.3C1233.63 359.3 1234.39 359.473 1235.03 359.82C1235.68 360.153 1236.2 360.573 1236.59 361.08V359.48H1238.89V370.5H1236.59V368.86C1236.2 369.38 1235.67 369.813 1235.01 370.16C1234.34 370.507 1233.58 370.68 1232.73 370.68C1231.78 370.68 1230.91 370.44 1230.13 369.96C1229.34 369.467 1228.71 368.787 1228.25 367.92C1227.79 367.04 1227.57 366.047 1227.57 364.94ZM1236.59 364.98C1236.59 364.22 1236.43 363.56 1236.11 363C1235.8 362.44 1235.39 362.013 1234.89 361.72C1234.38 361.427 1233.83 361.28 1233.25 361.28C1232.66 361.28 1232.11 361.427 1231.61 361.72C1231.1 362 1230.69 362.42 1230.37 362.98C1230.06 363.527 1229.91 364.18 1229.91 364.94C1229.91 365.7 1230.06 366.367 1230.37 366.94C1230.69 367.513 1231.1 367.953 1231.61 368.26C1232.13 368.553 1232.67 368.7 1233.25 368.7C1233.83 368.7 1234.38 368.553 1234.89 368.26C1235.39 367.967 1235.8 367.54 1236.11 366.98C1236.43 366.407 1236.59 365.74 1236.59 364.98ZM1255.22 359.3C1256.09 359.3 1256.86 359.48 1257.54 359.84C1258.24 360.2 1258.78 360.733 1259.16 361.44C1259.56 362.147 1259.76 363 1259.76 364V370.5H1257.5V364.34C1257.5 363.353 1257.26 362.6 1256.76 362.08C1256.27 361.547 1255.6 361.28 1254.74 361.28C1253.89 361.28 1253.21 361.547 1252.7 362.08C1252.21 362.6 1251.96 363.353 1251.96 364.34V370.5H1249.7V364.34C1249.7 363.353 1249.46 362.6 1248.96 362.08C1248.47 361.547 1247.8 361.28 1246.94 361.28C1246.09 361.28 1245.41 361.547 1244.9 362.08C1244.41 362.6 1244.16 363.353 1244.16 364.34V370.5H1241.88V359.48H1244.16V360.74C1244.54 360.287 1245.01 359.933 1245.58 359.68C1246.16 359.427 1246.77 359.3 1247.42 359.3C1248.3 359.3 1249.09 359.487 1249.78 359.86C1250.48 360.233 1251.01 360.773 1251.38 361.48C1251.72 360.813 1252.24 360.287 1252.94 359.9C1253.65 359.5 1254.41 359.3 1255.22 359.3ZM1264.94 361.08C1265.28 360.52 1265.72 360.087 1266.26 359.78C1266.82 359.46 1267.48 359.3 1268.24 359.3V361.66H1267.66C1266.77 361.66 1266.09 361.887 1265.62 362.34C1265.17 362.793 1264.94 363.58 1264.94 364.7V370.5H1262.66V359.48H1264.94V361.08ZM1280.32 359.48V370.5H1278.04V369.2C1277.68 369.653 1277.21 370.013 1276.62 370.28C1276.05 370.533 1275.43 370.66 1274.78 370.66C1273.91 370.66 1273.13 370.48 1272.44 370.12C1271.76 369.76 1271.22 369.227 1270.82 368.52C1270.43 367.813 1270.24 366.96 1270.24 365.96V359.48H1272.5V365.62C1272.5 366.607 1272.75 367.367 1273.24 367.9C1273.73 368.42 1274.41 368.68 1275.26 368.68C1276.11 368.68 1276.79 368.42 1277.28 367.9C1277.79 367.367 1278.04 366.607 1278.04 365.62V359.48H1280.32ZM1285.61 355.7V370.5H1283.33V355.7H1285.61ZM1289.52 370.64C1289.11 370.64 1288.76 370.5 1288.48 370.22C1288.2 369.94 1288.06 369.593 1288.06 369.18C1288.06 368.767 1288.2 368.42 1288.48 368.14C1288.76 367.86 1289.11 367.72 1289.52 367.72C1289.92 367.72 1290.26 367.86 1290.54 368.14C1290.82 368.42 1290.96 368.767 1290.96 369.18C1290.96 369.593 1290.82 369.94 1290.54 370.22C1290.26 370.5 1289.92 370.64 1289.52 370.64ZM1306.77 359.3C1307.63 359.3 1308.41 359.48 1309.09 359.84C1309.78 360.2 1310.32 360.733 1310.71 361.44C1311.11 362.147 1311.31 363 1311.31 364V370.5H1309.05V364.34C1309.05 363.353 1308.8 362.6 1308.31 362.08C1307.81 361.547 1307.14 361.28 1306.29 361.28C1305.43 361.28 1304.75 361.547 1304.25 362.08C1303.75 362.6 1303.51 363.353 1303.51 364.34V370.5H1301.25V364.34C1301.25 363.353 1301 362.6 1300.51 362.08C1300.01 361.547 1299.34 361.28 1298.49 361.28C1297.63 361.28 1296.95 361.547 1296.45 362.08C1295.95 362.6 1295.71 363.353 1295.71 364.34V370.5H1293.43V359.48H1295.71V360.74C1296.08 360.287 1296.55 359.933 1297.13 359.68C1297.7 359.427 1298.31 359.3 1298.97 359.3C1299.85 359.3 1300.63 359.487 1301.33 359.86C1302.02 360.233 1302.55 360.773 1302.93 361.48C1303.26 360.813 1303.78 360.287 1304.49 359.9C1305.19 359.5 1305.95 359.3 1306.77 359.3ZM1324.13 359.48L1317.37 375.68H1315.01L1317.25 370.32L1312.91 359.48H1315.45L1318.55 367.88L1321.77 359.48H1324.13ZM1326.77 370.64C1326.35 370.64 1326.01 370.5 1325.73 370.22C1325.45 369.94 1325.31 369.593 1325.31 369.18C1325.31 368.767 1325.45 368.42 1325.73 368.14C1326.01 367.86 1326.35 367.72 1326.77 367.72C1327.17 367.72 1327.51 367.86 1327.79 368.14C1328.07 368.42 1328.21 368.767 1328.21 369.18C1328.21 369.593 1328.07 369.94 1327.79 370.22C1327.51 370.5 1327.17 370.64 1326.77 370.64ZM1331.83 358.02C1331.42 358.02 1331.07 357.88 1330.79 357.6C1330.51 357.32 1330.37 356.973 1330.37 356.56C1330.37 356.147 1330.51 355.8 1330.79 355.52C1331.07 355.24 1331.42 355.1 1331.83 355.1C1332.23 355.1 1332.57 355.24 1332.85 355.52C1333.13 355.8 1333.27 356.147 1333.27 356.56C1333.27 356.973 1333.13 357.32 1332.85 357.6C1332.57 357.88 1332.23 358.02 1331.83 358.02ZM1332.95 359.48V370.5H1330.67V359.48H1332.95ZM1335.19 364.94C1335.19 363.833 1335.41 362.853 1335.87 362C1336.33 361.147 1336.96 360.487 1337.75 360.02C1338.55 359.54 1339.43 359.3 1340.41 359.3C1341.13 359.3 1341.83 359.46 1342.53 359.78C1343.23 360.087 1343.79 360.5 1344.21 361.02V355.7H1346.51V370.5H1344.21V368.84C1343.83 369.373 1343.31 369.813 1342.65 370.16C1341.99 370.507 1341.24 370.68 1340.39 370.68C1339.43 370.68 1338.55 370.44 1337.75 369.96C1336.96 369.467 1336.33 368.787 1335.87 367.92C1335.41 367.04 1335.19 366.047 1335.19 364.94ZM1344.21 364.98C1344.21 364.22 1344.05 363.56 1343.73 363C1343.42 362.44 1343.01 362.013 1342.51 361.72C1342 361.427 1341.45 361.28 1340.87 361.28C1340.28 361.28 1339.73 361.427 1339.23 361.72C1338.72 362 1338.31 362.42 1337.99 362.98C1337.68 363.527 1337.53 364.18 1337.53 364.94C1337.53 365.7 1337.68 366.367 1337.99 366.94C1338.31 367.513 1338.72 367.953 1339.23 368.26C1339.75 368.553 1340.29 368.7 1340.87 368.7C1341.45 368.7 1342 368.553 1342.51 368.26C1343.01 367.967 1343.42 367.54 1343.73 366.98C1344.05 366.407 1344.21 365.74 1344.21 364.98Z" fill="#BABABA"/>
<path d="M1362.9 372.76H1360.62V354.48H1362.9V372.76Z" fill="white"/>
<path d="M1376.57 364.94C1376.57 363.833 1376.79 362.853 1377.25 362C1377.71 361.147 1378.34 360.487 1379.13 360.02C1379.93 359.54 1380.81 359.3 1381.77 359.3C1382.63 359.3 1383.39 359.473 1384.03 359.82C1384.68 360.153 1385.2 360.573 1385.59 361.08V359.48H1387.89V370.5H1385.59V368.86C1385.2 369.38 1384.67 369.813 1384.01 370.16C1383.34 370.507 1382.58 370.68 1381.73 370.68C1380.78 370.68 1379.91 370.44 1379.13 369.96C1378.34 369.467 1377.71 368.787 1377.25 367.92C1376.79 367.04 1376.57 366.047 1376.57 364.94ZM1385.59 364.98C1385.59 364.22 1385.43 363.56 1385.11 363C1384.8 362.44 1384.39 362.013 1383.89 361.72C1383.38 361.427 1382.83 361.28 1382.25 361.28C1381.66 361.28 1381.11 361.427 1380.61 361.72C1380.1 362 1379.69 362.42 1379.37 362.98C1379.06 363.527 1378.91 364.18 1378.91 364.94C1378.91 365.7 1379.06 366.367 1379.37 366.94C1379.69 367.513 1380.1 367.953 1380.61 368.26C1381.13 368.553 1381.67 368.7 1382.25 368.7C1382.83 368.7 1383.38 368.553 1383.89 368.26C1384.39 367.967 1384.8 367.54 1385.11 366.98C1385.43 366.407 1385.59 365.74 1385.59 364.98ZM1404.22 359.3C1405.09 359.3 1405.86 359.48 1406.54 359.84C1407.24 360.2 1407.78 360.733 1408.16 361.44C1408.56 362.147 1408.76 363 1408.76 364V370.5H1406.5V364.34C1406.5 363.353 1406.26 362.6 1405.76 362.08C1405.27 361.547 1404.6 361.28 1403.74 361.28C1402.89 361.28 1402.21 361.547 1401.7 362.08C1401.21 362.6 1400.96 363.353 1400.96 364.34V370.5H1398.7V364.34C1398.7 363.353 1398.46 362.6 1397.96 362.08C1397.47 361.547 1396.8 361.28 1395.94 361.28C1395.09 361.28 1394.41 361.547 1393.9 362.08C1393.41 362.6 1393.16 363.353 1393.16 364.34V370.5H1390.88V359.48H1393.16V360.74C1393.54 360.287 1394.01 359.933 1394.58 359.68C1395.16 359.427 1395.77 359.3 1396.42 359.3C1397.3 359.3 1398.09 359.487 1398.78 359.86C1399.48 360.233 1400.01 360.773 1400.38 361.48C1400.72 360.813 1401.24 360.287 1401.94 359.9C1402.65 359.5 1403.41 359.3 1404.22 359.3ZM1413.94 361.08C1414.28 360.52 1414.72 360.087 1415.26 359.78C1415.82 359.46 1416.48 359.3 1417.24 359.3V361.66H1416.66C1415.77 361.66 1415.09 361.887 1414.62 362.34C1414.17 362.793 1413.94 363.58 1413.94 364.7V370.5H1411.66V359.48H1413.94V361.08ZM1429.32 359.48V370.5H1427.04V369.2C1426.68 369.653 1426.21 370.013 1425.62 370.28C1425.05 370.533 1424.43 370.66 1423.78 370.66C1422.91 370.66 1422.13 370.48 1421.44 370.12C1420.76 369.76 1420.22 369.227 1419.82 368.52C1419.43 367.813 1419.24 366.96 1419.24 365.96V359.48H1421.5V365.62C1421.5 366.607 1421.75 367.367 1422.24 367.9C1422.73 368.42 1423.41 368.68 1424.26 368.68C1425.11 368.68 1425.79 368.42 1426.28 367.9C1426.79 367.367 1427.04 366.607 1427.04 365.62V359.48H1429.32ZM1434.61 355.7V370.5H1432.33V355.7H1434.61ZM1438.52 370.64C1438.11 370.64 1437.76 370.5 1437.48 370.22C1437.2 369.94 1437.06 369.593 1437.06 369.18C1437.06 368.767 1437.2 368.42 1437.48 368.14C1437.76 367.86 1438.11 367.72 1438.52 367.72C1438.92 367.72 1439.26 367.86 1439.54 368.14C1439.82 368.42 1439.96 368.767 1439.96 369.18C1439.96 369.593 1439.82 369.94 1439.54 370.22C1439.26 370.5 1438.92 370.64 1438.52 370.64ZM1455.77 359.3C1456.63 359.3 1457.41 359.48 1458.09 359.84C1458.78 360.2 1459.32 360.733 1459.71 361.44C1460.11 362.147 1460.31 363 1460.31 364V370.5H1458.05V364.34C1458.05 363.353 1457.8 362.6 1457.31 362.08C1456.81 361.547 1456.14 361.28 1455.29 361.28C1454.43 361.28 1453.75 361.547 1453.25 362.08C1452.75 362.6 1452.51 363.353 1452.51 364.34V370.5H1450.25V364.34C1450.25 363.353 1450 362.6 1449.51 362.08C1449.01 361.547 1448.34 361.28 1447.49 361.28C1446.63 361.28 1445.95 361.547 1445.45 362.08C1444.95 362.6 1444.71 363.353 1444.71 364.34V370.5H1442.43V359.48H1444.71V360.74C1445.08 360.287 1445.55 359.933 1446.13 359.68C1446.7 359.427 1447.31 359.3 1447.97 359.3C1448.85 359.3 1449.63 359.487 1450.33 359.86C1451.02 360.233 1451.55 360.773 1451.93 361.48C1452.26 360.813 1452.78 360.287 1453.49 359.9C1454.19 359.5 1454.95 359.3 1455.77 359.3ZM1473.13 359.48L1466.37 375.68H1464.01L1466.25 370.32L1461.91 359.48H1464.45L1467.55 367.88L1470.77 359.48H1473.13ZM1475.77 370.64C1475.35 370.64 1475.01 370.5 1474.73 370.22C1474.45 369.94 1474.31 369.593 1474.31 369.18C1474.31 368.767 1474.45 368.42 1474.73 368.14C1475.01 367.86 1475.35 367.72 1475.77 367.72C1476.17 367.72 1476.51 367.86 1476.79 368.14C1477.07 368.42 1477.21 368.767 1477.21 369.18C1477.21 369.593 1477.07 369.94 1476.79 370.22C1476.51 370.5 1476.17 370.64 1475.77 370.64ZM1480.83 358.02C1480.42 358.02 1480.07 357.88 1479.79 357.6C1479.51 357.32 1479.37 356.973 1479.37 356.56C1479.37 356.147 1479.51 355.8 1479.79 355.52C1480.07 355.24 1480.42 355.1 1480.83 355.1C1481.23 355.1 1481.57 355.24 1481.85 355.52C1482.13 355.8 1482.27 356.147 1482.27 356.56C1482.27 356.973 1482.13 357.32 1481.85 357.6C1481.57 357.88 1481.23 358.02 1480.83 358.02ZM1481.95 359.48V370.5H1479.67V359.48H1481.95ZM1484.19 364.94C1484.19 363.833 1484.41 362.853 1484.87 362C1485.33 361.147 1485.96 360.487 1486.75 360.02C1487.55 359.54 1488.43 359.3 1489.41 359.3C1490.13 359.3 1490.83 359.46 1491.53 359.78C1492.23 360.087 1492.79 360.5 1493.21 361.02V355.7H1495.51V370.5H1493.21V368.84C1492.83 369.373 1492.31 369.813 1491.65 370.16C1490.99 370.507 1490.24 370.68 1489.39 370.68C1488.43 370.68 1487.55 370.44 1486.75 369.96C1485.96 369.467 1485.33 368.787 1484.87 367.92C1484.41 367.04 1484.19 366.047 1484.19 364.94ZM1493.21 364.98C1493.21 364.22 1493.05 363.56 1492.73 363C1492.42 362.44 1492.01 362.013 1491.51 361.72C1491 361.427 1490.45 361.28 1489.87 361.28C1489.28 361.28 1488.73 361.427 1488.23 361.72C1487.72 362 1487.31 362.42 1486.99 362.98C1486.68 363.527 1486.53 364.18 1486.53 364.94C1486.53 365.7 1486.68 366.367 1486.99 366.94C1487.31 367.513 1487.72 367.953 1488.23 368.26C1488.75 368.553 1489.29 368.7 1489.87 368.7C1490.45 368.7 1491 368.553 1491.51 368.26C1492.01 367.967 1492.42 367.54 1492.73 366.98C1493.05 366.407 1493.21 365.74 1493.21 364.98Z" fill="#FFD500"/>
</g>
<defs>
<filter id="filter0_f_103_117" x="-511" y="-1306" width="3431" height="3081" filterUnits="userSpaceOnUse" color-interpolation-filters="sRGB">
<feFlood flood-opacity="0" result="BackgroundImageFix"/>
<feBlend mode="normal" in="SourceGraphic" in2="BackgroundImageFix" result="shape"/>
<feGaussianBlur stdDeviation="500" result="effect1_foregroundBlur_103_117"/>
</filter>
<clipPath id="clip0_103_117">
<rect width="1584" height="396" fill="white"/>
</clipPath>
</defs>
</svg>
